<?xml version="1.0" encoding="utf-8"?>
<!-- Generator: Adobe Illustrator 15.0.0, SVG Export Plug-In . SVG Version: 6.00 Build 0)  -->
<!DOCTYPE svg PUBLIC "-//W3C//DTD SVG 1.1//EN" "http://www.w3.org/Graphics/SVG/1.1/DTD/svg11.dtd">
<svg version="1.1" id="Layer_1" xmlns="http://www.w3.org/2000/svg" xmlns:xlink="http://www.w3.org/1999/xlink" x="0px" y="0px"
	 width="113.014px" height="176.617px" viewBox="0 0 113.014 176.617" enable-background="new 0 0 113.014 176.617"
	 xml:space="preserve">
<g>
	<path fill="#B05C2E" d="M13.777,159.629c0,0-10.748-5.087-9.521-9.904c1.229-4.815,6.918-8.645,6.918-8.645
		s-6.564-12.961-1.65-33.447c0,0-18.769-29.981,10.708-47.095c0,0-17.121-44.39,27.216-52.325c0,0,7.838-8.845,28.882-3.561
		c22.269,5.592,24.445,20.281,24.445,20.281s18.586,18.283,4.738,39.753l-4.836,8.648c0,0,11.166,16.796,6.059,45.611
		c-5.934,33.475-16.991,46.785-36.82,51.924C50.084,176.01,34.608,173.65,13.777,159.629z"/>
	<path opacity="0.4" d="M83.963,83.394c0,0-28.174,29.374-23.287,49.113C60.676,132.507,48.094,118.84,83.963,83.394z"/>
	<path opacity="0.4" d="M39.006,87.312c0,0-13.652-13.554-17.867-27.072c-0.415,0.394-0.838,0.775-1.265,1.153
		C21.841,67.475,26.987,76.026,39.006,87.312z"/>
	<path opacity="0.4" d="M89.469,42.247c0,0,8.344-8.792,10.762-17.369c0.268,0.239,0.54,0.47,0.814,0.698
		C99.913,29.435,96.826,34.912,89.469,42.247z"/>
	<path opacity="0.4" d="M14.158,110.383c0,0,6.953,4.875,18.801,7.391c0,0-1.156,15.916,1.107,24.902c0,0-5.467-18.598-3.246-22.998
		C30.821,119.678,22.829,117.658,14.158,110.383z"/>
	
		<linearGradient id="SVGID_1_" gradientUnits="userSpaceOnUse" x1="-15.0996" y1="-399.4897" x2="6.7552" y2="-399.4897" gradientTransform="matrix(0.9758 0.2185 -0.2185 0.9758 -56.3701 427.8428)">
		<stop  offset="0" style="stop-color:#FFFFFF;stop-opacity:0.4"/>
		<stop  offset="1" style="stop-color:#FFFFFF;stop-opacity:0"/>
	</linearGradient>
	<path fill="url(#SVGID_1_)" d="M23.297,65.686c0,0-18.948-49.276,20.461-54.192C43.758,11.494,9.69,20.157,23.297,65.686z"/>
	
		<linearGradient id="SVGID_2_" gradientUnits="userSpaceOnUse" x1="7.2451" y1="-436.0693" x2="36.2233" y2="-436.0693" gradientTransform="matrix(0.9758 0.2185 -0.2185 0.9758 -56.3701 427.8428)">
		<stop  offset="0" style="stop-color:#FFFFFF;stop-opacity:0.4"/>
		<stop  offset="1" style="stop-color:#FFFFFF;stop-opacity:0"/>
	</linearGradient>
	<path opacity="0.6" fill="url(#SVGID_2_)" d="M48.618,9.239c0,0,5.236-7.665,26.636-3.548C75.254,5.69,52.725,5.106,48.618,9.239z"
		/>
	
		<linearGradient id="SVGID_3_" gradientUnits="userSpaceOnUse" x1="-16.8496" y1="-358.7402" x2="-3.0355" y2="-358.7402" gradientTransform="matrix(0.9758 0.2185 -0.2185 0.9758 -56.3701 427.8428)">
		<stop  offset="0" style="stop-color:#FFFFFF;stop-opacity:0.4"/>
		<stop  offset="1" style="stop-color:#FFFFFF;stop-opacity:0"/>
	</linearGradient>
	<path fill="url(#SVGID_3_)" d="M21.921,64.222l-1.344-2.45c0,0-17.416,10.229-15.2,27.951c0.684-0.061,1.385-0.113,2.083-0.213
		C7.545,82.001,10.547,72.552,21.921,64.222z"/>
	
		<linearGradient id="SVGID_4_" gradientUnits="userSpaceOnUse" x1="-19.0947" y1="-321.6646" x2="26.5417" y2="-321.6646" gradientTransform="matrix(0.9758 0.2185 -0.2185 0.9758 -56.3701 427.8428)">
		<stop  offset="0" style="stop-color:#FFFFFF;stop-opacity:0.4"/>
		<stop  offset="1" style="stop-color:#FFFFFF;stop-opacity:0"/>
	</linearGradient>
	<path fill="url(#SVGID_4_)" d="M5.585,90.779c0,0,1.081,18.506,28.177,26.349c0,0-1.616,20.093,1.302,23.772
		c0,0-2.494-21.104,0.286-24.684c0,0-23.96-3.641-28.04-25.961L5.585,90.779z"/>
	
		<linearGradient id="SVGID_5_" gradientUnits="userSpaceOnUse" x1="-4.5308" y1="-310.1807" x2="5.2728" y2="-310.1807" gradientTransform="matrix(0.9758 0.2185 -0.2185 0.9758 -56.3701 427.8428)">
		<stop  offset="0" style="stop-color:#FFFFFF;stop-opacity:0.4"/>
		<stop  offset="1" style="stop-color:#FFFFFF;stop-opacity:0"/>
	</linearGradient>
	<path fill="url(#SVGID_5_)" d="M11.473,110.051c0,0-4.698,15.9,1.84,30.654C13.313,140.705,9.633,127.01,11.473,110.051z"/>
	<path opacity="0.1" d="M101.147,28.163c0,0,16.909,17.065,0.493,38.85c0,0,11.207-23.225-2.817-35.387L101.147,28.163z"/>
	<path opacity="0.1" d="M98.621,74.68c0,0,22.857,32.858-10.512,84.35c0,0,7.856-16.309,13.283-42.926
		C106.82,89.486,98.621,74.68,98.621,74.68z"/>
	<path fill="#020101" d="M39.194,172.762c-8.145-2.002-16.354-5.902-25.826-12.27c-1.417-0.678-11.335-5.637-9.961-11.028
		c1.056-4.141,5.018-7.497,6.628-8.718c-1.346-3.152-5.612-15.176-1.463-32.939c-1.361-2.318-8.014-14.558-5.093-27.597
		c1.836-8.201,7.098-14.965,15.645-20.116c-1.359-3.94-6.456-20.847,0.609-34.9c4.734-9.418,13.921-15.436,27.306-17.889
		c1.45-1.425,9.776-8.443,29.158-3.679l0.328,0.082c11.743,2.949,17.932,8.458,21.055,12.56c2.895,3.802,3.779,7.112,4.002,8.165
		c0.977,1.018,4.93,5.383,7.562,11.934c2.75,6.842,4.479,17.401-2.895,28.853l-4.521,8.087c0.824,1.388,2.982,5.383,4.738,11.746
		c1.994,7.222,3.809,18.997,1.137,34.078c-5.746,32.41-16.256,47.181-37.485,52.682C58.406,174.847,48.87,175.141,39.194,172.762z
		 M75.812,5.516c-19.976-4.91-27.66,3.292-27.735,3.375l-0.202,0.224L47.59,9.169c-12.964,2.319-21.816,8.022-26.308,16.95
		c-7.471,14.846-0.31,33.851-0.237,34.041l0.315,0.818l-0.715,0.416C12.157,66.322,6.959,72.803,5.196,80.66
		c-2.992,13.328,4.975,26.295,5.057,26.424l0.229,0.367l-0.103,0.428c-4.755,19.827,1.504,32.605,1.568,32.732l0.407,0.809
		l-0.717,0.486c-0.054,0.037-5.411,3.693-6.53,8.08c-0.742,2.91,5.139,6.914,9.02,8.754l0.112,0.063
		c9.324,6.276,17.377,10.11,25.343,12.067c9.402,2.312,18.694,2.02,30.133-0.945c20.432-5.293,30.57-19.639,36.158-51.166
		c4.966-28.02-5.797-44.691-5.905-44.856l-0.347-0.524l5.175-9.253c5.538-8.588,6.468-17.644,2.761-26.917
		c-2.797-6.997-7.322-11.51-7.368-11.555l-0.231-0.228l-0.051-0.337c-0.004-0.032-0.578-3.555-3.762-7.687
		c-2.953-3.835-8.822-8.997-20.01-11.806L75.812,5.516z"/>
</g>
</svg>
