<?xml version="1.0" encoding="utf-8"?>
<!-- Generator: Adobe Illustrator 15.0.0, SVG Export Plug-In . SVG Version: 6.00 Build 0)  -->
<!DOCTYPE svg PUBLIC "-//W3C//DTD SVG 1.1//EN" "http://www.w3.org/Graphics/SVG/1.1/DTD/svg11.dtd">
<svg version="1.1" id="Layer_1" xmlns="http://www.w3.org/2000/svg" xmlns:xlink="http://www.w3.org/1999/xlink" x="0px" y="0px"
	 width="113.014px" height="176.617px" viewBox="0 0 113.014 176.617" enable-background="new 0 0 113.014 176.617"
	 xml:space="preserve">
<g>
	<path fill="#B05C2E" d="M100.475,159.629c0,0,10.748-5.087,9.521-9.904c-1.229-4.814-6.918-8.645-6.918-8.645
		s6.563-12.961,1.649-33.447c0,0,18.77-29.981-10.708-47.095c0,0,17.121-44.39-27.216-52.325c0,0-7.838-8.845-28.882-3.561
		c-22.27,5.592-24.445,20.281-24.445,20.281S-5.109,43.216,8.738,64.687l4.837,8.648c0,0-11.166,16.796-6.06,45.61
		c5.935,33.476,16.991,46.785,36.82,51.925C64.167,176.01,79.644,173.65,100.475,159.629z"/>
	<path opacity="0.4" enable-background="new    " d="M30.289,83.394c0,0,28.174,29.374,23.287,49.113
		C53.576,132.507,66.158,118.84,30.289,83.394z"/>
	<path opacity="0.4" enable-background="new    " d="M75.246,87.312c0,0,13.651-13.554,17.866-27.072
		c0.415,0.394,0.839,0.775,1.266,1.153C92.411,67.475,87.265,76.026,75.246,87.312z"/>
	<path opacity="0.4" enable-background="new    " d="M24.783,42.247c0,0-8.345-8.792-10.763-17.369
		c-0.268,0.239-0.54,0.47-0.813,0.698C14.339,29.435,17.426,34.912,24.783,42.247z"/>
	<path opacity="0.4" enable-background="new    " d="M100.094,110.383c0,0-6.953,4.875-18.801,7.391c0,0,1.156,15.916-1.107,24.902
		c0,0,5.467-18.598,3.246-22.998C83.431,119.678,91.423,117.658,100.094,110.383z"/>
	<path opacity="0.15" fill="#050505" d="M90.955,65.686c0,0,18.947-49.276-20.461-54.192
		C70.494,11.494,104.562,20.157,90.955,65.686z"/>
	<path opacity="0.15" fill="#050505" enable-background="new    " d="M65.634,9.239c0,0-5.236-7.665-26.636-3.548
		C38.998,5.69,61.527,5.106,65.634,9.239z"/>
	<path opacity="0.15" fill="#050505" d="M92.331,64.222l1.344-2.45c0,0,17.416,10.229,15.2,27.951
		c-0.685-0.061-1.385-0.113-2.083-0.213C106.707,82.001,103.705,72.552,92.331,64.222z"/>
	<path opacity="0.15" fill="#050505" d="M108.667,90.779c0,0-1.081,18.506-28.177,26.349c0,0,1.615,20.093-1.303,23.772
		c0,0,2.494-21.104-0.286-24.685c0,0,23.96-3.641,28.04-25.961L108.667,90.779z"/>
	<path opacity="0.15" fill="#050505" d="M102.779,110.051c0,0,4.698,15.9-1.84,30.654
		C100.939,140.705,104.619,127.01,102.779,110.051z"/>
	<path opacity="0.1" enable-background="new    " d="M13.104,28.163c0,0-16.909,17.065-0.493,38.85c0,0-11.207-23.225,2.817-35.387
		L13.104,28.163z"/>
	<path opacity="0.1" enable-background="new    " d="M15.631,74.68c0,0-22.857,32.858,10.512,84.349c0,0-7.855-16.309-13.283-42.926
		S15.631,74.68,15.631,74.68z"/>
	<path fill="#020101" d="M44.134,171.812c-21.229-5.502-31.739-20.271-37.485-52.683c-2.672-15.08-0.857-26.854,1.137-34.077
		c1.756-6.363,3.914-10.357,4.737-11.746L8.002,65.22C0.629,53.769,2.357,43.21,5.107,36.368c2.634-6.551,6.586-10.916,7.562-11.934
		c0.223-1.053,1.106-4.363,4.002-8.165c3.123-4.102,9.312-9.611,21.055-12.56l0.328-0.082C57.437-1.138,65.763,5.88,67.213,7.305
		c13.385,2.453,22.572,8.471,27.306,17.889c7.065,14.053,1.968,30.96,0.609,34.9c8.546,5.151,13.809,11.916,15.645,20.116
		c2.92,13.039-3.731,25.278-5.093,27.597c4.149,17.764-0.117,29.787-1.463,32.939c1.61,1.221,5.572,4.577,6.628,8.718
		c1.374,5.392-8.543,10.351-9.961,11.028c-9.472,6.367-17.681,10.268-25.826,12.27C65.382,175.141,55.846,174.848,44.134,171.812z
		 M38.119,5.596c-11.188,2.809-17.058,7.971-20.011,11.806c-3.184,4.132-3.758,7.655-3.762,7.687l-0.051,0.337l-0.231,0.228
		c-0.046,0.045-4.57,4.558-7.368,11.555C2.99,46.483,3.92,55.539,9.458,64.127l5.175,9.253l-0.347,0.524
		C14.178,74.069,3.415,90.74,8.381,118.76c5.588,31.527,15.727,45.873,36.158,51.166c11.438,2.965,20.73,3.258,30.133,0.945
		c7.966-1.957,16.019-5.791,25.343-12.066l0.112-0.063c3.881-1.841,9.762-5.845,9.02-8.755c-1.119-4.387-6.476-8.043-6.529-8.079
		l-0.718-0.486l0.407-0.81c0.064-0.127,6.324-12.904,1.568-32.731l-0.104-0.428l0.229-0.367c0.082-0.129,8.049-13.097,5.057-26.424
		c-1.764-7.856-6.961-14.338-15.449-19.266l-0.715-0.416l0.315-0.818c0.073-0.19,7.233-19.195-0.237-34.041
		C88.48,17.192,79.628,11.489,66.664,9.17l-0.286-0.055l-0.202-0.224C66.1,8.808,58.417,0.606,38.441,5.516L38.119,5.596z"/>
</g>
</svg>
