<?xml version="1.0" encoding="utf-8"?>
<!-- Generator: Adobe Illustrator 15.0.0, SVG Export Plug-In . SVG Version: 6.00 Build 0)  -->
<!DOCTYPE svg PUBLIC "-//W3C//DTD SVG 1.1//EN" "http://www.w3.org/Graphics/SVG/1.1/DTD/svg11.dtd">
<svg version="1.1" id="Layer_1" xmlns="http://www.w3.org/2000/svg" xmlns:xlink="http://www.w3.org/1999/xlink" x="0px" y="0px"
	 width="6px" height="11px" viewBox="0.578 -0.094 6 11" enable-background="new 0.578 -0.094 6 11" xml:space="preserve">
<g id="legs" display="none">
	<path display="inline" fill="#050302" d="M61.135,342.688l2.799,0.681l-3.039,0.339l-0.188,0.021l-0.25,0.021l-0.531,0.043
		l-1.097,0.085l-2.33,0.17l-0.184-2.344l-0.09-1.25l-0.045-0.622l-0.046-0.408l-0.364-3.268l-0.729-6.532h5.634l-0.73,6.532
		l-0.364,3.268l-0.045,0.408c-0.005,0.043-0.009,0.053-0.013,0.063l-0.012,0.046l-0.021,0.085c-0.03,0.12-0.062,0.247-0.092,0.383
		c-0.061,0.272-0.121,0.58-0.183,0.922c0.206,0.058,0.442,0.114,0.709,0.171l0.423,0.085l0.229,0.042
		c0.045,0.007,0.067,0.014,0.131,0.021l0.188,0.021l3.039,0.337L61.135,342.688z"/>
	<path display="inline" fill="#050302" d="M55.805,346.768l3.154,0.767l-3.423,0.38l-0.214,0.025l-0.281,0.023l-0.598,0.047
		l-1.236,0.097l-2.625,0.19l-0.206-2.64l-0.103-1.41l-0.053-0.699l-0.052-0.46l-0.41-3.679l-0.821-7.358h6.348l-0.822,7.358
		l-0.412,3.679L54,343.548c-0.004,0.048-0.008,0.061-0.014,0.075l-0.012,0.046l-0.025,0.1c-0.034,0.134-0.069,0.276-0.104,0.431
		c-0.068,0.308-0.136,0.651-0.205,1.04c0.231,0.062,0.498,0.127,0.797,0.189l0.478,0.097l0.258,0.048
		c0.05,0.008,0.075,0.016,0.146,0.024l0.215,0.022l3.423,0.382L55.805,346.768z"/>
</g>
<g id="Layer_1_1_" display="none">
	<g display="inline">
		<g>
			<path d="M55.824,337.154c-9.812,0-18.936-4.718-24.62-12.671c-1.245-0.118-2.539-0.272-3.861-0.462
				c-1.655-0.239-16.217-2.46-18.569-6.729c-0.549-0.995-0.545-2.105,0.009-3.044c0.479-0.812,1.405-1.705,4.092-2.17
				c-4.498-2.579-8.938-5.638-9.606-7.966c-0.257-0.903-0.1-1.824,0.433-2.529c1.008-1.336,3.083-1.52,6.061-0.896
				c-4.582-4.196-8.542-8.517-8.502-10.873c0.027-1.588,1.258-2.739,2.928-2.739c4.592,0,17.974,10.073,22.102,13.269
				c3.027-13.576,15.305-23.712,29.537-23.712c16.686,0,30.261,13.575,30.261,30.262C86.085,323.58,72.51,337.154,55.824,337.154z"
				/>
		</g>
		<path fill="#00AFFF" d="M55.824,278.875c-14.664,0-26.69,11.268-27.909,25.617c-0.747-0.604-1.509-1.209-2.291-1.822
			C13.818,293.426,3.542,287.443,3.5,289.854c-0.035,2.029,7.303,9.252,16.541,16.611c-8.92-3.654-15.189-4.972-14.618-2.97
			c0.563,1.966,7.621,6.516,16.343,10.698c-7.379-0.6-12.004,0.25-11.029,2.019c1.055,1.913,8.416,4.359,16.925,5.59
			c1.668,0.239,3.276,0.42,4.79,0.539c5.015,7.575,13.609,12.571,23.373,12.571c15.473,0,28.019-12.543,28.019-28.019
			C83.843,291.417,71.297,278.875,55.824,278.875z"/>
		<path opacity="0.1" fill="#050505" enable-background="new    " d="M58.789,329.029c-10.945,0-20.578-3.749-26.2-9.43
			c-1.696-0.09-3.5-0.225-5.368-0.403c-6.51-0.63-12.418-1.687-15.89-2.748c1.153,1.905,8.458,4.321,16.89,5.539
			c1.67,0.239,3.278,0.421,4.791,0.54c5.016,7.574,13.609,12.572,23.373,12.572c8.916,0,16.854-4.172,21.986-10.662
			C73,327.311,66.197,329.029,58.789,329.029z"/>
		<path opacity="0.4" fill="#FFFFFF" enable-background="new    " d="M55.068,278.953c-23.684-0.696-27.344,24.322-27.186,25.412
			c-3.621-3.368-15.123-13.982-24.009-15.042c0,0,19.959,11.788,25.411,20.086c0.306,0.66,2.947-13.056,10.089-19.993
			c7.336-7.126,20.597-9.48,28.401-7.566C64.126,279.656,59.665,278.953,55.068,278.953z"/>
	</g>
	<g display="inline">
		<g>
			<path fill="#020201" d="M76.119,299.027c-2.223,0.611-5.036-0.604-6.998-3.027c-1.109-1.367-1.816-2.955-1.992-4.473
				c-0.201-1.771,0.35-3.328,1.512-4.272c0.406-0.328,1.139-0.752,3.518-1.405c3.814-1.051,9.642-2.101,9.889-2.146l3.073-0.554
				l-1.208,2.881c-1.691,4.029-4.762,10.977-6.334,12.248C77.152,298.629,76.661,298.88,76.119,299.027z"/>
		</g>
		<path fill="#FFD400" d="M81.911,285.473c0,0-4.146,9.879-5.548,11.014c-1.397,1.136-3.981,0.271-5.77-1.93
			c-1.783-2.201-2.094-4.904-0.693-6.041C71.301,287.377,81.911,285.473,81.911,285.473z"/>
	</g>
</g>
<g id="wings" display="none">
	<g display="inline">
		<g>
			<path fill="#FFFFFF" stroke="#000000" stroke-width="4.4843" stroke-miterlimit="10" d="M57.281,322.309
				c1.379-8.108,1.1-14.716-0.766-14.259c-0.008,0.004-0.017,0.008-0.023,0.012c-1.471-0.579-8.59,6.089-16.471,15.653
				c-8.584,10.415-14.197,19.529-12.029,19.619c1.824,0.078,8.488-6.362,15.318-14.512c-3.49,7.946-4.813,13.558-3.002,13.088
				c1.784-0.462,6.035-6.712,9.994-14.466c-0.703,6.628-0.044,10.805,1.569,9.97C53.618,336.509,55.984,329.938,57.281,322.309z"/>
			<path fill="#00AFFF" d="M57.281,322.309c1.379-8.108,1.1-14.716-0.766-14.259c-0.008,0.004-0.017,0.008-0.023,0.012
				c-1.471-0.579-8.59,6.089-16.471,15.653c-8.584,10.415-14.197,19.529-12.029,19.619c1.824,0.078,8.488-6.362,15.318-14.512
				c-3.49,7.946-4.813,13.558-3.002,13.088c1.784-0.462,6.035-6.712,9.994-14.466c-0.703,6.628-0.044,10.805,1.569,9.97
				C53.618,336.509,55.984,329.938,57.281,322.309z"/>
		</g>
		<g opacity="0.1">
			<path fill="#050505" d="M56.443,308.14c0,0,0.858,8.5-0.955,18.085c-1.812,9.584-4.156,9.297-4.156,9.297V323.61
				c0,0-1.98,3.053-4.857,8.312c-3.551,6.493-4.953,6.119-4.953,6.119l3.41-11.912l-15.976,15.462l1.585-5.156
				c-2.684,4.189-3.832,6.942-2.645,6.992c1.824,0.077,8.487-6.363,15.318-14.512c-3.49,7.946-4.812,13.557-3.002,13.088
				c1.784-0.464,6.035-6.714,9.995-14.465c-0.705,6.625-0.044,10.804,1.567,9.968c1.746-0.906,4.113-7.474,5.41-15.104
				C58.561,314.326,58.289,307.743,56.443,308.14z"/>
		</g>
		<path opacity="0.4" fill="#FFFFFF" enable-background="new    " d="M30.734,336.574c0,0,16.82-23.217,25.455-27.912
			C56.189,308.662,47.771,309.621,30.734,336.574z"/>
	</g>
</g>
<g id="eyes_1_">
	<ellipse cx="3.822" cy="4.997" rx="2.756" ry="5.09"/>
</g>
</svg>
