<?xml version="1.0" encoding="utf-8"?>
<!-- Generator: Adobe Illustrator 15.0.0, SVG Export Plug-In . SVG Version: 6.00 Build 0)  -->
<!DOCTYPE svg PUBLIC "-//W3C//DTD SVG 1.1//EN" "http://www.w3.org/Graphics/SVG/1.1/DTD/svg11.dtd">
<svg version="1.1" xmlns="http://www.w3.org/2000/svg" xmlns:xlink="http://www.w3.org/1999/xlink" x="0px" y="0px" width="9.5px"
	 height="15.312px" viewBox="54.625 329.125 9.5 15.312" enable-background="new 54.625 329.125 9.5 15.312" xml:space="preserve">
<g id="legs">
	<path fill="#050302" d="M61.135,342.688l2.799,0.68l-3.039,0.339l-0.189,0.022l-0.25,0.021l-0.531,0.043l-1.097,0.085l-2.33,0.17
		l-0.183-2.344l-0.091-1.25l-0.045-0.622l-0.045-0.408l-0.365-3.268l-0.729-6.532h5.634l-0.73,6.532l-0.365,3.268l-0.045,0.408
		c-0.005,0.043-0.008,0.053-0.012,0.064l-0.012,0.045l-0.022,0.085c-0.03,0.121-0.061,0.247-0.091,0.383
		c-0.061,0.273-0.122,0.58-0.183,0.922c0.206,0.058,0.442,0.114,0.709,0.171l0.423,0.085l0.229,0.042
		c0.045,0.007,0.067,0.014,0.131,0.021l0.189,0.022l3.039,0.337L61.135,342.688z"/>
</g>
<g id="Layer_1" display="none">
	<g display="inline">
		<g>
			<path d="M55.824,337.154c-9.812,0-18.935-4.717-24.62-12.671c-1.245-0.118-2.539-0.272-3.861-0.462
				c-1.655-0.239-16.217-2.459-18.569-6.728c-0.549-0.995-0.546-2.105,0.008-3.044c0.479-0.811,1.406-1.705,4.092-2.17
				c-4.498-2.579-8.938-5.638-9.606-7.966c-0.257-0.903-0.1-1.824,0.433-2.529c1.008-1.336,3.083-1.519,6.06-0.897
				c-4.582-4.196-8.542-8.516-8.501-10.873c0.027-1.587,1.258-2.739,2.927-2.739c4.593,0,17.974,10.074,22.102,13.269
				c3.027-13.576,15.305-23.712,29.537-23.712c16.686,0,30.261,13.575,30.261,30.262C86.085,323.58,72.51,337.154,55.824,337.154z"
				/>
		</g>
		<path fill="#00AFFF" d="M55.824,278.875c-14.664,0-26.69,11.268-27.909,25.617c-0.747-0.603-1.509-1.209-2.291-1.822
			C13.819,293.426,3.542,287.443,3.5,289.854c-0.035,2.029,7.303,9.252,16.541,16.611c-8.92-3.655-15.189-4.972-14.618-2.97
			c0.564,1.966,7.621,6.516,16.342,10.698c-7.379-0.599-12.003,0.25-11.028,2.019c1.054,1.913,8.416,4.359,16.924,5.59
			c1.668,0.239,3.277,0.42,4.79,0.539c5.015,7.575,13.609,12.571,23.373,12.571c15.473,0,28.019-12.543,28.019-28.018
			C83.843,291.417,71.297,278.875,55.824,278.875z"/>
		<path opacity="0.1" fill="#050505" d="M58.789,329.029c-10.945,0-20.578-3.749-26.2-9.429c-1.696-0.09-3.5-0.225-5.369-0.404
			c-6.509-0.63-12.417-1.686-15.889-2.748c1.154,1.905,8.458,4.321,16.89,5.539c1.669,0.24,3.278,0.421,4.791,0.54
			c5.016,7.575,13.609,12.573,23.373,12.573c8.916,0,16.854-4.172,21.986-10.663C73,327.311,66.197,329.029,58.789,329.029z"/>
		<path opacity="0.4" fill="#FFFFFF" d="M55.069,278.953c-23.684-0.696-27.345,24.322-27.186,25.412
			c-3.621-3.368-15.123-13.982-24.009-15.042c0,0,19.959,11.789,25.411,20.086c0.306,0.66,2.948-13.055,10.089-19.993
			c7.336-7.126,20.596-9.481,28.401-7.567C64.126,279.656,59.665,278.953,55.069,278.953z"/>
	</g>
	<g display="inline">
		<g>
			<path fill="#020201" d="M76.119,299.027c-2.222,0.611-5.036-0.604-6.998-3.027c-1.109-1.367-1.817-2.955-1.992-4.473
				c-0.201-1.771,0.35-3.328,1.512-4.272c0.406-0.328,1.139-0.752,3.517-1.406c3.815-1.05,9.642-2.1,9.889-2.145l3.073-0.553
				l-1.208,2.88c-1.691,4.029-4.761,10.977-6.334,12.249C77.153,298.629,76.661,298.88,76.119,299.027z"/>
		</g>
		<path fill="#FFD400" d="M81.911,285.473c0,0-4.146,9.879-5.547,11.013c-1.398,1.136-3.982,0.271-5.77-1.929
			c-1.783-2.201-2.094-4.905-0.693-6.042C71.301,287.377,81.911,285.473,81.911,285.473z"/>
	</g>
</g>
<g id="eyes" display="none">
	<ellipse display="inline" cx="61.066" cy="292.431" rx="2.756" ry="5.09"/>
</g>
<g id="wings" display="none">
	<g display="inline">
		<g>
			<path fill="#FFFFFF" stroke="#000000" stroke-width="4.4843" stroke-miterlimit="10" d="M57.281,322.309
				c1.379-8.109,1.1-14.716-0.765-14.259c-0.008,0.004-0.017,0.008-0.024,0.012c-1.471-0.58-8.589,6.088-16.471,15.653
				c-8.583,10.415-14.197,19.529-12.029,19.619c1.824,0.078,8.488-6.362,15.319-14.512c-3.49,7.947-4.814,13.558-3.002,13.088
				c1.784-0.462,6.035-6.712,9.994-14.466c-0.704,6.628-0.044,10.805,1.569,9.97C53.618,336.509,55.984,329.938,57.281,322.309z"/>
			<path fill="#00AFFF" d="M57.281,322.309c1.379-8.109,1.1-14.716-0.765-14.259c-0.008,0.004-0.017,0.008-0.024,0.012
				c-1.471-0.58-8.589,6.088-16.471,15.653c-8.583,10.415-14.197,19.529-12.029,19.619c1.824,0.078,8.488-6.362,15.319-14.512
				c-3.49,7.947-4.814,13.558-3.002,13.088c1.784-0.462,6.035-6.712,9.994-14.466c-0.704,6.628-0.044,10.805,1.569,9.97
				C53.618,336.509,55.984,329.938,57.281,322.309z"/>
		</g>
		<g opacity="0.1">
			<path fill="#050505" d="M56.444,308.14c0,0,0.858,8.5-0.955,18.085c-1.812,9.584-4.157,9.296-4.157,9.296v-11.911
				c0,0-1.981,3.053-4.858,8.313c-3.55,6.493-4.952,6.119-4.952,6.119l3.41-11.912l-15.976,15.462l1.585-5.156
				c-2.684,4.189-3.832,6.942-2.645,6.992c1.824,0.077,8.488-6.364,15.319-14.512c-3.49,7.946-4.813,13.557-3.002,13.088
				c1.784-0.464,6.035-6.714,9.995-14.465c-0.705,6.625-0.044,10.804,1.568,9.968c1.746-0.906,4.113-7.474,5.409-15.104
				C58.56,314.326,58.289,307.743,56.444,308.14z"/>
		</g>
		<path opacity="0.4" fill="#FFFFFF" d="M30.734,336.574c0,0,16.821-23.217,25.456-27.912
			C56.189,308.662,47.772,309.621,30.734,336.574z"/>
	</g>
</g>
</svg>
