<?xml version="1.0" encoding="utf-8"?>
<!-- Generator: Adobe Illustrator 15.0.0, SVG Export Plug-In . SVG Version: 6.00 Build 0)  -->
<!DOCTYPE svg PUBLIC "-//W3C//DTD SVG 1.1//EN" "http://www.w3.org/Graphics/SVG/1.1/DTD/svg11.dtd">
<svg version="1.1" id="Layer_1" xmlns="http://www.w3.org/2000/svg" xmlns:xlink="http://www.w3.org/1999/xlink" x="0px" y="0px"
	 width="339.255px" height="265.979px" viewBox="0 0 339.255 265.979" enable-background="new 0 0 339.255 265.979"
	 xml:space="preserve">
<path fill="#3A3D02" stroke="#020202" stroke-width="1.3693" stroke-miterlimit="10" d="M260.726,207.1
	c-2.083,21.2-40.559,56.4-93.481,56.4c-52.921,0-99.191-34.34-98.917-57.2c0.326-27.2,46.777-24.399,99.699-24.399
	C220.948,181.9,262.947,184.492,260.726,207.1z"/>
<ellipse fill="#3A3D02" stroke="#020202" stroke-width="1.3693" stroke-miterlimit="10" cx="170.999" cy="235.3" rx="4.671" ry="4.601"/>
<path fill="#2D2D02" d="M111.463,232.167c0,0,20.399,4.532,19.111,9.066c-1.289,4.534-7.516,2.667-7.516,2.667l-6.442,0.267
	c0,0,10.093,1.601,10.952,1.601s4.294,3.732,1.503,4.266c-2.791,0.533-8.589,0-8.589,0s13.528,0,10.951,2.666
	c-2.577,2.668-9.019,3.201-9.019,3.201l40.8,8c0,0-10.523,0.799-6.442-25.066C160.852,212.967,111.463,232.167,111.463,232.167z"/>
<path fill="#2D2D02" d="M177.709,263.1c0,0,6.228-3.732,3.65-28l24.266-2.4l-5.368,3.468c0,0-0.43,3.2,4.724,1.333
	c5.154-1.867-3.65,5.066-3.65,5.066s-3.006,4,4.939,2.4s-14.603,8.267-14.603,8.267s2.362,4.267,14.603-3.466
	C218.51,242.033,193.814,262.3,177.709,263.1z"/>
<path fill="#3A3D02" stroke="#020202" stroke-width="1.3693" stroke-miterlimit="10" d="M181.145,236.3c0,0,3.866,19.601-4.188,26"
	/>
<path fill="#3A3D02" stroke="#020202" stroke-width="1.3693" stroke-miterlimit="10" d="M158.275,235.1c0,0-7.086,13.2,0.645,28.4"
	/>
<path fill="#B05C2E" stroke="#020101" stroke-width="1.9338" stroke-miterlimit="10" d="M299.514,108.21
	c0,75.69-43.193,118.341-105.839,128.382c-76.108,12.197-142.162-17.822-150.96-134.729C38.713,48.7,108.313-3.3,185.675,2.595
	C249.498,7.458,299.514,46.674,299.514,108.21z"/>
<path opacity="0.3" d="M109.422,95.728c0,0,13.23,30.574,65.341,30.574c52.109,0,63.18-32.533,63.18-32.533L109.422,95.728z"/>
<path fill="#070301" d="M179.533,228c0,5-3.375,0.801-7.408,0.801c-4.031,0-7.193,4.199-7.193-0.801S179.533,223,179.533,228z"/>
<path fill="#723F26" d="M80.713,31.453c0,0-18.8,93.74,90.4,97.557c24.4,0.424,97.6,8.483,97.6-105.192l18-5.514
	c-0.201-4.458,7.002,150.154-114.8,149.729c-121.6-0.424-102-138.276-102-138.276L80.713,31.453z"/>
<path fill="#F4BC08" stroke="#FCFCFC" stroke-width="0.4" stroke-miterlimit="10" d="M80.713,37.5c0,0-18.8,88.4,90.4,92
	c24.4,0.4,97.6,8,97.6-99.2l18-5.2c0,0,6.801,141.6-114.8,141.2c-121.6-0.4-102-130.4-102-130.4L80.713,37.5z"/>
<g>
	<linearGradient id="SVGID_1_" gradientUnits="userSpaceOnUse" x1="172.5132" y1="160.6997" x2="172.5132" y2="134.2998">
		<stop  offset="0" style="stop-color:#FFFF00"/>
		<stop  offset="0.2135" style="stop-color:#FFE906"/>
		<stop  offset="0.6547" style="stop-color:#FFB215"/>
		<stop  offset="0.8805" style="stop-color:#FF931E"/>
	</linearGradient>
	<ellipse fill="url(#SVGID_1_)" stroke="#FFFFFF" stroke-miterlimit="10" cx="172.513" cy="147.5" rx="12.6" ry="13.2"/>
	<linearGradient id="SVGID_2_" gradientUnits="userSpaceOnUse" x1="244.7134" y1="136.6997" x2="244.7134" y2="109.8999">
		<stop  offset="0" style="stop-color:#FFFF00"/>
		<stop  offset="0.2135" style="stop-color:#FFE906"/>
		<stop  offset="0.6547" style="stop-color:#FFB215"/>
		<stop  offset="0.8805" style="stop-color:#FF931E"/>
	</linearGradient>
	<polygon fill="url(#SVGID_2_)" stroke="#723F26" stroke-width="0.1" stroke-miterlimit="10" points="251.113,109.9 237.514,121.9 
		238.713,136.7 251.913,127.5 	"/>
	<linearGradient id="SVGID_3_" gradientUnits="userSpaceOnUse" x1="212.1133" y1="155.1001" x2="212.1133" y2="127.8999">
		<stop  offset="0" style="stop-color:#FFFF00"/>
		<stop  offset="0.2135" style="stop-color:#FFE906"/>
		<stop  offset="0.6547" style="stop-color:#FFB215"/>
		<stop  offset="0.8805" style="stop-color:#FF931E"/>
	</linearGradient>
	<path fill="url(#SVGID_3_)" stroke="#FFFFFF" stroke-miterlimit="10" d="M228.312,127.9l1.201,15.6c0,0-10.801,11.6-29.201,11.6
		l-5.6-17.6C194.713,137.5,212.713,139.1,228.312,127.9z"/>
	<linearGradient id="SVGID_4_" gradientUnits="userSpaceOnUse" x1="132.7134" y1="154.2998" x2="132.7134" y2="125.5366">
		<stop  offset="0" style="stop-color:#FFFF00"/>
		<stop  offset="0.2135" style="stop-color:#FFE906"/>
		<stop  offset="0.6547" style="stop-color:#FFB215"/>
		<stop  offset="0.8805" style="stop-color:#FF931E"/>
	</linearGradient>
	<path fill="url(#SVGID_4_)" stroke="#FFFFFF" stroke-miterlimit="10" d="M115.583,125.537l-1.269,16.497
		c0,0,11.421,12.266,30.878,12.266l5.921-18.612C151.113,135.688,132.079,137.38,115.583,125.537z"/>
	<linearGradient id="SVGID_5_" gradientUnits="userSpaceOnUse" x1="98.3135" y1="135.1001" x2="98.3135" y2="105.8999">
		<stop  offset="0" style="stop-color:#FFFF00"/>
		<stop  offset="0.2135" style="stop-color:#FFE906"/>
		<stop  offset="0.6547" style="stop-color:#FFB215"/>
		<stop  offset="0.8805" style="stop-color:#FF931E"/>
	</linearGradient>
	<path fill="url(#SVGID_5_)" stroke="#723F26" stroke-width="0.1" stroke-miterlimit="10" d="M91.114,105.9l-3.2,10.4
		c0,0,12.8,14.8,18.4,18.8l2.4-10.8L91.114,105.9z"/>
</g>
<path fill="#723F26" d="M80.823,113.154c0,0,15.252,63.428,91.357,60.213c76.105-3.216,93.116-47.351,94.357-70.396l5.376-1.072
	c0,0-8.688,83.426-100.922,82.533c-82.411-0.8-93.478-70.742-93.478-70.742L80.823,113.154z"/>
<path fill="#F4BC08" stroke="#FCFCFC" stroke-width="0.4" stroke-miterlimit="10" d="M80.823,116.718
	c0,0,14.89,60.524,90.996,57.548s93.478-45.642,94.719-66.974l5.376-0.992c0,0-8.687,76.896-100.922,76.399
	c-79.829-0.43-93.478-65.485-93.478-65.485L80.823,116.718z"/>
<g>
	<path fill="#723F26" d="M90.914,136.9c0,0-0.133,5,2.067,10.6C92.98,147.5,89.114,141.9,90.914,136.9z"/>
	<path fill="#723F26" d="M244.28,150.5c0,0-0.399,4.8-2.601,10.4C241.68,160.9,246.08,155.5,244.28,150.5z"/>
	<path fill="#723F26" d="M239.881,154.1c0,0-0.4,4.8-2.601,10.4C237.28,164.5,241.68,159.1,239.881,154.1z"/>
	<path fill="#723F26" d="M235.08,157.3c0,0-0.4,4.8-2.6,10.4C232.48,167.7,236.881,162.3,235.08,157.3z"/>
	<path fill="#723F26" d="M229.48,160.5c0,0-0.4,4.8-2.6,10.4C226.881,170.9,231.28,165.5,229.48,160.5z"/>
	<path fill="#723F26" d="M223.08,163.7c0,0-0.4,4.8-2.6,10.4C220.48,174.1,224.881,168.7,223.08,163.7z"/>
	<path fill="#723F26" d="M217.662,165.744c0,0-1.898,5.081-5.775,10.525C211.887,176.269,217.812,171.656,217.662,165.744z"/>
	<path fill="#723F26" d="M208.861,168.543c0,0-1.897,5.082-5.775,10.525C203.086,179.068,209.014,174.457,208.861,168.543z"/>
	<path fill="#723F26" d="M200.18,171.5c0,0-1.615,4.125-5.493,9.568C194.687,181.068,200.332,177.413,200.18,171.5z"/>
	<path fill="#723F26" d="M192.447,172.834c0,0-1.883,3.99-5.761,9.435C186.687,182.269,192.6,178.746,192.447,172.834z"/>
	<path fill="#723F26" d="M182.861,173.344c0,0-1.752,4.584-5.461,9.447C177.4,182.791,183.164,178.738,182.861,173.344z"/>
	<path fill="#723F26" d="M174.28,174.1c0,0-0.399,3.877-2.601,8.4C171.68,182.5,176.08,178.139,174.28,174.1z"/>
	<path fill="#723F26" d="M95.313,142.9c0,0,0.4,4.8,2.6,10.4C97.914,153.3,93.514,147.9,95.313,142.9z"/>
	<path fill="#723F26" d="M99.78,148.434c0,0,0.733,4.466,2.933,10.066C102.713,158.5,97.98,153.434,99.78,148.434z"/>
	<path fill="#723F26" d="M105.514,154.3c0,0,0.6,3.4,2.8,9C108.313,163.3,103.713,159.3,105.514,154.3z"/>
	<path fill="#723F26" d="M110.914,158.1c0,0,1.241,4.654,4.394,9.778C115.308,167.878,110.024,163.339,110.914,158.1z"/>
	<path fill="#723F26" d="M118.114,162.9c0,0,1.226,4.064,4.467,9.133C122.581,172.033,117.314,168.154,118.114,162.9z"/>
	<path fill="#723F26" d="M124.914,166.1c0,0,1.526,4.568,4.991,9.488C129.905,175.588,124.35,171.385,124.914,166.1z"/>
	<path fill="#723F26" d="M132.914,169.3c0,0,1.818,4.46,5.594,9.146C138.507,178.445,132.693,174.609,132.914,169.3z"/>
	<path fill="#723F26" d="M139.78,171.633c0,0,1.751,3.327,5.527,8.012C145.307,179.645,139.559,176.943,139.78,171.633z"/>
	<path fill="#723F26" d="M149.312,173.3c0,0,0.826,3.516,4.601,8.2C153.913,181.5,149.093,178.609,149.312,173.3z"/>
	<path fill="#723F26" d="M157.307,174.553c0,0,1.67,3.99,5.271,8.129C162.578,182.682,156.932,179.373,157.307,174.553z"/>
	<path fill="#723F26" d="M164.031,174.717c0,0,1.67,3.99,5.271,8.129C169.303,182.846,163.656,179.537,164.031,174.717z"/>
</g>
<g>
	<path fill="#FFFFFF" d="M90.514,136.9c0,0-0.133,5,2.067,10.6C92.581,147.5,88.713,141.9,90.514,136.9z"/>
	<path fill="#FFFFFF" d="M243.881,150.5c0,0-0.4,4.8-2.601,10.4C241.28,160.9,245.68,155.5,243.881,150.5z"/>
	<path fill="#FFFFFF" d="M239.48,154.1c0,0-0.4,4.8-2.6,10.4C236.881,164.5,241.28,159.1,239.48,154.1z"/>
	<path fill="#FFFFFF" d="M234.68,157.3c0,0-0.399,4.8-2.6,10.4C232.08,167.7,236.48,162.3,234.68,157.3z"/>
	<path fill="#FFFFFF" d="M229.08,160.5c0,0-0.4,4.8-2.6,10.4C226.48,170.9,230.881,165.5,229.08,160.5z"/>
	<path fill="#FFFFFF" d="M222.68,163.7c0,0-0.399,4.8-2.6,10.4C220.08,174.1,224.48,168.7,222.68,163.7z"/>
	<path fill="#FFFFFF" d="M217.262,165.744c0,0-1.898,5.081-5.775,10.525C211.486,176.269,217.413,171.656,217.262,165.744z"/>
	<path fill="#FFFFFF" d="M208.461,168.543c0,0-1.896,5.082-5.774,10.525C202.687,179.068,208.613,174.457,208.461,168.543z"/>
	<path fill="#FFFFFF" d="M199.78,171.5c0,0-1.616,4.125-5.493,9.568C194.287,181.068,199.932,177.413,199.78,171.5z"/>
	<path fill="#FFFFFF" d="M192.047,172.834c0,0-1.883,3.99-5.76,9.435C186.287,182.269,192.199,178.746,192.047,172.834z"/>
	<path fill="#FFFFFF" d="M182.461,173.344c0,0-1.752,4.584-5.461,9.447C177,182.791,182.765,178.738,182.461,173.344z"/>
	<path fill="#FFFFFF" d="M173.881,174.1c0,0-0.4,3.877-2.601,8.4C171.28,182.5,175.68,178.139,173.881,174.1z"/>
	<path fill="#FFFFFF" d="M94.914,142.9c0,0,0.4,4.8,2.6,10.4C97.514,153.3,93.114,147.9,94.914,142.9z"/>
	<path fill="#FFFFFF" d="M99.38,148.434c0,0,0.733,4.466,2.933,10.066C102.313,158.5,97.581,153.434,99.38,148.434z"/>
	<path fill="#FFFFFF" d="M105.114,154.3c0,0,0.6,3.4,2.8,9C107.914,163.3,103.313,159.3,105.114,154.3z"/>
	<path fill="#FFFFFF" d="M110.514,158.1c0,0,1.241,4.654,4.394,9.778C114.908,167.878,109.624,163.339,110.514,158.1z"/>
	<path fill="#FFFFFF" d="M117.713,162.9c0,0,1.226,4.064,4.467,9.133C122.18,172.033,116.914,168.154,117.713,162.9z"/>
	<path fill="#FFFFFF" d="M124.514,166.1c0,0,1.526,4.568,4.991,9.488C129.504,175.588,123.95,171.385,124.514,166.1z"/>
	<path fill="#FFFFFF" d="M132.514,169.3c0,0,1.818,4.46,5.594,9.146C138.107,178.445,132.293,174.609,132.514,169.3z"/>
	<path fill="#FFFFFF" d="M139.38,171.633c0,0,1.751,3.327,5.527,8.012C144.907,179.645,139.159,176.943,139.38,171.633z"/>
	<path fill="#FFFFFF" d="M148.913,173.3c0,0,0.825,3.516,4.601,8.2C153.514,181.5,148.693,178.609,148.913,173.3z"/>
	<path fill="#FFFFFF" d="M156.906,174.553c0,0,1.67,3.99,5.272,8.129C162.179,182.682,156.531,179.373,156.906,174.553z"/>
	<path fill="#FFFFFF" d="M163.631,174.717c0,0,1.67,3.99,5.271,8.129C168.902,182.846,163.256,179.537,163.631,174.717z"/>
</g>
<path fill="#723F26" d="M285.113,36.3l-6.4,0.806c26.4,161.857-112.266,149.594-112.266,149.594
	c-126.8,0-98.534-139.126-98.534-139.126l-6-0.402c0,0-34.188,133.563,90.545,147.155c-0.854,1.481-1.346,3.203-1.346,5.039
	c0,4.816,3.359,8.838,7.848,9.83c1.869,6.195,7.586,10.705,14.352,10.705c6.805,0,12.546-4.561,14.383-10.811
	c4.271-1.145,7.418-5.064,7.418-9.725c0-1.955-0.555-3.777-1.513-5.322C305.982,178.48,285.113,36.3,285.113,36.3z"/>
<path fill="#F4BC08" stroke="#FCFCFC" stroke-width="0.4" stroke-miterlimit="10" d="M285.113,36.3l-6.4,0.8
	c26.4,160.8-112.4,150.4-112.4,150.4c-126.799,0-98.399-140-98.399-140l-6-0.4c0,0-34.188,132.689,90.545,146.193
	c-0.854,1.473-1.346,3.182-1.346,5.007c0,4.784,3.359,8.78,7.848,9.766c1.869,6.155,7.586,10.634,14.352,10.634
	c6.805,0,12.546-4.529,14.383-10.738c4.271-1.138,7.418-5.031,7.418-9.661c0-1.942-0.555-3.753-1.513-5.288
	C305.982,177.551,285.113,36.3,285.113,36.3z"/>
<linearGradient id="SVGID_6_" gradientUnits="userSpaceOnUse" x1="174.4683" y1="189.6934" x2="172.2018" y2="210.8923">
	<stop  offset="0" style="stop-color:#FFFF00"/>
	<stop  offset="0.2597" style="stop-color:#FFFC01"/>
	<stop  offset="0.4181" style="stop-color:#FFF403"/>
	<stop  offset="0.5493" style="stop-color:#FFE607"/>
	<stop  offset="0.6657" style="stop-color:#FFD10D"/>
	<stop  offset="0.7723" style="stop-color:#FFB714"/>
	<stop  offset="0.8704" style="stop-color:#FF971D"/>
	<stop  offset="0.8805" style="stop-color:#FF931E"/>
</linearGradient>
<circle fill="url(#SVGID_6_)" stroke="#723F26" stroke-width="0.1" stroke-miterlimit="10" cx="173.313" cy="200.5" r="8.6"/>
<g>
	<path fill="#4D6AA6" stroke="#020202" stroke-width="1.5137" stroke-miterlimit="10" d="M77.432,25.14l-26.184-7.795l0.435,7.043
		L45.2,25.534l-0.527,9.364l0.213,16.213c0,0-6.473,3.966-10.901,8.435c0,0-8.882,1.85-9.988-7.337l-2.715,11.818l2.108,3.759
		l-5.667,1.058l-0.185,5.338l9.263,4.757l-1.818,5.515l-5.035,6.308l2.056,3.322L7.799,92.966c0,0,4.611,3.931,5.086,7.868
		l2.965,0.564l-3.717,3.505l-1.107,4.552l11.491-0.803c0,0,0.751,9.667-0.817,13.827c-1.568,4.159-18.106,7.726-18.106,7.726
		l3.848,4.458l-1.766,5.953c0,0,14.996-6.059,15.773-3.041s-9.461,10.776-9.461,10.776l-5.97,1.978l3.997,2.254l-0.128,5.804
		l7.762-0.842l-1.77,5.924c0,0,7.773-0.586,11.16,3.478c3.386,4.064,9.205,49.509,7.478,52.355l15.699,3.736l20.615,2.366
		l55.165,3.646c0,0-11.924-33.717-11.765-46.145c0.158-12.425,0.462-27.083-2.001-44.1c-2.463-17.016-4.399-29.658-3.568-39.941
		c0.83-10.283-3.7-61.643-11.039-71.04C90.28,18.427,77.432,25.14,77.432,25.14z"/>
	<path fill="none" stroke="#020202" stroke-width="1.2245" stroke-miterlimit="10" d="M27.952,167.406
		c0,0,9.146-124.942,47.221-143.367"/>
	<path fill="none" stroke="#020202" stroke-width="1.2245" stroke-miterlimit="10" d="M24.645,164.401
		c0,0,9.324-122.295,47.399-140.72"/>
	<path fill="none" stroke="#020202" stroke-width="1.2059" stroke-miterlimit="10" d="M94.518,30.375c0,0,8.436,80.869,9.299,88.033
		c0.863,7.164,3.766,35.6,4.778,39.676c1.013,4.077-1.092,17.984,0.409,32.613c1.502,14.631,8.024,29.834,8.024,29.834
		s-51.773-1.361-61.882-3.055c-10.109-1.696-20.292-6.173-20.292-6.173"/>
	<path fill="#4D6AA6" stroke="#020202" stroke-width="1.7055" stroke-miterlimit="10" d="M109.012,118.22
		c0,0-12.382-41.818-38.035-30.945c0,0,21.552-38.448,24.783-52.746l3.301-12.341c0,0,12.428,3.97,13.395,20.807L109.012,118.22z"/>
	<path fill="#314672" d="M89.721,59.803L76.467,81.773c0,0,24.523-4.145,32.581,28.131l2.367-27.963L89.721,59.803z"/>
	<g opacity="0.78">
		<path fill="#314672" d="M114.229,182.905c0.158-12.425,0.462-27.083-2.001-44.1c-0.954-6.593-1.828-12.527-2.494-17.925
			l-1.779-4.92l-3.825-8.492c0,0,7.348,41.258,7.267,51.411c-0.081,10.15-4.492,28.44,7.848,62.725l0.206,1.709l-62.504-0.64
			l19.963,3.132l49.085,3.244C125.994,229.05,114.069,195.333,114.229,182.905z"/>
	</g>
	<path fill="#314672" d="M64.548,23.385l-8.901-2.22l1.066,6.826l-8.358-0.075l-1.583,23.677l-9.205,10.154
		c0,0-10.395,4.592-12.189-1.645l-1.221,2.854l3.367,6.314l-7.848,0.852l0.709,2.644l9.682,4.639l-2.889,8.477l-4.874,4.982
		l3.477,5.065l-12.843-0.585l0.948,3.545l4.514,0.687l1.286-0.14l-5.542,5.92l-0.537,2.037l10.836-0.928
		c0,0,2.912,15.517-1.684,18.489c-4.594,2.972-15.165,6.098-15.165,6.098l3.499,3.083l-2.278,2.721c0,0,11.938-4.759,13.577-1.968
		c1.639,2.791,0.684,7.842-3.712,10.298c-4.396,2.456-8.189,5.588-8.189,5.588l2.323,1.975l-1.22,2.854l8.174-1.382l-0.75,6.761
		l4.323,1.263c0,0,5.387-39.672,8.996-63.812C32.339,98.435,39.443,58.95,64.548,23.385z"/>
	<g>
		<path fill="#314672" d="M50.051,99.729c0,0-3.427,2.137-4.66,8.917c-2.717,14.933-4.441,43.085-3.656,54.778
			c0.383,5.701,5.874,10.167,5.874,10.167l35.871,2.417c0,0,3.823-4.41,4.336-11.602c1.773-24.852,1.288-44.667,0.021-53.932
			c-0.364-2.662-2.771-7.863-2.771-7.863L50.051,99.729z"/>
		<path fill="#4D6AA6" stroke="#020202" stroke-width="1.7055" stroke-miterlimit="10" d="M85.175,159.689
			c-0.108,2.747-1.856,13.716-4.433,13.525l-32.367-3.227c-2.576-0.19-4.327-8.926-4.218-11.673l2.836-45.508
			c0.108-2.746,1.41-10.633,3.987-10.441l31.385,3.363c2.577,0.191,3.874,7.229,3.766,9.977L85.175,159.689z"/>
		<path fill="#314672" d="M69.595,141.89c4.405,15.479-0.01,29.132-0.01,29.132l-3.733-0.153c6.462-17.77,0.887-29.968,0.887-29.968
			c-2.591,7.703-7.68-0.465-7.68-0.465c-3.941,27.332-0.198,30.82-0.198,30.82l-4.444-1.187
			c-0.872-10.482,2.453-29.953,2.453-29.953c-7.08-6.839-8.8-27.618-8.8-27.618l37.078,4.326
			C85.148,116.825,85.716,126.412,69.595,141.89z"/>
		<path fill="#4D6AA6" stroke="#020202" stroke-width="1.7055" stroke-miterlimit="10" d="M47.967,107.892
			c0,0,4.674,33.041,15.809,34.142c11.135,1.102,21.946-29.13,21.946-29.13"/>
		<path fill="#4D6AA6" stroke="#020202" stroke-width="1.7055" stroke-miterlimit="10" d="M58.203,171.27
			c-3.095-13.806,0.973-31.238,0.973-31.238"/>
		<path fill="#4D6AA6" stroke="#020202" stroke-width="1.7055" stroke-miterlimit="10" d="M65.212,171.513
			c5.145-11.812,2.484-30.019,2.484-30.019"/>
		<path fill="#314672" stroke="#191B1E" stroke-width="1.1353" stroke-miterlimit="10" d="M67.71,134.568
			c-0.084,2.136-1.777,3.747-3.781,3.599c-2.004-0.148-3.56-2-3.476-4.136c0.084-2.136,1.777-3.748,3.781-3.6
			C66.238,130.58,67.794,132.432,67.71,134.568z"/>
	</g>
</g>
<g>
	<path fill="#4D6AA6" stroke="#020202" stroke-width="1.6953" stroke-miterlimit="10" d="M276.861,18.037l25.748-0.889l-1.6,10.094
		l-11.037,3.841l20.717,3.792l-8.965,10.41c0,0-5.014,1.094-0.679,5.737c0,0,10.097,5.896,11.192-3.37l2.648,12.033l-2.072,3.747
		l5.555,1.225l0.174,5.407l-1.602,10.093l1.777,5.632l4.928,6.52l-2.02,3.307l10.201,3.22c0,0-4.525,3.853-4.996,7.825l-2.906,0.491
		l3.639,3.648l1.079,4.637l-7.886,2.935c0,0-0.4,1.738,1.132,5.99c1.532,4.251,13.266,1.405,13.266,1.405l-3.777,4.406l1.724,6.072
		c0,0-10.219,0.367-10.984,3.399c-0.766,3.034,7.139,5.034,7.139,5.034l5.85,2.164l-3.918,2.144l0.123,5.849l-14.28,4.171
		l-0.784,11.83c0,0,0.133,22.975-3.191,26.995s-3.032,9.654-1.342,12.582l-16.87,8.409l-20.403,3.877l-54.926,6.682
		c0,0,11.73-33.799,11.591-46.378c-0.14-12.579-0.419-27.422,2.017-44.577c2.436-17.154,4.35-29.896,3.549-40.324
		c-0.803-10.429,3.703-62.284,10.908-71.594C254.785,17.195,276.861,18.037,276.861,18.037z"/>
	<path fill="none" stroke="#020202" stroke-width="1.1987" stroke-miterlimit="10" d="M316.654,158.991
		c0,0-10.1-123.574-47.203-142.197"/>
	<path fill="none" stroke="#020202" stroke-width="1.1987" stroke-miterlimit="10" d="M252.906,22.302c0,0-2.389,10.93-5.029,21.851
		c-2.639,10.921-4.991,64.764-5.242,72.095c-0.253,7.332-5.562,37.36-6.209,41.572c-0.648,4.213,0.453,16.107,0.191,31.061
		s-5.338,30.874-5.338,30.874s50.005-5.359,59.652-7.854c9.646-2.496,19.141-7.82,19.141-7.82"/>
	<path fill="#314672" d="M269.715,82.29l2.284,10.506c0,0-16.801-3.55-28.021,7.491l-3.229-6.07l26.274-25.925L269.715,82.29z"/>
	<path fill="#4D6AA6" stroke="#020202" stroke-width="1.6953" stroke-miterlimit="10" d="M236.187,115.499
		c0,0,14.754-41.274,38.777-27.628c0,0-18.218-41.272-20.376-56.138L252.23,18.85c0,0-12.26,2.782-14.321,19.805L236.187,115.499z"
		/>
	<path fill="#314672" d="M255.937,51.278l12.594,28.951c0,0-19.258-3.405-32.247,30.432l0.33-24.259L255.937,51.278z"/>
	<g>
		<path fill="#314672" d="M295.514,93.156c0,0,3.492,1.903,5.238,8.684c3.846,14.937,7.807,43.356,7.998,55.274
			c0.094,5.811-4.857,10.763-4.857,10.763l-34.525,5.208c0,0-4.061-4.18-5.143-11.434c-3.74-25.068-4.885-45.202-4.412-54.695
			c0.136-2.728,2.043-8.188,2.043-8.188L295.514,93.156z"/>
		<path fill="#4D6AA6" stroke="#020202" stroke-width="1.6953" stroke-miterlimit="10" d="M266.396,156.666
			c0.328,2.777,2.914,13.769,5.393,13.377l31.068-5.76c2.478-0.391,3.461-9.385,3.133-12.163l-6.452-45.937
			c-0.328-2.777-2.231-10.675-4.71-10.284l-30.107,5.823c-2.479,0.392-3.16,7.631-2.832,10.408L266.396,156.666z"/>
		<path fill="#314672" d="M280.027,137.417c-3.004,16.036,2.383,29.542,2.383,29.542l3.602-0.44
			c-7.703-17.527-3.299-30.326-3.299-30.326c3.135,7.613,7.396-1.062,7.396-1.062c6.042,27.416,2.702,31.243,2.702,31.243
			l4.204-1.545c-0.009-10.697-4.813-30.188-4.813-30.188c6.297-7.481,6.27-28.687,6.27-28.687l-35.539,7.238
			C262.932,113.191,263.163,122.958,280.027,137.417z"/>
		<path fill="#4D6AA6" stroke="#020202" stroke-width="1.6953" stroke-miterlimit="10" d="M298.195,101.273
			c0,0-1.834,33.87-12.523,35.843c-10.688,1.973-23.615-27.858-23.615-27.858"/>
		<path fill="#4D6AA6" stroke="#020202" stroke-width="1.6953" stroke-miterlimit="10" d="M293.448,166.338
			c1.871-14.241-3.485-31.607-3.485-31.607"/>
		<path fill="#4D6AA6" stroke="#020202" stroke-width="1.6953" stroke-miterlimit="10" d="M286.683,167.121
			c-5.942-11.583-4.849-30.252-4.849-30.252"/>
		<path fill="#314672" stroke="#191B1E" stroke-width="1.1285" stroke-miterlimit="10" d="M281.257,129.845
			c0.255,2.161,2.024,3.665,3.953,3.36c1.929-0.305,3.282-2.303,3.028-4.463c-0.256-2.16-2.027-3.664-3.953-3.359
			C282.357,125.687,281,127.686,281.257,129.845z"/>
	</g>
	<path fill="#314672" d="M261.889,112.13"/>
	<g opacity="0.78">
		<path fill="#314672" d="M232.249,179.174c-1.165-12.591,1.327-25.103,2.325-42.55c0.387-6.761,7.465-30.522,7.465-30.522
			s-4.524,38.316-6.971,49.117c-2.41,10.638,4.363,28.46-4.637,63.585l-0.061,1.749l60.508-5.451l-19.039,4.712l-49.039,6.862
			C222.801,226.675,233.414,191.764,232.249,179.174z"/>
	</g>
	<path fill="#314672" d="M285.377,19.249l14.666-0.753l-0.477,7.24l-10.598,5.208l16.789,5.512l-5.516,6.819
		c0,0-4.859,2.337-2.223,6.18c2.636,3.842,9.839,6.589,13.452,3.959l1.27,5.173l-3.417,6.077l7.119,1.556l-0.305,3.367
		l-1.102,10.096l1.289,6.424l4.876,6.358l-2.228,4.428l9.529,2.763l-3.17,4.396l-3.82,1.372l3.959,5.577l1.386,3.612l-8.195,2.349
		c0,0-1.114,10.471,4.917,10.675c6.032,0.205,6.975,0.237,6.975,0.237l-2.131,1.617l2.302,4.394c0,0-10.966,0.566-10.241,6.972
		c0.725,6.405,10.545,6.175,10.545,6.175l-2.158,2.366l0.236,4.137l-8.937,1.948c0,0-2.464-21.665-4.516-33.369
		s-7.581-43.043-7.581-43.043S293.718,41.05,291.57,37.6c-2.146-3.451-5.182-8.434-5.182-8.434L285.377,19.249z"/>
	<path fill="none" stroke="#020202" stroke-width="1.1987" stroke-miterlimit="10" d="M319.684,158.671
		c0,0-10.099-123.575-47.201-142.198"/>
</g>
</svg>
