<?xml version="1.0" encoding="utf-8"?>
<!-- Generator: Adobe Illustrator 15.0.0, SVG Export Plug-In . SVG Version: 6.00 Build 0)  -->
<!DOCTYPE svg PUBLIC "-//W3C//DTD SVG 1.1//EN" "http://www.w3.org/Graphics/SVG/1.1/DTD/svg11.dtd">
<svg version="1.1" id="Layer_1" xmlns="http://www.w3.org/2000/svg" xmlns:xlink="http://www.w3.org/1999/xlink" x="0px" y="0px"
	 width="2312.853px" height="297.344px" viewBox="-31.886 -21.459 2312.853 297.344"
	 enable-background="new -31.886 -21.459 2312.853 297.344" xml:space="preserve">
<g opacity="0.75">
	
		<linearGradient id="SVGID_1_" gradientUnits="userSpaceOnUse" x1="113.8667" y1="276.8857" x2="113.8667" y2="110.6143" gradientTransform="matrix(1 0 0 -1 4 270.8848)">
		<stop  offset="0" style="stop-color:#FFFFFF"/>
		<stop  offset="0.1533" style="stop-color:#FAFAFA"/>
		<stop  offset="0.332" style="stop-color:#ECECEC"/>
		<stop  offset="0.5234" style="stop-color:#D5D5D5"/>
		<stop  offset="0.7178" style="stop-color:#B5B5B5"/>
	</linearGradient>
	<path fill="url(#SVGID_1_)" d="M237.143,79.23c1.928-4.858,3.01-10.294,3.01-16.035c0-19.036-11.867-34.733-27.199-37.034
		c-3.879-5.654-9.752-9.261-16.328-9.261c-4.846,0-9.299,1.98-12.865,5.275C183.45,6.551,172.816-6,159.734-6
		c-13.28,0-24.043,12.927-24.043,28.874c0,0.015,0.001,0.029,0.001,0.043c-4.296-8.949-12.338-14.978-21.559-14.978
		c-9.572,0-17.877,6.498-22.035,16.018c-2.229-0.705-4.568-1.083-6.982-1.083c-9.646,0-18.119,6-22.99,15.055
		c-2.896-1.359-6.045-2.111-9.343-2.111c-0.464,0-0.924,0.016-1.382,0.045c-4.043-2.568-8.648-4.028-13.541-4.028
		c-11.709,0-21.792,8.333-26.377,20.326c-1.839-0.903-3.848-1.41-5.957-1.41c-8.7,0-15.752,8.47-15.752,18.917
		c0,10.448,7.053,18.917,15.752,18.917c0.09,0,0.179-0.015,0.269-0.017c2.133,4.66,5.384,8.474,9.319,10.931
		c-0.297,1.281-0.469,2.625-0.469,4.021c0,8.246,5.568,14.934,12.437,14.934c1.129,0,2.217-0.197,3.256-0.535
		c3.802,9.168,11.68,15.469,20.787,15.469c6.058,0,11.57-2.789,15.704-7.352c2.902,7.846,9.436,13.324,17.044,13.324
		c1.245,0,2.459-0.152,3.636-0.434c2.604,12.27,11.867,21.344,22.896,21.344c9.193,0,17.155-6.312,21.062-15.518
		c3.55-0.854,6.823-2.611,9.653-5.066c3.315,8.057,10.209,13.611,18.202,13.611c6.77,0,12.75-3.99,16.439-10.107
		c2.701,1.979,5.865,3.143,9.262,3.143c7.559,0,14.004-5.662,16.596-13.637c4.514,3.58,9.92,5.67,15.736,5.67
		c15.799,0,28.604-15.379,28.604-34.35C245.955,94.273,242.57,85.482,237.143,79.23z M178.24,68.051
		c0.037,0.339,0.072,0.679,0.115,1.015c-0.115-0.063-0.227-0.138-0.344-0.2C178.092,68.597,178.166,68.324,178.24,68.051z"/>
</g>
<g opacity="0.75">
	
		<linearGradient id="SVGID_2_" gradientUnits="userSpaceOnUse" x1="2097.0635" y1="174.875" x2="2097.0635" y2="8.6045" gradientTransform="matrix(1 0 0 -1 4 270.8848)">
		<stop  offset="0" style="stop-color:#FFFFFF"/>
		<stop  offset="0.1533" style="stop-color:#FAFAFA"/>
		<stop  offset="0.332" style="stop-color:#ECECEC"/>
		<stop  offset="0.5234" style="stop-color:#D5D5D5"/>
		<stop  offset="0.7178" style="stop-color:#B5B5B5"/>
	</linearGradient>
	<path fill="url(#SVGID_2_)" d="M2220.341,181.24c1.928-4.858,3.01-10.294,3.01-16.035c0-19.036-11.866-34.733-27.198-37.034
		c-3.879-5.654-9.752-9.261-16.328-9.261c-4.847,0-9.299,1.98-12.865,5.275c-0.311-15.624-10.944-28.175-24.026-28.175
		c-13.28,0-24.043,12.927-24.043,28.874c0,0.015,0,0.029,0,0.043c-4.295-8.949-12.338-14.978-21.559-14.978
		c-9.572,0-17.877,6.498-22.035,16.018c-2.229-0.705-4.568-1.083-6.981-1.083c-9.646,0-18.119,6-22.99,15.055
		c-2.896-1.359-6.045-2.111-9.343-2.111c-0.465,0-0.924,0.016-1.383,0.045c-4.043-2.568-8.647-4.028-13.541-4.028
		c-11.709,0-21.791,8.333-26.377,20.326c-1.838-0.902-3.848-1.41-5.957-1.41c-8.699,0-15.752,8.471-15.752,18.918
		s7.054,18.916,15.752,18.916c0.091,0,0.18-0.015,0.27-0.017c2.133,4.66,5.385,8.474,9.318,10.931
		c-0.297,1.281-0.469,2.625-0.469,4.021c0,8.246,5.568,14.934,12.438,14.934c1.129,0,2.217-0.197,3.256-0.535
		c3.803,9.168,11.68,15.47,20.787,15.47c6.059,0,11.57-2.789,15.704-7.353c2.901,7.846,9.437,13.324,17.044,13.324
		c1.245,0,2.459-0.152,3.636-0.434c2.604,12.27,11.867,21.344,22.896,21.344c9.193,0,17.156-6.312,21.062-15.518
		c3.551-0.854,6.823-2.611,9.653-5.066c3.315,8.057,10.209,13.611,18.202,13.611c6.77,0,12.75-3.99,16.439-10.107
		c2.7,1.979,5.864,3.143,9.262,3.143c7.559,0,14.004-5.662,16.596-13.637c4.514,3.58,9.92,5.67,15.736,5.67
		c15.799,0,28.604-15.379,28.604-34.35C2229.153,196.283,2225.769,187.492,2220.341,181.24z M2161.438,170.062
		c0.037,0.339,0.072,0.679,0.115,1.015c-0.115-0.063-0.228-0.138-0.344-0.2C2161.29,170.607,2161.364,170.335,2161.438,170.062z"/>
</g>
<g opacity="0.75">
	
		<linearGradient id="SVGID_3_" gradientUnits="userSpaceOnUse" x1="1410.9951" y1="176.2725" x2="1410.9951" y2="31.0029" gradientTransform="matrix(1 0 0 -1 4 270.8848)">
		<stop  offset="0" style="stop-color:#FFFFFF"/>
		<stop  offset="0.1533" style="stop-color:#FAFAFA"/>
		<stop  offset="0.332" style="stop-color:#ECECEC"/>
		<stop  offset="0.5234" style="stop-color:#D5D5D5"/>
		<stop  offset="0.7178" style="stop-color:#B5B5B5"/>
	</linearGradient>
	<path fill="url(#SVGID_3_)" d="M1303.081,190.731c0,16.576,11.188,30.013,24.989,30.013c5.081,0,9.807-1.826,13.749-4.954
		c2.266,6.969,7.896,11.914,14.499,11.914c2.97,0,5.732-1.016,8.095-2.745c3.223,5.345,8.446,8.833,14.361,8.833
		c6.982,0,13.006-4.855,15.902-11.895c2.473,2.146,5.332,3.685,8.434,4.429c3.413,8.042,10.369,13.556,18.401,13.556
		c9.636,0,17.729-7.928,20.004-18.646c1.028,0.243,2.089,0.377,3.177,0.377c6.647,0,12.355-4.786,14.894-11.642
		c3.609,3.984,8.429,6.424,13.721,6.424c7.957,0,14.839-5.506,18.162-13.518c0.907,0.295,1.858,0.469,2.845,0.469
		c6.001,0,10.865-5.844,10.865-13.049c0-1.22-0.149-2.394-0.409-3.514c3.438-2.146,6.278-5.479,8.143-9.551
		c0.078,0.003,0.156,0.016,0.235,0.016c7.601,0,13.763-7.398,13.763-16.527s-6.162-16.526-13.763-16.526
		c-1.843,0-3.6,0.442-5.205,1.231c-4.007-10.479-12.813-17.761-23.046-17.761c-4.275,0-8.299,1.276-11.831,3.521
		c-0.4-0.024-0.803-0.039-1.207-0.039c-2.882,0-5.633,0.658-8.163,1.845c-4.256-7.911-11.659-13.153-20.087-13.153
		c-2.109,0-4.152,0.331-6.101,0.947c-3.635-8.316-10.891-13.995-19.252-13.995c-8.059,0-15.083,5.269-18.837,13.086
		c0-0.013,0.002-0.024,0.002-0.038c0-13.933-9.404-25.227-21.009-25.227c-11.43,0-20.722,10.966-20.991,24.615
		c-3.115-2.879-7.008-4.608-11.24-4.608c-5.745,0-10.877,3.151-14.268,8.092c-13.396,2.011-23.764,15.726-23.764,32.356
		c0,5.017,0.945,9.766,2.629,14.01C1306.038,174.538,1303.081,182.218,1303.081,190.731z M1362.443,160.021
		c-0.103,0.056-0.197,0.119-0.3,0.176c0.037-0.293,0.067-0.592,0.103-0.887C1362.309,159.546,1362.373,159.786,1362.443,160.021z"/>
</g>
<linearGradient id="SVGID_4_" gradientUnits="userSpaceOnUse" x1="527.8423" y1="143.2959" x2="527.8423" y2="11.5225" gradientTransform="matrix(1 0 0 -1 4 270.8848)">
	<stop  offset="0" style="stop-color:#FFFFFF"/>
	<stop  offset="0.1533" style="stop-color:#FAFAFA"/>
	<stop  offset="0.332" style="stop-color:#ECECEC"/>
	<stop  offset="0.5234" style="stop-color:#D5D5D5"/>
	<stop  offset="0.7178" style="stop-color:#B5B5B5"/>
</linearGradient>
<path opacity="0.75" fill="url(#SVGID_4_)" enable-background="new    " d="M706.255,182.065c1.68-3.104,2.622-6.58,2.622-10.248
	c0-12.168-10.338-22.2-23.696-23.672c-3.378-3.613-8.495-5.918-14.224-5.918c-4.223,0-8.102,1.266-11.209,3.371
	c-0.271-9.987-9.498-18.01-20.896-18.01c-11.567,0-20.907,8.263-20.907,18.455c0,0.012,0,0.02,0,0.025
	c-3-5.719-10.787-9.571-18.818-9.571c-8.34,0-15.592,4.151-19.214,10.237c-1.943-0.45-3.991-0.691-6.093-0.691
	c-8.404,0-15.791,3.835-20.035,9.622c-2.523-0.868-5.271-1.351-8.142-1.351c-0.403,0-0.808,0.012-1.204,0.029
	c-3.521-1.643-7.536-2.574-11.8-2.574c-7.604,0-14.419,2.961-19.051,7.644c-3.838-3.872-9.438-6.326-15.73-6.326
	c-11.569,0-20.913,8.265-20.913,18.455c0,0.01,0,0.021,0,0.026c-3-5.721-10.783-9.572-18.814-9.572
	c-8.34,0-15.59,4.152-19.212,10.236c-1.943-0.449-3.989-0.69-6.093-0.69c-8.402,0-15.789,3.835-20.035,9.622
	c-2.523-0.868-5.268-1.35-8.14-1.35c-0.404,0-0.808,0.011-1.204,0.027c-3.521-1.642-7.536-2.574-11.798-2.574
	c-10.201,0-18.985,5.325-22.98,12.99c-1.602-0.576-3.353-0.9-5.19-0.9c-7.578,0-13.723,5.414-13.723,12.093
	c0,6.678,6.145,12.092,13.723,12.092c0.079,0,0.157-0.01,0.235-0.011c1.858,2.979,4.691,5.416,8.119,6.984
	c-0.26,0.818-0.409,1.68-0.409,2.57c0,5.271,4.851,9.545,10.835,9.545c0.983,0,1.932-0.125,2.837-0.342
	c3.312,5.859,10.175,9.887,18.109,9.887c5.276,0,10.08-1.781,13.682-4.699c2.527,5.018,8.221,8.52,14.851,8.52
	c1.085,0,2.142-0.1,3.166-0.275c2.27,7.842,10.34,13.641,19.945,13.641c8.012,0,14.945-4.032,18.351-9.916
	c3.093-0.545,5.942-1.67,8.41-3.239c2.889,5.149,8.894,8.701,15.854,8.701c5.897,0,11.108-2.552,14.323-6.462
	c2.354,1.266,5.106,2.009,8.065,2.009c6.586,0,12.2-3.618,14.458-8.716c3.936,2.287,8.646,3.623,13.712,3.623
	c13.764,0,24.92-9.426,24.92-21.551c0-0.988-0.082-1.508-0.228-2.508c0.004,0,0.007,0,0.011,0c1.085,0,2.144-0.5,3.166-0.68
	c2.271,7.842,10.342,13.438,19.947,13.438c8.01,0,14.945-4.134,18.35-10.018c3.094-0.544,5.943-1.72,8.409-3.289
	c2.891,5.148,8.896,8.676,15.856,8.676c5.896,0,11.106-2.562,14.323-6.474c2.354,1.265,5.106,2.001,8.065,2.001
	c6.585,0,12.2-3.621,14.458-8.719c3.936,2.287,8.646,3.623,13.711,3.623c13.765,0,24.919-9.83,24.919-21.957
	C713.933,191.681,710.983,186.062,706.255,182.065z M654.74,175.442c0.068-0.172,0.135-0.349,0.199-0.521
	c0.031,0.217,0.062,0.436,0.101,0.648C654.939,175.528,654.843,175.481,654.74,175.442z"/>
<linearGradient id="SVGID_5_" gradientUnits="userSpaceOnUse" x1="1826.9707" y1="278.3096" x2="1826.9707" y2="146.5361" gradientTransform="matrix(1 0 0 -1 4 270.8848)">
	<stop  offset="0" style="stop-color:#FFFFFF"/>
	<stop  offset="0.1533" style="stop-color:#FAFAFA"/>
	<stop  offset="0.332" style="stop-color:#ECECEC"/>
	<stop  offset="0.5234" style="stop-color:#D5D5D5"/>
	<stop  offset="0.7178" style="stop-color:#B5B5B5"/>
</linearGradient>
<path opacity="0.75" fill="url(#SVGID_5_)" enable-background="new    " d="M2005.384,47.052c1.68-3.104,2.623-6.58,2.623-10.248
	c0-12.168-10.338-22.2-23.697-23.672c-3.377-3.613-8.494-5.918-14.223-5.918c-4.223,0-8.102,1.266-11.209,3.371
	c-0.271-9.987-9.498-18.01-20.896-18.01c-11.568,0-20.908,8.263-20.908,18.455c0,0.012,0,0.02,0,0.025
	c-3-5.719-10.787-9.571-18.818-9.571c-8.34,0-15.592,4.151-19.213,10.237c-1.943-0.45-3.992-0.691-6.094-0.691
	c-8.404,0-15.791,3.835-20.035,9.622c-2.523-0.868-5.271-1.351-8.141-1.351c-0.404,0-0.809,0.012-1.205,0.029
	c-3.521-1.643-7.535-2.574-11.799-2.574c-7.604,0-14.42,2.961-19.051,7.644c-3.838-3.872-9.438-6.326-15.73-6.326
	c-11.57,0-20.914,8.265-20.914,18.455c0,0.01,0,0.021,0,0.026c-3-5.721-10.783-9.572-18.814-9.572
	c-8.34,0-15.59,4.152-19.211,10.236c-1.943-0.449-3.99-0.69-6.094-0.69c-8.402,0-15.789,3.835-20.035,9.622
	c-2.523-0.868-5.268-1.35-8.139-1.35c-0.404,0-0.809,0.011-1.205,0.027c-3.521-1.642-7.535-2.574-11.798-2.574
	c-10.2,0-18.985,5.325-22.979,12.99c-1.603-0.576-3.354-0.9-5.19-0.9c-7.578,0-13.724,5.414-13.724,12.093
	c0,6.678,6.146,12.092,13.724,12.092c0.079,0,0.157-0.01,0.235-0.011c1.857,2.979,4.69,5.416,8.119,6.984
	c-0.261,0.818-0.41,1.68-0.41,2.57c0,5.271,4.852,9.545,10.836,9.545c0.982,0,1.932-0.125,2.836-0.342
	c3.312,5.859,10.176,9.887,18.109,9.887c5.277,0,10.08-1.781,13.682-4.699c2.527,5.018,8.221,8.52,14.852,8.52
	c1.084,0,2.141-0.1,3.166-0.275c2.27,7.842,10.34,13.641,19.945,13.641c8.012,0,14.945-4.032,18.35-9.916
	c3.094-0.545,5.943-1.67,8.41-3.239c2.889,5.149,8.895,8.701,15.855,8.701c5.896,0,11.107-2.552,14.322-6.462
	c2.354,1.266,5.107,2.009,8.066,2.009c6.586,0,12.199-3.618,14.457-8.716c3.936,2.287,8.646,3.623,13.713,3.623
	c13.764,0,24.92-9.426,24.92-21.551c0-0.988-0.082-1.508-0.229-2.508c0.004,0,0.008,0,0.012,0c1.084,0,2.143-0.5,3.166-0.68
	c2.271,7.842,10.342,13.438,19.947,13.438c8.01,0,14.945-4.134,18.35-10.018c3.094-0.544,5.943-1.72,8.408-3.289
	c2.891,5.148,8.896,8.676,15.857,8.676c5.895,0,11.105-2.562,14.322-6.474c2.354,1.265,5.107,2.001,8.066,2.001
	c6.584,0,12.199-3.621,14.457-8.719c3.936,2.287,8.646,3.623,13.711,3.623c13.766,0,24.92-9.83,24.92-21.957
	C2013.062,56.667,2010.112,51.048,2005.384,47.052z M1953.87,40.429c0.068-0.172,0.135-0.349,0.199-0.521
	c0.031,0.217,0.061,0.436,0.1,0.648C1954.069,40.515,1953.972,40.468,1953.87,40.429z"/>
<linearGradient id="SVGID_6_" gradientUnits="userSpaceOnUse" x1="950.8174" y1="279.8838" x2="950.8174" y2="113.6143" gradientTransform="matrix(1 0 0 -1 4 270.8848)">
	<stop  offset="0" style="stop-color:#FFFFFF"/>
	<stop  offset="0.1533" style="stop-color:#FAFAFA"/>
	<stop  offset="0.332" style="stop-color:#ECECEC"/>
	<stop  offset="0.5234" style="stop-color:#D5D5D5"/>
	<stop  offset="0.7178" style="stop-color:#B5B5B5"/>
</linearGradient>
<path opacity="0.75" fill="url(#SVGID_6_)" enable-background="new    " d="M1113.069,60.476c1.276-3.105,1.995-6.58,1.995-10.249
	c0-12.167-7.867-22.2-18.035-23.671c-2.57-3.614-6.468-5.919-10.826-5.919c-3.214,0-6.166,1.266-8.531,3.372
	C1077.467,14.022,1070.487,6,1061.812,6c-8.808,0-15.869,8.263-15.869,18.455c0,0.01,0,0.019,0,0.027
	c-2-5.72-8.256-9.573-14.368-9.573c-5.932,0-11.155,3.626-14.064,9.064c-1.175-0.349-2.374-0.627-3.599-0.811
	c-3.879-5.654-9.752-9.261-16.328-9.261c-4.846,0-9.299,1.98-12.865,5.275c-0.311-15.624-10.798-28.175-23.88-28.175
	c-13.279,0-23.896,12.927-23.896,28.874c0,0.015,0,0.029,0,0.043c-5-8.949-12.485-14.978-21.706-14.978
	c-9.572,0-17.951,6.498-22.109,16.018c-2.229-0.705-4.604-1.083-7.019-1.083c-9.646,0-18.14,6-23.011,15.055
	c-2.896-1.359-6.055-2.111-9.352-2.111c-0.465,0-0.928,0.016-1.387,0.045c-4.044-2.568-8.651-4.028-13.544-4.028
	c-11.709,0-21.793,8.333-26.379,20.326c-1.84-0.903-3.849-1.41-5.957-1.41c-8.698,0-15.754,8.47-15.754,18.917
	c0,10.448,7.055,18.917,15.753,18.917c0.091,0,0.181-0.015,0.271-0.017c2.133,4.66,5.384,8.474,9.318,10.931
	c-0.298,1.281-0.471,2.625-0.471,4.021c0,8.246,5.568,14.934,12.438,14.934c1.129,0,2.217-0.197,3.256-0.535
	c3.802,9.168,11.68,15.469,20.787,15.469c6.057,0,11.569-2.789,15.703-7.352c2.9,7.846,9.436,13.324,17.045,13.324
	c1.244,0,2.459-0.152,3.635-0.432c2.604,12.267,11.867,21.341,22.896,21.341c9.192,0,17.153-6.312,21.062-15.517
	c3.551-0.853,6.824-2.612,9.654-5.068c3.312,8.057,10.209,13.613,18.2,13.613c6.771,0,12.75-3.991,16.438-10.108
	c2.701,1.979,5.865,3.144,9.262,3.144c7.561,0,14.005-5.662,16.598-13.637c4.514,3.58,9.92,5.67,15.734,5.67
	c15.8,0,28.604-15.379,28.604-34.35c0-0.023-0.002-0.047-0.002-0.07c0.873-0.507,1.705-1.092,2.482-1.743
	c2.198,5.149,6.771,8.658,12.068,8.658c4.488,0,8.455-2.573,10.9-6.483c1.793,1.266,3.89,1.997,6.142,1.997
	c5.012,0,9.286-3.624,11.004-8.722c2.994,2.288,6.579,3.621,10.438,3.621c10.475,0,18.966-9.83,18.966-21.957
	C1118.913,70.09,1116.668,64.472,1113.069,60.476z M1073.86,53.852c0.054-0.172,0.103-0.347,0.149-0.521
	c0.025,0.217,0.049,0.435,0.077,0.649C1074.012,53.938,1073.938,53.892,1073.86,53.852z"/>
</svg>
