<?xml version="1.0" encoding="utf-8"?>
<!-- Generator: Adobe Illustrator 15.0.0, SVG Export Plug-In . SVG Version: 6.00 Build 0)  -->
<!DOCTYPE svg PUBLIC "-//W3C//DTD SVG 1.1//EN" "http://www.w3.org/Graphics/SVG/1.1/DTD/svg11.dtd">
<svg version="1.1" id="Layer_1" xmlns="http://www.w3.org/2000/svg" xmlns:xlink="http://www.w3.org/1999/xlink" x="0px" y="0px"
	 width="242.092px" height="205.695px" viewBox="0 0 242.092 205.695" enable-background="new 0 0 242.092 205.695"
	 xml:space="preserve">
<path d="M0,0v206h242V0H0z M91.912,106.433c-0.27,0.585-0.697,1.121-1.266,1.597c-2.223,0.775-3.833,2.503-12.406,2.177
	c-0.197-0.025-0.394-0.049-0.591-0.079c-3.544-0.537-6.786-1.699-9.129-3.271c-1.678-1.126-2.77-2.384-3.212-3.661
	c0,0-2.394-6.431,10.271-6.782c1.337,0,2.717,0.106,4.102,0.316c3.544,0.538,6.785,1.699,9.128,3.271
	c1.629,1.094,2.705,2.312,3.17,3.55L91.912,106.433z M175.357,103.197c-0.443,1.277-1.535,2.535-3.213,3.661
	c-2.342,1.572-5.584,2.734-9.129,3.271c-0.197,0.03-0.395,0.053-0.592,0.079c-7.711,0.292-10.511-1.008-12.405-2.177
	c-0.569-0.477-0.996-1.012-1.265-1.597l-0.436-1.537l0.367-1.343c0.467-1.239,1.541-2.457,3.172-3.55
	c2.342-1.572,5.583-2.734,9.127-3.271c1.385-0.21,2.765-0.316,4.102-0.316c5.803,0,10.004,1.994,10.455,4.962
	C175.588,101.685,175.357,103.197,175.357,103.197z"/>
</svg>
