<?xml version="1.0" encoding="utf-8"?>
<!-- Generator: Adobe Illustrator 15.0.0, SVG Export Plug-In . SVG Version: 6.00 Build 0)  -->
<!DOCTYPE svg PUBLIC "-//W3C//DTD SVG 1.1//EN" "http://www.w3.org/Graphics/SVG/1.1/DTD/svg11.dtd">
<svg version="1.1" id="Layer_1" xmlns="http://www.w3.org/2000/svg" xmlns:xlink="http://www.w3.org/1999/xlink" x="0px" y="0px"
	 width="38px" height="110.333px" viewBox="0 0 38 110.333" enable-background="new 0 0 38 110.333" xml:space="preserve">
<g>
	<g>
		<g>
			<path fill="#020202" d="M12.129,72.083c-0.029,0.045-0.061,0.088-0.092,0.131l-3.006,4.048l0.062-5.042
				c0.031-2.482-0.566-4.409-1.197-6.449c-0.594-1.92-1.208-3.898-1.325-6.374c-0.096,0.113-0.2,0.212-0.3,0.303l-3.49,3.113
				l0.752-4.607c0.129-0.765,0.399-3.158,0.709-5.467l0.006-0.043c0.33-2.46,0.698-4.775,0.839-5.605
				c0.254-1.498,0.952-2.687,1.575-3.846c0.815-1.514,1.593-2.957,1.551-5.205c-1.285,0.627-2.727,1.18-3.715,1.485l-2.792,0.862
				l0.73-2.83c0.668-2.591,2.163-5.143,3.61-7.611c0.452-0.772,0.912-1.557,1.343-2.341c-1.924,1.233-2.943,1.855-3.563,2.083
				l-0.595,0.218L1.979,27.08l0.617-0.423l-0.673-0.423c0.113-0.196,0.545-1.287,0.73-1.753c0.686-1.724,0.892-2.199,1.193-2.544
				c1.139-1.297,2.762-2.448,3.846-3.215C7.921,18.56,8.289,18.3,8.4,18.215c0.726-0.935,1.379-1.998,2.014-3.029
				c1.809-2.945,3.86-6.281,8.026-6.783l1.242-0.149l0.467,1.161c0.966,2.401,3.499,5.753,6.183,9.302
				c4.861,6.432,9.889,13.081,8.936,18.105l-0.118,0.625l-0.28,0.017c0.143,0.399,0.392,0.959,0.831,1.693
				c1.608,2.695,0.859,6.469,0.412,8.725c-0.048,0.235-0.137,0.683-0.171,0.912l0.968,3.311l-2.332-1.13
				c0.128,0.96,0.197,1.829,0.261,2.63c0.108,1.349,0.193,2.415,0.521,3.331l1.138,3.181l-2.854-0.969
				c-0.38,0.752-1.004,1.971-2.216,3.787c-0.862,1.296-0.142,3.327,0.624,5.481c0.458,1.293,0.932,2.628,1.12,3.965l0.859,6.123
				L28.259,71c0.194,0.739,0.421,1.532,0.646,2.311c0.488,1.705,0.992,3.467,1.19,4.81l0.009,0.063L30.04,84l-1.472-2.289
				c-0.355-0.553-1.361-2.277-2.102-3.572c-0.056,1.604-0.272,2.996-0.484,4.359c-0.224,1.432-0.434,2.785-0.456,4.366l-0.058,4.075
				l-2.039,4.776l-1.938-9.599l-3.694,15.315l-2.53,4.166L12.129,72.083z"/>
		</g>
		<g>
			<path fill="#FFFFFF" d="M21.48,81.848l2.105,10.427l0.927-2.171l0.054-3.836c0.023-1.608,0.233-2.961,0.457-4.394
				c0.338-2.169,0.685-4.396,0.325-7.488c0.305,0.52,0.596,1.063,0.892,1.617c0.421,0.787,2.288,4.023,2.781,4.789l0.033-2.971
				c-0.188-1.263-0.674-2.965-1.146-4.609c-0.458-1.596-0.932-3.245-1.102-4.404c-0.067-0.454-0.005-0.602,0.128-0.838l5.554,7.22
				l-0.421-3c-0.174-1.232-0.625-2.505-1.062-3.736c-0.816-2.302-1.588-4.477-0.521-6.081c1.21-1.814,1.81-3.007,2.168-3.72
				c0.099-0.193,0.198-0.393,0.274-0.526c0.103,0.032,0.23,0.076,0.314,0.104l1.568,0.533l-0.558-1.56
				c-0.357-0.998-0.444-2.09-0.556-3.474c-0.096-1.206-0.203-2.554-0.511-4.136c0.141,0.132,0.287,0.236,0.443,0.312l1.622,0.787
				l-0.487-1.668c0.009-0.185,0.111-0.702,0.194-1.122c0.417-2.098,1.114-5.608-0.306-7.988c-0.906-1.519-1.105-2.448-1.111-2.813
				l0.589-0.035c0.869-4.577-3.952-10.952-8.613-17.118c-2.663-3.522-5.178-6.85-6.165-9.303l-0.228-0.569l-0.61,0.073
				c-3.7,0.446-5.521,3.409-7.282,6.274c-0.646,1.052-1.315,2.14-2.075,3.108c-0.069,0.067-0.47,0.35-0.822,0.601
				c-1.022,0.724-2.567,1.819-3.621,3.02c-0.208,0.237-0.405,0.695-1.028,2.262c-0.261,0.657-0.656,1.649-0.779,1.844
				c0.011-0.019,0.024-0.033,0.034-0.044l0.876,1.279c0.612-0.225,1.88-1.026,3.896-2.321c0.601-0.387,1.265-0.813,1.863-1.187
				c-0.688,1.626-1.664,3.291-2.616,4.917c-1.391,2.373-2.828,4.827-3.455,7.257l-0.358,1.388l1.369-0.423
				c1.145-0.354,3.122-1.121,4.581-1.968c0.418,3.161-0.565,4.987-1.519,6.759c-0.58,1.077-1.181,2.193-1.408,3.531
				c-0.134,0.795-0.44,3.069-0.765,5.476c-0.309,2.288-0.628,4.654-0.758,5.422L4.264,59.6l1.705-1.528
				c0.654-0.586,1.284-2.039,2.177-4.331c-0.357,1.934-0.567,3.154-0.573,3.582c-0.036,2.812,0.633,4.973,1.278,7.062
				c0.638,2.06,1.24,4.007,1.206,6.566l-0.031,2.473l1.474-1.986c0.594-0.799,0.872-2.32,1.13-3.996l3.25,34.72l1.16-1.91
				L21.48,81.848z"/>
			<polygon fill="#C6C1BD" points="13.424,16.568 11.565,19.64 8.771,21.647 6.244,24.054 11.705,21.906 13.301,20.036 			"/>
			<polygon fill="#C6C1BD" points="12.779,24.57 8.797,31.247 6.803,33.52 5.208,35.391 8.14,34.449 10.136,33.11 10.948,37.907 
				10.558,41.242 9.63,43.245 8.701,44.981 12.022,40.438 12.275,35.771 11.193,29.908 			"/>
			<polygon fill="#C6C1BD" points="8.309,47.915 10.7,44.976 9.803,57.644 11.154,64.575 11.295,67.508 8.738,58.713 10.173,46.977 
							"/>
			<polygon fill="#C6C1BD" points="13.865,48.033 13.875,51.633 16.091,49.36 17.258,53.091 19.076,52.153 19.084,54.819 
				20.634,52.949 18.422,56.554 18.303,53.622 16.449,54.56 15.91,50.562 13.166,53.235 			"/>
			<polygon fill="#C6C1BD" points="17.321,70.744 18.705,72.803 18.865,70.813 20.928,72.528 21.521,71.352 22.547,72.877 
				22.507,71.354 22.755,74.178 21.551,72.55 20.985,73.706 19.183,71.596 18.912,73.993 			"/>
			<polygon fill="#C6C1BD" points="23.011,36.917 25.058,38.502 24.707,36.291 27.358,37.251 27.65,35.779 29.166,36.953 
				28.75,35.296 29.799,38.17 28.072,36.956 27.782,38.428 25.272,36.971 25.615,39.661 			"/>
			<polygon fill="#C6C1BD" points="15.717,19.508 16.988,21.974 17.648,19.667 19.791,21.8 20.739,20.501 21.682,22.328 
				22.027,20.531 21.746,23.798 20.619,21.835 19.67,23.135 17.891,20.583 17.006,23.354 			"/>
			<polygon fill="#C6C1BD" points="24.547,54.866 26.938,56.717 26.529,54.136 29.625,55.257 29.965,53.538 31.735,54.909 
				31.249,52.975 32.475,56.331 30.459,54.912 30.119,56.632 27.188,54.929 27.589,58.071 			"/>
		</g>
	</g>
	<g>
		<path opacity="0.3" d="M14.628,5.932c-0.001-0.301-2.312-4.095,1.487-5.105c3.797-1.01,6.206,2.71,3.812,4.553
			C17.532,7.224,14.628,5.932,14.628,5.932z"/>
		<g>
			<path fill="#E2BA13" stroke="#331501" stroke-miterlimit="10" d="M14.95,5.231C14.946,3.816,15.94,2.5,17.171,2.5h0.345
				c1.229,0,2.23,1.303,2.234,2.719l0.01,3.693c0.004,1.416-0.99,2.588-2.221,2.588h-0.345c-1.229,0-2.23-1.16-2.234-2.576
				L14.95,5.231z"/>
			
				<rect x="13.76" y="6.823" transform="matrix(1 -0.0027 0.0027 1 -0.0248 0.0474)" fill="#E2BA13" stroke="#331501" stroke-width="0.8" stroke-miterlimit="10" width="7.6" height="4.8"/>
		</g>
	</g>
</g>
</svg>
