<?xml version="1.0" encoding="utf-8"?>
<!-- Generator: Adobe Illustrator 15.0.0, SVG Export Plug-In . SVG Version: 6.00 Build 0)  -->
<!DOCTYPE svg PUBLIC "-//W3C//DTD SVG 1.1//EN" "http://www.w3.org/Graphics/SVG/1.1/DTD/svg11.dtd">
<svg version="1.1" id="Layer_1" xmlns="http://www.w3.org/2000/svg" xmlns:xlink="http://www.w3.org/1999/xlink" x="0px" y="0px"
	 width="38px" height="110.333px" viewBox="0 0 38 110.333" enable-background="new 0 0 38 110.333" xml:space="preserve">
<g>
	<g>
		<g>
			<path fill="#020202" d="M23.349,105.598l-2.53-4.166l-3.694-15.315l-1.938,9.599l-2.039-4.776l-0.058-4.075
				c-0.022-1.581-0.232-2.934-0.456-4.366c-0.212-1.364-0.429-2.755-0.484-4.359c-0.74,1.295-1.746,3.019-2.102,3.572L8.575,84
				l-0.063-5.816l0.009-0.063c0.198-1.343,0.702-3.104,1.19-4.81c0.225-0.778,0.451-1.571,0.646-2.311l-5.771,7.502l0.859-6.123
				c0.188-1.337,0.662-2.672,1.12-3.965c0.766-2.154,1.486-4.186,0.624-5.481c-1.212-1.815-1.836-3.035-2.216-3.787l-2.854,0.969
				l1.138-3.181c0.328-0.916,0.413-1.982,0.521-3.331c0.063-0.802,0.133-1.67,0.261-2.63l-2.332,1.13l0.968-3.311
				c-0.034-0.229-0.123-0.677-0.171-0.912c-0.447-2.256-1.196-6.029,0.412-8.725c0.439-0.734,0.688-1.294,0.831-1.693l-0.28-0.017
				l-0.118-0.625c-0.953-5.024,4.074-11.673,8.936-18.105c2.684-3.549,5.217-6.9,6.183-9.302l0.467-1.161l1.242,0.149
				c4.166,0.502,6.218,3.838,8.026,6.783c0.635,1.032,1.288,2.095,2.014,3.029c0.111,0.084,0.479,0.345,0.708,0.507
				c1.084,0.767,2.707,1.917,3.846,3.215c0.302,0.345,0.508,0.82,1.193,2.544c0.186,0.466,0.617,1.557,0.73,1.753l-0.673,0.423
				l0.617,0.423l-1.253,1.828l-0.595-0.218c-0.62-0.228-1.64-0.85-3.563-2.083c0.431,0.784,0.891,1.569,1.343,2.341
				c1.447,2.468,2.942,5.021,3.61,7.611l0.73,2.83l-2.792-0.862c-0.988-0.305-2.43-0.858-3.715-1.485
				c-0.042,2.248,0.735,3.69,1.551,5.205c0.623,1.159,1.321,2.348,1.575,3.846c0.141,0.83,0.509,3.145,0.839,5.605l0.006,0.043
				c0.31,2.309,0.58,4.702,0.709,5.467l0.752,4.607l-3.49-3.113c-0.1-0.09-0.204-0.189-0.3-0.303
				c-0.117,2.476-0.731,4.454-1.325,6.374c-0.631,2.04-1.229,3.966-1.197,6.449l0.062,5.042l-3.006-4.048
				c-0.031-0.043-0.062-0.086-0.092-0.131L23.349,105.598z"/>
		</g>
		<g>
			<path fill="#FFFFFF" d="M17.135,81.848l-2.105,10.427l-0.927-2.171l-0.054-3.836c-0.023-1.608-0.233-2.961-0.457-4.394
				c-0.338-2.169-0.685-4.396-0.325-7.488c-0.305,0.52-0.596,1.063-0.892,1.617c-0.421,0.787-2.288,4.023-2.781,4.789l-0.033-2.971
				c0.188-1.263,0.674-2.965,1.146-4.609c0.458-1.596,0.932-3.245,1.102-4.404c0.067-0.454,0.005-0.602-0.128-0.838l-5.554,7.22
				l0.421-3c0.174-1.232,0.625-2.505,1.062-3.736c0.816-2.302,1.588-4.477,0.521-6.081c-1.21-1.814-1.81-3.007-2.168-3.72
				c-0.099-0.193-0.198-0.393-0.274-0.526c-0.103,0.032-0.23,0.076-0.314,0.104l-1.568,0.533l0.558-1.56
				c0.357-0.998,0.444-2.09,0.556-3.474c0.096-1.206,0.203-2.554,0.511-4.136c-0.141,0.132-0.287,0.236-0.443,0.312l-1.622,0.787
				l0.487-1.668c-0.009-0.185-0.111-0.702-0.194-1.122c-0.417-2.098-1.114-5.608,0.306-7.988c0.906-1.519,1.105-2.448,1.111-2.813
				l-0.589-0.035c-0.869-4.577,3.952-10.952,8.613-17.118c2.663-3.522,5.178-6.85,6.165-9.303l0.228-0.569l0.61,0.073
				c3.7,0.446,5.521,3.409,7.282,6.274c0.646,1.052,1.315,2.14,2.075,3.108c0.069,0.067,0.47,0.35,0.822,0.601
				c1.022,0.724,2.567,1.819,3.621,3.02c0.208,0.237,0.405,0.695,1.028,2.262c0.261,0.657,0.656,1.649,0.779,1.844
				c-0.011-0.019-0.024-0.033-0.034-0.044l-0.876,1.279c-0.612-0.225-1.88-1.026-3.896-2.321c-0.601-0.387-1.265-0.813-1.863-1.187
				c0.688,1.626,1.664,3.291,2.616,4.917c1.391,2.373,2.828,4.827,3.455,7.257l0.358,1.388l-1.369-0.423
				c-1.145-0.354-3.122-1.121-4.581-1.968c-0.418,3.161,0.565,4.987,1.519,6.759c0.58,1.077,1.181,2.193,1.408,3.531
				c0.134,0.795,0.44,3.069,0.765,5.476c0.309,2.288,0.628,4.654,0.758,5.422l0.383,2.257l-1.705-1.528
				c-0.654-0.586-1.284-2.039-2.177-4.331c0.357,1.934,0.567,3.154,0.573,3.582c0.036,2.812-0.633,4.973-1.278,7.062
				c-0.638,2.06-1.24,4.007-1.206,6.566l0.031,2.473l-1.474-1.986c-0.594-0.799-0.872-2.32-1.13-3.996l-3.25,34.72l-1.16-1.91
				L17.135,81.848z"/>
			<polygon fill="#C6C1BD" points="25.191,16.568 27.05,19.64 29.845,21.647 32.371,24.054 26.91,21.906 25.314,20.036 			"/>
			<polygon fill="#C6C1BD" points="25.836,24.57 29.818,31.247 31.812,33.52 33.407,35.391 30.476,34.449 28.479,33.11 
				27.667,37.907 28.058,41.242 28.985,43.245 29.914,44.981 26.593,40.438 26.34,35.771 27.422,29.908 			"/>
			<polygon fill="#C6C1BD" points="30.307,47.915 27.915,44.976 28.812,57.644 27.461,64.575 27.32,67.508 29.877,58.713 
				28.442,46.977 			"/>
			<polygon fill="#C6C1BD" points="24.75,48.033 24.74,51.633 22.524,49.36 21.357,53.091 19.539,52.153 19.531,54.819 
				17.981,52.949 20.193,56.554 20.312,53.622 22.166,54.56 22.705,50.562 25.449,53.235 			"/>
			<polygon fill="#C6C1BD" points="21.294,70.744 19.91,72.803 19.75,70.813 17.688,72.528 17.094,71.352 16.068,72.877 
				16.108,71.354 15.86,74.178 17.064,72.55 17.63,73.706 19.433,71.596 19.703,73.993 			"/>
			<polygon fill="#C6C1BD" points="15.604,36.917 13.558,38.502 13.908,36.291 11.257,37.251 10.965,35.779 9.449,36.953 
				9.865,35.296 8.816,38.17 10.543,36.956 10.833,38.428 13.343,36.971 13,39.661 			"/>
			<polygon fill="#C6C1BD" points="22.898,19.508 21.627,21.974 20.967,19.667 18.824,21.8 17.876,20.501 16.934,22.328 
				16.588,20.531 16.869,23.798 17.996,21.835 18.945,23.135 20.725,20.583 21.609,23.354 			"/>
			<polygon fill="#C6C1BD" points="14.068,54.866 11.678,56.717 12.086,54.136 8.99,55.257 8.65,53.538 6.88,54.909 7.366,52.975 
				6.141,56.331 8.156,54.912 8.496,56.632 11.427,54.929 11.026,58.071 			"/>
		</g>
	</g>
	<g>
		<path opacity="0.3" d="M23.987,5.932c0.001-0.301,2.312-4.095-1.487-5.105c-3.797-1.01-6.206,2.71-3.812,4.553
			C21.083,7.224,23.987,5.932,23.987,5.932z"/>
		<g>
			<path fill="#E2BA13" stroke="#331501" stroke-miterlimit="10" d="M23.665,5.231c0.004-1.416-0.99-2.731-2.221-2.731H21.1
				c-1.229,0-2.23,1.303-2.234,2.719l-0.01,3.693c-0.004,1.416,0.99,2.588,2.221,2.588h0.345c1.229,0,2.23-1.16,2.234-2.576
				L23.665,5.231z"/>
			
				<rect x="17.255" y="6.823" transform="matrix(-1 -0.0027 0.0027 -1 42.0854 18.5031)" fill="#E2BA13" stroke="#331501" stroke-width="0.8" stroke-miterlimit="10" width="7.6" height="4.8"/>
		</g>
	</g>
</g>
</svg>
