<?xml version="1.0" encoding="utf-8"?>
<!-- Generator: Adobe Illustrator 15.0.0, SVG Export Plug-In . SVG Version: 6.00 Build 0)  -->
<!DOCTYPE svg PUBLIC "-//W3C//DTD SVG 1.1//EN" "http://www.w3.org/Graphics/SVG/1.1/DTD/svg11.dtd">
<svg version="1.1" id="Layer_1" xmlns="http://www.w3.org/2000/svg" xmlns:xlink="http://www.w3.org/1999/xlink" x="0px" y="0px"
	 width="88.191px" height="173.78px" viewBox="0 0 88.191 173.78" enable-background="new 0 0 88.191 173.78" xml:space="preserve">
<g>
	<g>
		<path fill="#B05C2E" stroke="#020101" stroke-width="1.1321" stroke-miterlimit="10" d="M69.475,138.44
			c0,0,1.018,4.507,2.018,10.776s-0.438,15.832-0.438,15.832s0.086,6.914-7.873,6.588c-7.958-0.325-6.207-7.063-8.354-6.977
			c-2.148,0.088-1.566,4.697-6.955,4.327c-5.386-0.372-6.17-5.884-7.585-6.021c-1.414-0.136-2.503,4.021-6.194,3.812
			c-3.69-0.209-3.956-1.998-5.043-4.16s-2.931-0.543-2.931-0.543s0.185,3.41-5.305,2.587c-5.488-0.823-5.956-9.142-5.956-9.142
			s-1.742-18.539,1.08-26.058c2.821-7.517,10.282-13.308,10.282-13.308s7.254-5.544,20.913-4.79
			c14.489,0.801,17.862,4.222,22.677,9.745c0,0,8.31,0.801,9.898,4.212c1.588,3.411-1.103,19.12-1.322,21.542
			c-0.22,2.424-0.09,7.977-6.988,7.311"/>
	</g>
	<path opacity="0.3" d="M17.469,159.113c0,0,3.202,2.861,7.981,0.44C25.451,159.554,20.923,164.289,17.469,159.113z"/>
	<path opacity="0.3" d="M29.984,160.092c0,0,3.202,2.861,7.981,0.441C37.965,160.533,33.438,165.269,29.984,160.092z"/>
	<path opacity="0.3" d="M42.499,161.07c0,0,3.202,2.862,7.982,0.441C50.48,161.512,45.952,166.248,42.499,161.07z"/>
	<path opacity="0.3" d="M58.354,162.234c0,0,3.203,2.862,7.982,0.441C66.336,162.676,61.809,167.412,58.354,162.234z"/>
	<path opacity="0.3" d="M74.493,126.984c2.595,0.936,4.35,0.464,5.519-0.415c-0.225-0.228-0.37-0.513-0.459-0.827
		C77.027,127.303,74.493,126.984,74.493,126.984z"/>
	<path opacity="0.3" d="M73.379,149.545c0.717,2.021,1.91,2.738,3.066,2.883c0.032-0.262,0.141-0.512,0.297-0.746
		C74.46,151.168,73.379,149.545,73.379,149.545z"/>
	<path opacity="0.1" fill="#B05C2E" stroke="#020101" stroke-width="0.566" stroke-miterlimit="10" d="M26.929,132.117l0.21,6.049
		c0,0-3.437,2.094-3.288,2.592c0.149,0.498-1.161,5.482-1.161,5.482l-0.727,3.875"/>
	<polyline opacity="0.1" fill="#B05C2E" stroke="#020101" stroke-width="0.3853" stroke-miterlimit="10" points="37.474,128.092 
		37.278,139.847 34.612,141.842 34.396,145.99 36.011,150.729 34.558,152.77 	"/>
	<path opacity="0.1" fill="#B05C2E" stroke="#020101" stroke-width="0.566" stroke-miterlimit="10" d="M47.795,128.377l2.324,5.838
		c0,0-0.877,3.377-1.086,4.019c-0.208,0.642-0.318,2.755-0.318,2.755l1.795,2.547c0,0,0.106,1.312-0.103,1.953
		c-0.208,0.641-0.42,4.707-0.42,4.707l0.188,3.111"/>
	<polyline opacity="0.1" fill="#B05C2E" stroke="#020101" stroke-width="0.566" stroke-miterlimit="10" points="59.805,129.854 
		60.238,138.363 62.008,141.396 61.088,145.589 61.783,149.053 62.296,152.671 	"/>
</g>
<g>
	<g>
		<path fill="#B05C2E" d="M71.531,96.906c0,0,2.502-19.791,7.145-28.199c4.643-8.407,8.84-24.422,7.238-34.041
			c-1.602-9.62-5.7-15.695-19.721-21.02c0,0-9.834-21.122-39.853-5.885c0,0-28.334,19.553-21.877,40.6
			c7.909,25.781,11.35,16.223,17.488,47.756C21.951,96.117,41.657,121.468,71.531,96.906z"/>
		<path opacity="0.3" d="M23.442,19.26c0,0-9.617,17.238,10.779,75.084C34.221,94.344,10.854,40.291,23.442,19.26z"/>
		<path opacity="0.3" d="M66.6,19.539c0,0,10.086,17.242-7.314,76.12C59.285,95.659,80.248,39.855,66.6,19.539z"/>
		<path opacity="0.1" d="M68.375,15.803c0,0,21.336,3.191,17.148,30.002c-1.672,16.018-9.509,27.093-9.509,27.093l-4.138,20.483
			l1.443-22.359C73.32,71.021,102.508,30.633,68.375,15.803z"/>
		<path opacity="0.1" d="M66.744,20.314c0,0,11.078,23.243-8.701,77.768c0,0,16.633-65.631,5.539-81.395L66.744,20.314z"/>
		
			<linearGradient id="SVGID_1_" gradientUnits="userSpaceOnUse" x1="58.2349" y1="-163.04" x2="80.5957" y2="-163.04" gradientTransform="matrix(0.9986 0.0536 -0.0536 0.9986 -66.2656 208.4604)">
			<stop  offset="0" style="stop-color:#FFFFFF;stop-opacity:0.4"/>
			<stop  offset="1" style="stop-color:#FFFFFF;stop-opacity:0"/>
		</linearGradient>
		<path fill="url(#SVGID_1_)" d="M21.459,13.209c0,0-19.292,13.895-17.344,30.111C5.785,59.523,16.198,74.05,16.198,74.05
			s4.181,10.876,4.795,12.493c0,0-4.469-13.145-5.714-16.282C10.958,59.377-6.408,36.266,21.459,13.209z"/>
		
			<linearGradient id="SVGID_2_" gradientUnits="userSpaceOnUse" x1="78.3091" y1="-163.5337" x2="89.2285" y2="-163.5337" gradientTransform="matrix(0.9986 0.0536 -0.0536 0.9986 -66.2656 208.4604)">
			<stop  offset="0" style="stop-color:#FFFFFF;stop-opacity:0.4"/>
			<stop  offset="1" style="stop-color:#FFFFFF;stop-opacity:0"/>
		</linearGradient>
		<path opacity="0.3" fill="url(#SVGID_2_)" d="M23.916,19.674c0,0-8.192,15.227,6.09,60.031
			C30.005,79.705,18.538,34.48,23.916,19.674z"/>
		<path fill="#000102" d="M86.738,34.52c-1.562-9.393-5.686-15.316-20.295-20.934c-0.339-0.646-4.135-5.504-4.867-5.735
			c2.047,1.792,3.787,6.009,3.863,6.168l0.146,0.316l0.318,0.12c14.104,5.355,17.715,11.52,19.186,20.355
			c1.549,9.299-2.521,25.104-7.141,33.471c-4.387,7.943-6.836,25.395-7.203,28.166c-8.955,7.289-17.848,10.744-26.437,10.27
			c0,0-0.002,0-0.002,0c-12.542-0.695-20.5-9.695-21.579-10.986c-3.502-17.922-6.164-22.622-9.243-28.061
			c-2.273-4.015-4.85-8.564-8.226-19.568C2.044,37.619,8.111,27.529,13.592,20.76C22.824,9.354,25.115,9.176,24.854,8.793
			c-5.268,3.737-8.704,7.679-11.759,11.338C4.684,30.206,0.934,39.715,3.666,48.621c3.432,11.188,6.058,15.826,8.375,19.917
			c3.016,5.327,5.622,9.929,9.09,27.749l0.04,0.205l0.127,0.164c0.349,0.448,8.707,10.995,22.919,11.781
			c0.001,0,0.002,0.002,0.003,0.002c9.094,0.501,18.458-3.152,27.833-10.859l0.264-0.217l0.044-0.346
			c0.024-0.195,2.534-19.719,7.042-27.883C84.163,60.512,88.347,44.176,86.738,34.52z"/>
	</g>
	<g>
		<g>
			<path fill="none" stroke="#030405" stroke-width="2.8302" stroke-miterlimit="10" d="M18.04,86l-1.775,2.426l1.713,3.834
				l-0.154,22.318l-2.443,3.586l1.398,3.304c0,0,11.885,6.954,31.221,8.022c19.334,1.067,27.741-5.104,27.741-5.104l2.102-2.763
				l-1.918-3.656l0.427-23.67l1.83-3.795l-1.693-2.965C76.488,87.537,50.976,77.328,18.04,86z"/>
			<path fill="#DDBE07" d="M18.04,86l-1.775,2.426l1.713,3.834l-0.154,22.318l-2.443,3.586l1.398,3.304
				c0,0,11.885,6.954,31.221,8.022c19.334,1.067,27.741-5.104,27.741-5.104l2.102-2.763l-1.918-3.656l0.427-23.67l1.83-3.795
				l-1.693-2.965C76.488,87.537,50.976,77.328,18.04,86z"/>
			
				<line fill="none" stroke="#FFFFFF" stroke-width="0.6289" stroke-miterlimit="10" x1="20.458" y1="91.135" x2="20.188" y2="116.553"/>
			
				<line fill="none" stroke="#FFFFFF" stroke-width="0.6289" stroke-miterlimit="10" x1="23.596" y1="89.547" x2="23.197" y2="117.607"/>
			
				<line fill="none" stroke="#FFFFFF" stroke-width="0.6289" stroke-miterlimit="10" x1="27.207" y1="89.502" x2="26.931" y2="118.698"/>
			
				<line fill="none" stroke="#FFFFFF" stroke-width="0.6289" stroke-miterlimit="10" x1="31.024" y1="88.41" x2="30.393" y2="120.188"/>
			
				<line fill="none" stroke="#FFFFFF" stroke-width="0.6289" stroke-miterlimit="10" x1="35.158" y1="87.791" x2="33.746" y2="120.542"/>
			
				<line fill="none" stroke="#FFFFFF" stroke-width="0.6289" stroke-miterlimit="10" x1="38.535" y1="87.64" x2="37.366" y2="121.25"/>
			
				<line fill="none" stroke="#FFFFFF" stroke-width="0.6289" stroke-miterlimit="10" x1="41.919" y1="87.318" x2="41.015" y2="121.621"/>
			
				<line fill="none" stroke="#FFFFFF" stroke-width="0.6289" stroke-miterlimit="10" x1="45.72" y1="87.529" x2="44.793" y2="122.17"/>
			
				<line fill="none" stroke="#FFFFFF" stroke-width="0.6289" stroke-miterlimit="10" x1="49.945" y1="87.932" x2="49.22" y2="121.52"/>
			
				<line fill="none" stroke="#FFFFFF" stroke-width="0.6289" stroke-miterlimit="10" x1="54.002" y1="88.706" x2="53.038" y2="121.428"/>
			
				<line fill="none" stroke="#FFFFFF" stroke-width="0.6289" stroke-miterlimit="10" x1="56.943" y1="88.656" x2="55.976" y2="121.248"/>
			
				<line fill="none" stroke="#FFFFFF" stroke-width="0.6289" stroke-miterlimit="10" x1="59.667" y1="89.59" x2="58.473" y2="121.019"/>
			
				<line fill="none" stroke="#FFFFFF" stroke-width="0.6289" stroke-miterlimit="10" x1="63.137" y1="90.315" x2="61.729" y2="120.613"/>
			
				<line fill="none" stroke="#FFFFFF" stroke-width="0.6289" stroke-miterlimit="10" x1="66.792" y1="91.234" x2="65.737" y2="119.436"/>
			
				<line fill="none" stroke="#FFFFFF" stroke-width="0.6289" stroke-miterlimit="10" x1="68.799" y1="91.808" x2="68.123" y2="118.719"/>
			
				<line fill="none" stroke="#FFFFFF" stroke-width="0.6289" stroke-miterlimit="10" x1="71.779" y1="92.404" x2="70.658" y2="117.844"/>
			
				<line fill="none" stroke="#FFFFFF" stroke-width="0.6289" stroke-miterlimit="10" x1="73.865" y1="92.808" x2="73.049" y2="116.961"/>
			<path fill="none" stroke="#FFFFFF" stroke-width="0.6289" stroke-miterlimit="10" d="M74.501,117.211
				c0,0-25.808,14.703-56.092-1.719"/>
			<path fill="none" stroke="#FFFFFF" stroke-width="0.6289" stroke-miterlimit="10" d="M75.274,93.9
				c0,0-31.516-13.756-56.307-1.926"/>
		</g>
		<g>
			
				<linearGradient id="SVGID_3_" gradientUnits="userSpaceOnUse" x1="106.8389" y1="-95.2573" x2="106.8389" y2="-119.4805" gradientTransform="matrix(0.9986 0.0536 -0.0536 0.9986 -66.2656 208.4604)">
				<stop  offset="0" style="stop-color:#FFFF00"/>
				<stop  offset="0.2135" style="stop-color:#FFE906"/>
				<stop  offset="0.6547" style="stop-color:#FFB215"/>
				<stop  offset="0.8805" style="stop-color:#FF931E"/>
			</linearGradient>
			<path fill="url(#SVGID_3_)" stroke="#723F26" stroke-width="0.08" stroke-miterlimit="10" d="M54.949,107.453
				c-0.348,6.68-4.557,11.879-9.401,11.611c-4.844-0.268-8.489-5.898-8.141-12.58c0.347-6.68,4.556-11.879,9.399-11.611
				S55.297,100.773,54.949,107.453z"/>
			
				<linearGradient id="SVGID_4_" gradientUnits="userSpaceOnUse" x1="106.8379" y1="-117.0586" x2="106.8379" y2="-97.6782" gradientTransform="matrix(0.9986 0.0536 -0.0536 0.9986 -66.2656 208.4604)">
				<stop  offset="0" style="stop-color:#FFFF00"/>
				<stop  offset="0.2135" style="stop-color:#FFE906"/>
				<stop  offset="0.6547" style="stop-color:#FFB215"/>
				<stop  offset="0.8805" style="stop-color:#FF931E"/>
			</linearGradient>
			<path fill="url(#SVGID_4_)" stroke="#FFFFFF" stroke-width="0.064" stroke-miterlimit="10" d="M53.194,107.355
				c-0.278,5.346-3.646,9.504-7.52,9.291c-3.875-0.215-6.791-4.721-6.513-10.065c0.279-5.344,3.646-9.504,7.521-9.289
				C50.557,97.506,53.473,102.012,53.194,107.355z"/>
		</g>
		<g>
			
				<linearGradient id="SVGID_5_" gradientUnits="userSpaceOnUse" x1="87.9351" y1="-100.1875" x2="87.9351" y2="-114.8872" gradientTransform="matrix(0.9986 0.0536 -0.0536 0.9986 -66.2656 208.4604)">
				<stop  offset="0" style="stop-color:#FFFF00"/>
				<stop  offset="0.2135" style="stop-color:#FFE906"/>
				<stop  offset="0.6547" style="stop-color:#FFB215"/>
				<stop  offset="0.8805" style="stop-color:#FF931E"/>
			</linearGradient>
			<path fill="url(#SVGID_5_)" stroke="#723F26" stroke-width="0.0467" stroke-miterlimit="10" d="M32.241,106.061
				c-0.211,4.053-2.59,7.219-5.313,7.067c-2.723-0.149-4.759-3.558-4.548-7.614c0.211-4.053,2.59-7.217,5.313-7.066
				S32.452,102.006,32.241,106.061z"/>
			
				<linearGradient id="SVGID_6_" gradientUnits="userSpaceOnUse" x1="87.9346" y1="-113.4165" x2="87.9346" y2="-101.6567" gradientTransform="matrix(0.9986 0.0536 -0.0536 0.9986 -66.2656 208.4604)">
				<stop  offset="0" style="stop-color:#FFFF00"/>
				<stop  offset="0.2135" style="stop-color:#FFE906"/>
				<stop  offset="0.6547" style="stop-color:#FFB215"/>
				<stop  offset="0.8805" style="stop-color:#FF931E"/>
			</linearGradient>
			<path fill="url(#SVGID_6_)" stroke="#FFFFFF" stroke-width="0.0374" stroke-miterlimit="10" d="M31.254,106.006
				c-0.168,3.242-2.071,5.775-4.25,5.654s-3.808-2.846-3.64-6.091c0.169-3.243,2.073-5.774,4.251-5.653
				C29.794,100.035,31.423,102.762,31.254,106.006z"/>
		</g>
		<g>
			
				<linearGradient id="SVGID_7_" gradientUnits="userSpaceOnUse" x1="126.9731" y1="-100.1265" x2="126.9731" y2="-114.8257" gradientTransform="matrix(0.9986 0.0536 -0.0536 0.9986 -66.2656 208.4604)">
				<stop  offset="0" style="stop-color:#FFFF00"/>
				<stop  offset="0.2135" style="stop-color:#FFE906"/>
				<stop  offset="0.6547" style="stop-color:#FFB215"/>
				<stop  offset="0.8805" style="stop-color:#FF931E"/>
			</linearGradient>
			<path fill="url(#SVGID_7_)" stroke="#723F26" stroke-width="0.0467" stroke-miterlimit="10" d="M71.222,108.214
				c-0.212,4.054-2.59,7.219-5.312,7.067c-2.724-0.15-4.761-3.559-4.55-7.611c0.211-4.055,2.59-7.219,5.314-7.068
				C69.396,100.752,71.433,104.159,71.222,108.214z"/>
			
				<linearGradient id="SVGID_8_" gradientUnits="userSpaceOnUse" x1="126.9741" y1="-113.355" x2="126.9741" y2="-101.5947" gradientTransform="matrix(0.9986 0.0536 -0.0536 0.9986 -66.2656 208.4604)">
				<stop  offset="0" style="stop-color:#FFFF00"/>
				<stop  offset="0.2135" style="stop-color:#FFE906"/>
				<stop  offset="0.6547" style="stop-color:#FFB215"/>
				<stop  offset="0.8805" style="stop-color:#FF931E"/>
			</linearGradient>
			<path fill="url(#SVGID_8_)" stroke="#FFFFFF" stroke-width="0.0374" stroke-miterlimit="10" d="M70.236,108.16
				c-0.17,3.242-2.072,5.773-4.252,5.654c-2.178-0.121-3.807-2.848-3.639-6.092c0.169-3.242,2.072-5.774,4.25-5.653
				C68.775,102.189,70.404,104.916,70.236,108.16z"/>
		</g>
	</g>
</g>
</svg>
