<?xml version="1.0" encoding="utf-8"?>
<!-- Generator: Adobe Illustrator 15.0.0, SVG Export Plug-In . SVG Version: 6.00 Build 0)  -->
<!DOCTYPE svg PUBLIC "-//W3C//DTD SVG 1.1//EN" "http://www.w3.org/Graphics/SVG/1.1/DTD/svg11.dtd">
<svg version="1.1" id="Layer_1" xmlns="http://www.w3.org/2000/svg" xmlns:xlink="http://www.w3.org/1999/xlink" x="0px" y="0px"
	 width="88.191px" height="173.779px" viewBox="0 0 88.191 173.779" enable-background="new 0 0 88.191 173.779"
	 xml:space="preserve">
<g>
	<g>
		<path fill="#B05C2E" stroke="#020101" stroke-width="1.1321" stroke-miterlimit="10" d="M20.398,138.44
			c0,0-1.019,4.508-2.019,10.776s0.438,15.832,0.438,15.832s-0.086,6.914,7.873,6.588c7.958-0.325,6.207-7.062,8.354-6.977
			c2.148,0.088,1.566,4.696,6.955,4.326c5.387-0.371,6.17-5.884,7.585-6.021c1.414-0.136,2.503,4.021,6.194,3.812
			c3.69-0.209,3.956-1.998,5.043-4.159c1.087-2.162,2.931-0.543,2.931-0.543s-0.185,3.409,5.306,2.587
			c5.487-0.823,5.956-9.143,5.956-9.143s1.741-18.539-1.08-26.058c-2.821-7.518-10.282-13.309-10.282-13.309
			s-7.254-5.544-20.913-4.79c-14.489,0.802-17.862,4.223-22.677,9.745c0,0-8.311,0.802-9.898,4.212
			c-1.588,3.411,1.104,19.12,1.322,21.542c0.22,2.425,0.09,7.978,6.988,7.312"/>
	</g>
	<path opacity="0.3" enable-background="new    " d="M72.404,159.113c0,0-3.202,2.861-7.981,0.44
		C64.422,159.554,68.95,164.289,72.404,159.113z"/>
	<path opacity="0.3" enable-background="new    " d="M59.889,160.092c0,0-3.202,2.861-7.981,0.441
		C51.908,160.533,56.436,165.269,59.889,160.092z"/>
	<path opacity="0.3" enable-background="new    " d="M47.375,161.07c0,0-3.202,2.862-7.981,0.441
		C39.393,161.512,43.921,166.248,47.375,161.07z"/>
	<path opacity="0.3" enable-background="new    " d="M31.52,162.234c0,0-3.203,2.862-7.982,0.441
		C23.537,162.676,28.064,167.412,31.52,162.234z"/>
	<path opacity="0.3" enable-background="new    " d="M15.38,126.984c-2.595,0.937-4.35,0.465-5.519-0.415
		c0.225-0.228,0.37-0.513,0.459-0.826C12.846,127.303,15.38,126.984,15.38,126.984z"/>
	<path opacity="0.3" enable-background="new    " d="M16.494,149.545c-0.717,2.021-1.91,2.738-3.065,2.883
		c-0.032-0.262-0.142-0.512-0.298-0.746C15.413,151.168,16.494,149.545,16.494,149.545z"/>
	<path opacity="0.1" fill="#B05C2E" stroke="#020101" stroke-width="0.566" stroke-miterlimit="10" enable-background="new    " d="
		M62.944,132.117l-0.21,6.049c0,0,3.437,2.094,3.288,2.592c-0.149,0.498,1.161,5.482,1.161,5.482l0.727,3.875"/>
	
		<polyline opacity="0.1" fill="#B05C2E" stroke="#020101" stroke-width="0.3853" stroke-miterlimit="10" enable-background="new    " points="
		52.399,128.092 52.595,139.847 55.261,141.842 55.478,145.99 53.862,150.729 55.315,152.77 	"/>
	<path opacity="0.1" fill="#B05C2E" stroke="#020101" stroke-width="0.566" stroke-miterlimit="10" enable-background="new    " d="
		M42.078,128.377l-2.324,5.838c0,0,0.877,3.377,1.086,4.019c0.208,0.643,0.318,2.756,0.318,2.756l-1.795,2.547
		c0,0-0.106,1.312,0.103,1.953c0.208,0.641,0.421,4.706,0.421,4.706l-0.188,3.111"/>
	
		<polyline opacity="0.1" fill="#B05C2E" stroke="#020101" stroke-width="0.566" stroke-miterlimit="10" enable-background="new    " points="
		30.068,129.854 29.635,138.363 27.865,141.396 28.785,145.589 28.09,149.053 27.577,152.671 	"/>
</g>
<g>
	<g>
		<path fill="#B05C2E" d="M18.342,96.906c0,0-2.502-19.791-7.145-28.199C6.555,60.3,2.357,44.285,3.959,34.666
			c1.603-9.62,5.7-15.695,19.722-21.021c0,0,9.834-21.122,39.853-5.885c0,0,28.334,19.553,21.877,40.6
			c-7.909,25.781-11.35,16.224-17.488,47.757C67.922,96.117,48.216,121.468,18.342,96.906z"/>
		<path opacity="0.3" enable-background="new    " d="M66.431,19.26c0,0,9.616,17.238-10.779,75.084
			C55.652,94.344,79.019,40.291,66.431,19.26z"/>
		<path opacity="0.3" enable-background="new    " d="M23.273,19.539c0,0-10.086,17.242,7.313,76.12
			C30.588,95.659,9.625,39.855,23.273,19.539z"/>
		<path opacity="0.1" enable-background="new    " d="M21.498,15.803c0,0-21.336,3.191-17.147,30.002
			c1.672,16.019,9.509,27.093,9.509,27.093l4.138,20.483l-1.442-22.359C16.553,71.021-12.635,30.633,21.498,15.803z"/>
		<path opacity="0.1" enable-background="new    " d="M23.129,20.314c0,0-11.078,23.243,8.701,77.769
			c0,0-16.633-65.631-5.539-81.396L23.129,20.314z"/>
		<path opacity="0.1" fill="#070000" d="M68.414,13.209c0,0,19.292,13.895,17.344,30.11c-1.67,16.203-12.083,30.73-12.083,30.73
			s-4.181,10.876-4.795,12.493c0,0,4.47-13.146,5.715-16.282C78.915,59.377,96.281,36.266,68.414,13.209z"/>
		<path opacity="0.1" fill="#070000" enable-background="new    " d="M65.958,19.674c0,0,8.192,15.227-6.09,60.031
			C59.868,79.705,71.335,34.48,65.958,19.674z"/>
		<path fill="#000102" d="M3.135,34.52C4.697,25.127,8.82,19.203,23.43,13.586c0.339-0.646,4.135-5.504,4.866-5.735
			c-2.047,1.792-3.787,6.009-3.862,6.168l-0.146,0.316l-0.317,0.12C9.865,19.811,6.254,25.975,4.783,34.811
			c-1.549,9.299,2.521,25.104,7.141,33.472c4.388,7.942,6.836,25.395,7.203,28.166c8.955,7.288,17.849,10.743,26.438,10.27h0.002
			c12.542-0.695,20.5-9.695,21.579-10.986c3.502-17.922,6.164-22.622,9.243-28.061c2.272-4.015,4.85-8.564,8.226-19.568
			c3.216-10.481-2.851-20.571-8.332-27.342C67.049,9.354,64.758,9.176,65.019,8.793c5.268,3.737,8.704,7.679,11.759,11.338
			c8.411,10.075,12.161,19.584,9.429,28.49c-3.432,11.188-6.058,15.826-8.375,19.917c-3.016,5.327-5.622,9.929-9.09,27.749
			l-0.04,0.205l-0.127,0.164c-0.349,0.447-8.707,10.994-22.919,11.78c-0.001,0-0.002,0.002-0.003,0.002
			c-9.094,0.501-18.458-3.151-27.833-10.858l-0.264-0.218l-0.044-0.346c-0.024-0.195-2.534-19.719-7.042-27.883
			C5.71,60.512,1.526,44.176,3.135,34.52z"/>
	</g>
	<g>
		<g>
			<path fill="none" stroke="#030405" stroke-width="2.8302" stroke-miterlimit="10" d="M71.833,86l1.775,2.426l-1.713,3.834
				l0.153,22.318l2.443,3.586l-1.397,3.304c0,0-11.886,6.954-31.222,8.022c-19.334,1.066-27.741-5.104-27.741-5.104l-2.102-2.763
				l1.918-3.656l-0.427-23.67l-1.83-3.795l1.692-2.965C13.385,87.537,38.897,77.328,71.833,86z"/>
			<path fill="#DDBE07" d="M71.833,86l1.775,2.426l-1.713,3.834l0.153,22.318l2.443,3.586l-1.397,3.304
				c0,0-11.886,6.954-31.222,8.022c-19.334,1.066-27.741-5.104-27.741-5.104l-2.102-2.763l1.918-3.656l-0.427-23.67l-1.83-3.795
				l1.692-2.965C13.385,87.537,38.897,77.328,71.833,86z"/>
			
				<line fill="none" stroke="#FFFFFF" stroke-width="0.6289" stroke-miterlimit="10" x1="69.416" y1="91.135" x2="69.686" y2="116.553"/>
			
				<line fill="none" stroke="#FFFFFF" stroke-width="0.6289" stroke-miterlimit="10" x1="66.277" y1="89.547" x2="66.676" y2="117.607"/>
			
				<line fill="none" stroke="#FFFFFF" stroke-width="0.6289" stroke-miterlimit="10" x1="62.667" y1="89.502" x2="62.942" y2="118.698"/>
			
				<line fill="none" stroke="#FFFFFF" stroke-width="0.6289" stroke-miterlimit="10" x1="58.849" y1="88.41" x2="59.48" y2="120.188"/>
			
				<line fill="none" stroke="#FFFFFF" stroke-width="0.6289" stroke-miterlimit="10" x1="54.715" y1="87.791" x2="56.127" y2="120.542"/>
			
				<line fill="none" stroke="#FFFFFF" stroke-width="0.6289" stroke-miterlimit="10" x1="51.338" y1="87.64" x2="52.507" y2="121.25"/>
			
				<line fill="none" stroke="#FFFFFF" stroke-width="0.6289" stroke-miterlimit="10" x1="47.954" y1="87.318" x2="48.858" y2="121.621"/>
			
				<line fill="none" stroke="#FFFFFF" stroke-width="0.6289" stroke-miterlimit="10" x1="44.153" y1="87.529" x2="45.08" y2="122.17"/>
			
				<line fill="none" stroke="#FFFFFF" stroke-width="0.6289" stroke-miterlimit="10" x1="39.928" y1="87.932" x2="40.653" y2="121.52"/>
			
				<line fill="none" stroke="#FFFFFF" stroke-width="0.6289" stroke-miterlimit="10" x1="35.871" y1="88.706" x2="36.835" y2="121.428"/>
			
				<line fill="none" stroke="#FFFFFF" stroke-width="0.6289" stroke-miterlimit="10" x1="32.93" y1="88.656" x2="33.897" y2="121.248"/>
			
				<line fill="none" stroke="#FFFFFF" stroke-width="0.6289" stroke-miterlimit="10" x1="30.206" y1="89.59" x2="31.4" y2="121.019"/>
			
				<line fill="none" stroke="#FFFFFF" stroke-width="0.6289" stroke-miterlimit="10" x1="26.736" y1="90.315" x2="28.145" y2="120.613"/>
			
				<line fill="none" stroke="#FFFFFF" stroke-width="0.6289" stroke-miterlimit="10" x1="23.081" y1="91.234" x2="24.136" y2="119.436"/>
			
				<line fill="none" stroke="#FFFFFF" stroke-width="0.6289" stroke-miterlimit="10" x1="21.074" y1="91.808" x2="21.75" y2="118.719"/>
			
				<line fill="none" stroke="#FFFFFF" stroke-width="0.6289" stroke-miterlimit="10" x1="18.094" y1="92.404" x2="19.215" y2="117.844"/>
			
				<line fill="none" stroke="#FFFFFF" stroke-width="0.6289" stroke-miterlimit="10" x1="16.008" y1="92.808" x2="16.824" y2="116.961"/>
			<path fill="none" stroke="#FFFFFF" stroke-width="0.6289" stroke-miterlimit="10" d="M15.372,117.211
				c0,0,25.809,14.703,56.092-1.719"/>
			<path fill="none" stroke="#FFFFFF" stroke-width="0.6289" stroke-miterlimit="10" d="M14.599,93.9
				c0,0,31.516-13.756,56.307-1.926"/>
		</g>
		<g>
			
				<linearGradient id="SVGID_1_" gradientUnits="userSpaceOnUse" x1="-587.7361" y1="245.5247" x2="-587.7361" y2="269.7463" gradientTransform="matrix(-0.9986 0.0536 -0.0536 -0.9986 -529.4088 395.7471)">
				<stop  offset="0" style="stop-color:#FFFF00"/>
				<stop  offset="0.2135" style="stop-color:#FFE906"/>
				<stop  offset="0.6547" style="stop-color:#FFB215"/>
				<stop  offset="0.8805" style="stop-color:#FF931E"/>
			</linearGradient>
			<path fill="url(#SVGID_1_)" stroke="#723F26" stroke-width="0.08" stroke-miterlimit="10" d="M34.924,107.453
				c0.349,6.68,4.558,11.879,9.401,11.61c4.844-0.268,8.489-5.897,8.141-12.58c-0.347-6.68-4.556-11.879-9.398-11.61
				C38.224,95.141,34.576,100.773,34.924,107.453z"/>
			
				<linearGradient id="SVGID_2_" gradientUnits="userSpaceOnUse" x1="-587.7361" y1="267.3254" x2="-587.7361" y2="247.9465" gradientTransform="matrix(-0.9986 0.0536 -0.0536 -0.9986 -529.4088 395.7471)">
				<stop  offset="0" style="stop-color:#FFFF00"/>
				<stop  offset="0.2135" style="stop-color:#FFE906"/>
				<stop  offset="0.6547" style="stop-color:#FFB215"/>
				<stop  offset="0.8805" style="stop-color:#FF931E"/>
			</linearGradient>
			<path fill="url(#SVGID_2_)" stroke="#FFFFFF" stroke-width="0.064" stroke-miterlimit="10" d="M36.679,107.355
				c0.277,5.347,3.646,9.504,7.52,9.291c3.875-0.215,6.791-4.721,6.513-10.064c-0.278-5.345-3.646-9.504-7.521-9.289
				C39.316,97.506,36.4,102.012,36.679,107.355z"/>
		</g>
		<g>
			
				<linearGradient id="SVGID_3_" gradientUnits="userSpaceOnUse" x1="-606.6389" y1="250.4534" x2="-606.6389" y2="265.1516" gradientTransform="matrix(-0.9986 0.0536 -0.0536 -0.9986 -529.4088 395.7471)">
				<stop  offset="0" style="stop-color:#FFFF00"/>
				<stop  offset="0.2135" style="stop-color:#FFE906"/>
				<stop  offset="0.6547" style="stop-color:#FFB215"/>
				<stop  offset="0.8805" style="stop-color:#FF931E"/>
			</linearGradient>
			<path fill="url(#SVGID_3_)" stroke="#723F26" stroke-width="0.0467" stroke-miterlimit="10" d="M57.632,106.061
				c0.211,4.054,2.591,7.219,5.313,7.067c2.723-0.149,4.759-3.559,4.548-7.614c-0.211-4.053-2.59-7.217-5.312-7.065
				C59.457,98.599,57.421,102.006,57.632,106.061z"/>
			
				<linearGradient id="SVGID_4_" gradientUnits="userSpaceOnUse" x1="-606.6404" y1="263.6838" x2="-606.6404" y2="251.9241" gradientTransform="matrix(-0.9986 0.0536 -0.0536 -0.9986 -529.4088 395.7471)">
				<stop  offset="0" style="stop-color:#FFFF00"/>
				<stop  offset="0.2135" style="stop-color:#FFE906"/>
				<stop  offset="0.6547" style="stop-color:#FFB215"/>
				<stop  offset="0.8805" style="stop-color:#FF931E"/>
			</linearGradient>
			<path fill="url(#SVGID_4_)" stroke="#FFFFFF" stroke-width="0.0374" stroke-miterlimit="10" d="M58.619,106.006
				c0.168,3.242,2.071,5.775,4.25,5.654s3.808-2.847,3.64-6.092c-0.169-3.242-2.072-5.773-4.251-5.652
				C60.079,100.035,58.45,102.762,58.619,106.006z"/>
		</g>
		<g>
			
				<linearGradient id="SVGID_5_" gradientUnits="userSpaceOnUse" x1="-567.6013" y1="250.3918" x2="-567.6013" y2="265.0911" gradientTransform="matrix(-0.9986 0.0536 -0.0536 -0.9986 -529.4088 395.7471)">
				<stop  offset="0" style="stop-color:#FFFF00"/>
				<stop  offset="0.2135" style="stop-color:#FFE906"/>
				<stop  offset="0.6547" style="stop-color:#FFB215"/>
				<stop  offset="0.8805" style="stop-color:#FF931E"/>
			</linearGradient>
			<path fill="url(#SVGID_5_)" stroke="#723F26" stroke-width="0.0467" stroke-miterlimit="10" d="M18.651,108.214
				c0.212,4.054,2.59,7.219,5.312,7.067c2.725-0.15,4.762-3.56,4.551-7.611c-0.212-4.055-2.591-7.219-5.314-7.068
				C20.478,100.752,18.44,104.159,18.651,108.214z"/>
			
				<linearGradient id="SVGID_6_" gradientUnits="userSpaceOnUse" x1="-567.6013" y1="263.6233" x2="-567.6013" y2="251.8625" gradientTransform="matrix(-0.9986 0.0536 -0.0536 -0.9986 -529.4088 395.7471)">
				<stop  offset="0" style="stop-color:#FFFF00"/>
				<stop  offset="0.2135" style="stop-color:#FFE906"/>
				<stop  offset="0.6547" style="stop-color:#FFB215"/>
				<stop  offset="0.8805" style="stop-color:#FF931E"/>
			</linearGradient>
			<path fill="url(#SVGID_6_)" stroke="#FFFFFF" stroke-width="0.0374" stroke-miterlimit="10" d="M19.637,108.16
				c0.17,3.241,2.071,5.772,4.252,5.653c2.178-0.121,3.807-2.848,3.639-6.092c-0.169-3.242-2.072-5.773-4.25-5.653
				C21.098,102.189,19.469,104.916,19.637,108.16z"/>
		</g>
	</g>
</g>
</svg>
