<?xml version="1.0" encoding="utf-8"?>
<!-- Generator: Adobe Illustrator 15.0.0, SVG Export Plug-In . SVG Version: 6.00 Build 0)  -->
<!DOCTYPE svg PUBLIC "-//W3C//DTD SVG 1.1//EN" "http://www.w3.org/Graphics/SVG/1.1/DTD/svg11.dtd">
<svg version="1.1" id="Layer_2" xmlns="http://www.w3.org/2000/svg" xmlns:xlink="http://www.w3.org/1999/xlink" x="0px" y="0px"
	 width="1500px" height="300px" viewBox="0 0 1500 300" enable-background="new 0 0 1500 300" xml:space="preserve">
<path fill="#8BC53F" d="M1639.888,184.203c-18.722-1.633-24.154-2.715-15.979-4.734c-16.226-2.305-18.492-4.972-10.347-10.161
	c-15.489,0.358-19.857-1.222-13.932-6.204c-11.468,2.535-12.079-0.167-5.917-7.631c-7.126,2.21-6.862-0.133-1.746-5.832
	c-9.701,4.006-14.114,4.732-11.179,0.598c-11.287,5.721-14.923,6.7-8.874,1.69c-13.225,2.065-17.374,0.189-15.396-5.875
	c-12.178,2.156-17.255,0.507-18.479-5.903c-6.098,4.723-7.531,3.45-5.5-3.098c-3.977,3.056-4.143,0.906-2.201-4.466
	c-7.597,3.183-10.433,0.706-12.318-7.629c-2.512,4.108-4.633,5.977-4.304,4.011c-5.507,3.646-8.417,3.499-7.6-0.781
	c-7.79,4.223-13.571,2.843-19.191-5.057c-5.81,5.345-7.146,5.218-3.883-0.859c-11.949,3.348-18.476,1.023-23.413-7.84
	c-0.004,7.38-2.104,6.016-9.689-4.446c0.27,6.358-3.768,3.553-13.317-6.461c-0.2,4.915-1.187,6.792-1.796,3.141
	c-4.427,4.892-8.15,4.298-12.607-1.997c-0.494,8.691-6.094,8.408-16.117-0.824c-2.226,8.521-10.518,7.073-21.801-2.96
	c-3.695,6.755-6.849,5.497-8.573-2.512c-6.346,4.536-10.709,2.389-11.703-4.387c-8.854,5.862-13.375,7.229-13.185,2.096
	c-10.041,6.938-14.454,7.57-12.839,0.831c-8.982,8.838-15.006,8.031-19.668-1.879c-5.505,9.854-8.192,10.651-8.603,1.016
	c-13.154,6.644-18.792,5.956-20.797-1.991c-5.04,7.645-8.569,6.262-11.816-2.169c-3.373,6.183-5.8,5.336-7.934-1.326
	c-3.565,7.187-6.279,8.515-8.786,2.049c-1.636,4.67-3.022,7.5-4.262,8.268c-0.482,0.003-0.93-0.006-1.347-0.027
	c-0.779-0.564-1.508-2.126-2.217-4.774c-0.616,0.862-1.213,1.63-1.8,2.349c0.192-0.817,0.878-1.847,2.05-3.107
	c-11.072,3.917-12.009,1.31-6.805-6.852c-6.803,3.064-6.827,0.707-2.446-5.574c-9.139,5.161-13.43,6.421-11.021,1.959
	c-10.504,7.057-13.992,8.473-8.602,2.762c-12.873,3.666-17.221,2.311-15.998-3.95c-11.822,3.628-17.063,2.611-19.061-3.602
	c-5.476,5.433-7.054,4.345-5.838-2.402c-3.573,3.519-4,1.405-2.73-4.164c-7.15,4.087-10.268,1.976-13.158-6.066
	c-1.99,4.384-3.867,6.498-3.781,4.507c-5.02,4.291-7.927,4.501-7.638,0.153c-7.216,5.144-13.122,4.48-19.666-2.674
	c-5.112,6.015-6.454,6.052-3.958-0.378c-11.451,4.783-18.213,3.273-24.196-4.921c0.898,7.325-1.353,6.228-10.159-3.229
	c1.044,6.277-3.306,3.986-14.008-4.785c0.402,4.902-0.348,6.886-1.398,3.337c-3.796,5.396-7.564,5.262-12.757-0.441
	c0.571,8.687-5.021,9.09-16.097,1.151c-1.168,8.729-9.575,8.305-22-0.274c-2.842,7.155-6.125,6.292-8.815-1.446
	c-5.744,5.277-10.337,3.68-12.151-2.924c-8.072,6.9-12.392,8.809-12.83,3.691c-9.118,8.113-13.421,9.279-12.641,2.394
	c-7.836,9.869-13.912,9.805-19.75,0.538c-4.26,10.453-6.83,11.572-8.414,2.06c-12.244,8.201-17.924,8.207-20.885,0.565
	c-4.068,8.203-7.74,7.262-11.992-0.709c-2.593,6.549-5.104,6.005-8.037-0.347c-2.66,7.568-5.191,9.218-8.47,3.107
	c-2.169,9.96-4.243,12.066-7.343,4.396c-5.271,9.694-9.896,11.519-14.549,5.745c-6.989,8.198-12.68,8.74-21.906,1.744
	c0.708,6.806-0.729,7.446-5.091,1.529c0.171,4.771-2.353,2.946-6.937-2.402c0.635,4.823-0.541,6.071-4.511,2.706
	c-0.518,3.051-3.694,1.449-8.591-2.293c1.779,5.114,1.714,7.98-2.487,6.201c0.098,0.868,0.097,1.615,0.017,2.271
	c-0.388-0.914-0.431-2.148-0.139-3.746c-4.314,1.484-4.182-1.379-2.053-6.358c-5.143,3.396-8.424,4.772-8.729,1.693
	c-4.193,3.082-5.279,1.756-4.313-3.012c-4.942,5.019-7.585,6.664-7.086,1.917c-4.762,5.601-6.15,4.861-4.973-1.878
	c-9.688,6.341-15.328,5.406-21.733-3.256c-5.041,5.438-9.527,3.298-14.115-6.738c-3.623,7.438-5.547,5.192-7.021-4.894
	c-3.693,5.869-6.106,4.049-8.235-3.687c-3.364,6.134-5.907,6.503-8.042-0.21c-4.792,7.658-8.52,8.343-12.013-0.123
	c-3.482,7.419-9.148,7.021-20.796-2.008c-2.238,9.38-4.726,8.086-8.251-2.638c-6.464,8.841-12.53,8.484-19.665-1.903
	c0.303,6.923-3.908,5.463-12.446-3.262c-0.79,5.074-4.967,2.872-12.543-4.57c-2.267,6.462-6.959,7.738-12.324,2.076
	c-3.22,7.533-6.555,8.167-8.895,0.832c-12.989,7.699-21.405,7.541-21.967-1.248c-11.598,7.153-17.147,6.364-15.979-2.262
	c-5.574,5.33-9.342,5.202-12.755-0.442c-1.294,3.467-1.907,1.437-1.164-3.426c-11.285,8.01-15.782,9.994-14.305,3.805
	c-9.439,8.824-11.761,9.763-10.359,2.518c-6.535,7.761-13.386,8.799-24.479,3.234c2.046,6.587,0.709,6.458-3.975,0.104
	c-7.022,6.685-12.96,6.938-19.804,1.308c-0.011,4.357-2.898,3.946-7.607-0.682c-0.053,1.992-1.78-0.247-3.46-4.758
	c-3.44,7.822-6.696,9.713-13.545,5.142c0.879,5.644,0.307,7.722-3.014,3.965c0.745,6.815-0.904,7.792-5.99,1.992
	c-2.423,6.061-7.721,6.712-19.265,2.274c0.787,6.33-3.645,7.382-16.233,2.834c4.982,6.07,1.6,4.417-8.39-3.35
	c2.093,4.617-2.1,3.063-10.859-2.717c3.935,6.568,3.747,8.918-2.826,5.391c4.627,8.502,3.511,11.038-7.263,6.365
	c4.438,5.487,1.013,6.568-11.091,4.214c0.047-0.168,0.092-0.333,0.143-0.506c-0.177,0.149-0.348,0.289-0.521,0.432
	c-1.067-0.21-2.191-0.443-3.389-0.705c0.729,0.691,1.346,1.332,1.859,1.928c-3.555,2.73-5.867,3.597-6.424,1.038
	c-3.809,3.547-5.041,2.355-4.631-2.493c-4.33,5.556-6.764,7.496-6.818,2.723c-4.082,6.115-5.547,5.541-5.156-1.29
	c-8.89,7.418-14.601,7.143-21.964-0.72c-4.379,5.982-9.083,4.376-14.8-5.061c-2.738,7.806-4.91,5.797-7.538-4.049
	c-2.99,6.256-5.598,4.728-8.608-2.71c-2.633,6.482-5.117,7.143-8.011,0.722c-3.875,8.161-7.498,9.271-11.947,1.267
	c-2.602,7.771-8.275,8.031-20.889,0.409c-1.138,9.577-3.76,8.579-8.5-1.665c-5.399,9.529-11.466,9.876-19.754,0.383
	c1.102,6.84-3.25,5.877-12.739-1.802c-0.199,5.132-4.602,3.427-12.988-3.089c-1.505,6.682-6.018,8.493-12.001,3.487
	c-2.328,7.855-5.566,8.871-8.739,1.856c-12.012,9.149-20.391,9.964-21.964,1.3c-10.693,8.447-16.297,8.304-16.133-0.398
	c-4.92,5.938-8.678,6.248-12.721,1.034c-0.885,3.593-1.728,1.648-1.553-3.268c-10.282,9.261-14.52,11.752-13.769,5.434
	c-8.355,9.856-10.553,11.057-9.998,3.698c-5.594,8.465-12.279,10.288-23.941,6.044c2.793,6.305,1.451,6.332-3.937,0.561
	c-6.203,7.453-12.072,8.389-19.52,3.59c0.493,4.329-2.423,4.254-7.635,0.202c0.177,1.985-1.796-0.04-3.987-4.325
	c-2.513,8.167-5.529,10.421-12.86,6.672c1.526,5.504,1.198,7.635-2.535,4.287c1.528,6.683,0.003,7.843-5.719,2.671
	c-1.707,6.3-6.893,7.561-18.873,4.487c1.514,6.197-2.767,7.753-15.796,4.691c5.65,5.454,2.099,4.202-8.721-2.357
	c2.612,4.344-1.731,3.285-11.101-1.443c4.668,6.07,4.753,8.424-2.184,5.682c5.579,7.909,4.763,10.557-6.479,7.162
	c5.532,5.416,1.056,6.661-14.361,5.13c7.728,5.791,5.268,8.278-11.087,9.347c7.999,2.634,2.5,3.301-16.292,3.51
	c9.148,1.966,8.093,14.54-1.687,15.602c11.156,5.41,16.676-0.986,27.827,4.422c2.672-0.122,5.38-0.247,8.104-0.372L-17.5,334.5
	l1536,14l5.184-157.244c31.596,3.925,61.465,7.615,88.62,10.933c11.53-4.548,16.551,2.247,28.084-2.302
	C1630.716,198.088,1630.616,185.471,1639.888,184.203z M407.773,72.093c0.586,1.059,0.659,1.916,0.175,2.587
	C407.658,74.113,407.614,73.235,407.773,72.093z"/>
<path fill="#81B040" d="M1621.393,239.673c-18.436-1.594-23.784-2.649-15.735-4.62c-15.979-2.249-18.209-4.852-10.188-9.916
	c-15.255,0.35-19.556-1.192-13.72-6.055c-11.293,2.475-11.896-0.163-5.828-7.446c-7.016,2.156-6.758-0.13-1.719-5.691
	c-9.553,3.909-13.898,4.618-11.009,0.583c-11.114,5.583-14.695,6.538-8.739,1.649c-13.021,2.016-17.109,0.186-15.16-5.733
	c-11.993,2.104-16.991,0.495-18.197-5.761c-6.004,4.608-7.417,3.367-5.416-3.022c-3.916,2.981-4.08,0.883-2.168-4.359
	c-7.479,3.105-10.272,0.689-12.131-7.445c-2.474,4.009-4.561,5.833-4.238,3.915c-5.422,3.557-8.287,3.414-7.483-0.762
	c-7.671,4.12-13.364,2.774-18.898-4.935c-5.722,5.215-7.036,5.092-3.823-0.839c-11.769,3.268-18.194,0.998-23.057-7.651
	c-0.004,7.202-2.071,5.871-9.543-4.338c0.267,6.204-3.709,3.467-13.114-6.305c-0.197,4.795-1.169,6.627-1.768,3.064
	c-4.36,4.773-8.025,4.195-12.415-1.947c-0.486,8.48-6.001,8.205-15.871-0.805c-2.192,8.313-10.357,6.901-21.47-2.89
	c-3.638,6.592-6.744,5.363-8.443-2.451c-6.247,4.426-10.544,2.331-11.523-4.281c-8.72,5.721-13.172,7.055-12.984,2.045
	c-9.889,6.771-14.234,7.389-12.644,0.812c-8.846,8.625-14.778,7.838-19.368-1.833c-5.42,9.616-8.067,10.394-8.471,0.992
	c-12.955,6.481-18.507,5.811-20.479-1.943c-4.965,7.46-8.439,6.11-11.637-2.117c-3.323,6.035-5.712,5.207-7.812-1.294
	c-3.513,7.013-6.185,8.31-8.652,1.999c-1.612,4.558-2.979,7.319-4.198,8.068c-0.475,0.004-0.914-0.006-1.326-0.025
	c-0.767-0.55-1.484-2.075-2.182-4.66c-0.607,0.842-1.194,1.592-1.774,2.293c0.191-0.797,0.865-1.803,2.021-3.031
	c-10.905,3.821-11.827,1.276-6.701-6.688c-6.699,2.991-6.725,0.69-2.41-5.439c-8.999,5.036-13.225,6.266-10.854,1.912
	c-10.344,6.887-13.779,8.268-8.47,2.695c-12.677,3.577-16.959,2.254-15.755-3.855c-11.643,3.541-16.802,2.548-18.77-3.516
	c-5.392,5.303-6.947,4.241-5.749-2.344c-3.52,3.434-3.939,1.372-2.69-4.064c-7.04,3.99-10.11,1.93-12.956-5.919
	c-1.959,4.279-3.809,6.341-3.724,4.399c-4.942,4.188-7.807,4.392-7.521,0.148c-7.107,5.021-12.924,4.372-19.368-2.609
	c-5.034,5.87-6.354,5.907-3.896-0.368c-11.277,4.667-17.936,3.194-23.828-4.803c0.885,7.149-1.333,6.078-10.005-3.15
	c1.029,6.126-3.256,3.89-13.794-4.67c0.396,4.784-0.343,6.721-1.378,3.257c-3.736,5.265-7.448,5.135-12.562-0.431
	c0.563,8.476-4.943,8.871-15.85,1.123c-1.151,8.518-9.431,8.104-21.666-0.267c-2.799,6.981-6.031,6.139-8.681-1.413
	c-5.656,5.15-10.18,3.591-11.967-2.853c-7.949,6.734-12.202,8.596-12.634,3.602c-8.979,7.917-13.217,9.056-12.448,2.337
	c-7.716,9.631-13.7,9.568-19.449,0.524c-4.195,10.201-6.727,11.294-8.285,2.011c-12.058,8.003-17.651,8.009-20.566,0.551
	c-4.007,8.005-7.624,7.086-11.81-0.692c-2.555,6.391-5.028,5.861-7.915-0.337c-2.62,7.386-5.113,8.995-8.341,3.032
	c-2.137,9.719-4.179,11.776-7.231,4.291c-5.191,9.46-9.746,11.239-14.327,5.605c-6.882,8.001-12.487,8.53-21.573,1.702
	c0.698,6.643-0.718,7.268-5.012,1.492c0.167,4.656-2.318,2.877-6.831-2.344c0.624,4.707-0.532,5.926-4.442,2.642
	c-0.509,2.978-3.639,1.414-8.46-2.237c1.753,4.989,1.688,7.787-2.449,6.051c0.097,0.847,0.095,1.576,0.016,2.215
	c-0.381-0.892-0.424-2.096-0.136-3.654c-4.249,1.448-4.117-1.346-2.022-6.205c-5.063,3.313-8.296,4.657-8.595,1.652
	c-4.129,3.008-5.199,1.713-4.248-2.939c-4.868,4.898-7.47,6.504-6.979,1.871c-4.688,5.465-6.057,4.744-4.896-1.832
	c-9.541,6.188-15.096,5.275-21.402-3.178c-4.965,5.307-9.384,3.219-13.9-6.576c-3.567,7.258-5.462,5.067-6.914-4.775
	c-3.639,5.728-6.014,3.951-8.11-3.598c-3.313,5.986-5.817,6.346-7.919-0.205c-4.72,7.473-8.391,8.142-11.83-0.12
	c-3.43,7.24-9.009,6.851-20.479-1.959c-2.204,9.154-4.654,7.891-8.125-2.574c-6.365,8.628-12.339,8.28-19.366-1.857
	c0.298,6.756-3.849,5.331-12.256-3.183c-0.778,4.952-4.891,2.803-12.352-4.46c-2.233,6.306-6.854,7.552-12.136,2.026
	c-3.171,7.351-6.455,7.97-8.759,0.812c-12.792,7.513-21.08,7.359-21.633-1.218c-11.421,6.981-16.886,6.211-15.735-2.207
	c-5.489,5.202-9.2,5.077-12.561-0.432c-1.274,3.383-1.878,1.402-1.146-3.343c-11.113,7.816-15.542,9.753-14.087,3.713
	c-9.295,8.611-11.582,9.527-10.202,2.457c-6.435,7.573-13.182,8.586-24.105,3.156c2.015,6.428,0.698,6.302-3.915,0.101
	c-6.915,6.523-12.763,6.77-19.502,1.276c-0.011,4.252-2.854,3.851-7.491-0.665c-0.053,1.944-1.753-0.241-3.407-4.643
	c-3.388,7.633-6.594,9.479-13.339,5.018c0.866,5.507,0.303,7.535-2.968,3.869c0.734,6.651-0.89,7.604-5.898,1.944
	c-2.387,5.914-7.604,6.55-18.971,2.219c0.775,6.178-3.589,7.204-15.985,2.766c4.906,5.924,1.575,4.311-8.262-3.269
	c2.061,4.506-2.068,2.989-10.694-2.651c3.875,6.41,3.69,8.703-2.783,5.261c4.556,8.297,3.457,10.771-7.153,6.211
	c4.37,5.355,0.997,6.409-10.922,4.112c0.047-0.164,0.091-0.324,0.141-0.494c-0.175,0.146-0.343,0.282-0.513,0.421
	c-1.05-0.206-2.158-0.433-3.338-0.688c0.718,0.674,1.326,1.3,1.832,1.881c-3.5,2.664-5.778,3.51-6.327,1.013
	c-3.75,3.461-4.964,2.297-4.561-2.433c-4.264,5.423-6.661,7.315-6.714,2.657c-4.02,5.968-5.463,5.407-5.078-1.258
	c-8.755,7.24-14.378,6.97-21.629-0.703c-4.312,5.837-8.944,4.271-14.575-4.938c-2.696,7.616-4.835,5.657-7.423-3.952
	c-2.945,6.106-5.513,4.614-8.478-2.645c-2.593,6.326-5.039,6.97-7.888,0.703c-3.816,7.964-7.384,9.048-11.765,1.237
	c-2.562,7.584-8.149,7.837-20.571,0.399c-1.121,9.346-3.703,8.373-8.371-1.625c-5.317,9.299-11.292,9.638-19.453,0.374
	c1.084,6.676-3.201,5.736-12.545-1.757c-0.195,5.007-4.532,3.344-12.79-3.016c-1.481,6.521-5.925,8.288-11.818,3.403
	c-2.293,7.666-5.482,8.657-8.605,1.812c-11.829,8.928-20.08,9.724-21.63,1.268c-10.53,8.244-16.049,8.104-15.887-0.389
	c-4.845,5.795-8.545,6.097-12.527,1.01c-0.871,3.506-1.701,1.607-1.529-3.19c-10.125,9.038-14.299,11.469-13.56,5.303
	c-8.228,9.619-10.392,10.79-9.846,3.609c-5.508,8.261-12.092,10.039-23.576,5.898c2.751,6.153,1.428,6.179-3.877,0.548
	c-6.108,7.273-11.888,8.186-19.223,3.503c0.485,4.224-2.386,4.151-7.519,0.196c0.174,1.938-1.77-0.038-3.926-4.22
	c-2.474,7.97-5.444,10.169-12.665,6.511c1.503,5.371,1.18,7.451-2.497,4.184c1.505,6.521,0.003,7.654-5.632,2.607
	c-1.681,6.147-6.788,7.377-18.585,4.379c1.49,6.047-2.724,7.566-15.556,4.578c5.564,5.322,2.068,4.101-8.588-2.301
	c2.572,4.24-1.705,3.206-10.932-1.408c4.597,5.924,4.681,8.222-2.15,5.545c5.494,7.719,4.691,10.303-6.38,6.988
	c5.448,5.286,1.04,6.501-14.142,5.008c7.61,5.651,5.187,8.078-10.919,9.121c7.877,2.57,2.462,3.222-16.043,3.426
	c9.008,1.919,7.969,14.188-1.661,15.226c10.985,5.278,16.421-0.963,27.403,4.314c2.632-0.119,5.298-0.24,7.981-0.363l-5.501,187.155
	l1512.597,13.662l5.104-153.451c31.115,3.83,60.528,7.432,87.27,10.669c11.354-4.438,16.3,2.192,27.656-2.246
	C1612.362,253.223,1612.264,240.91,1621.393,239.673z M408.052,130.267c0.577,1.033,0.649,1.87,0.173,2.524
	C407.939,132.238,407.896,131.381,408.052,130.267z"/>
<g>
	<path fill="#81B040" d="M517.465,699.35c7.27,2.94,14.541,5.881,21.809,8.821c87.095,0,215.703-1.219,314.443-1.219
		c8.326-3.368,4.605-4.038,12.93-7.406c-1.936-0.19,3.252-3.311,3.715-4.004c-0.549-0.45-3.691-5.968-1.115-7.123
		c-5.898,1.051-4.043,6.188-3.154,6.141c-1.496,0.139,3.004,0.267,1.982,0.364c-4.391,0.202-7.332,0.353-8.822,0.445
		c-10.793-0.815-13.289-1.358-7.078-1.999c-12.52-0.584-14.686-1-7.244-2.104c-9.445,0.74-11.896-0.236-9.914-3.697
		c-5.43,1.56-5.979,0.792-3.24-2.08c-5.697,1.497-7.789,0.994-7.367-1.871c-2.801,0.884-2.848-0.538-1.664-3.08
		c-3.264,1.86-5.379,2.658-5.725,1.145c-2.646,1.675-3.432,1.051-3.016-1.347c-3.051,2.664-4.738,3.57-4.623,1.196
		c-2.904,2.946-3.869,2.629-3.402-0.757c-6.146,3.483-9.947,3.218-14.615-0.855c-3.098,2.872-6.188,1.965-9.707-2.854
		c-2.062,3.818-3.455,2.773-4.904-2.173c-2.178,3.033-3.871,2.219-5.65-1.548c-1.959,3.166-3.635,3.432-5.367,0.179
		c-2.825,3.964-5.281,4.432-8.002,0.358c-1.97,3.802-5.76,3.796-13.93-0.271c-1.051,4.726-2.767,4.177-5.621-1.022
		c-3.882,4.61-7.943,4.645-13.178-0.254c0.525,3.42-2.346,2.842-8.435-1.185c-0.283,2.542-3.172,1.595-8.562-1.831
		c-1.208,3.287-4.27,4.078-8.1,1.461c-1.797,3.848-3.986,4.275-5.888,0.723c-8.284,4.27-13.895,4.483-14.675,0.145
		c-7.383,3.951-11.115,3.755-10.746-0.561c-3.454,2.837-5.967,2.906-8.51,0.22c-0.693,1.768-1.201,0.785-0.936-1.652
		c-7.129,4.361-10.029,5.5-9.342,2.386c-5.869,4.703-7.372,5.246-6.777,1.606c-3.986,4.072-8.492,4.829-16.135,2.455
		c1.663,3.194,0.773,3.178-2.646,0.19c-4.356,3.559-8.303,3.895-13.115,1.341c0.197,2.16-1.75,2.057-5.102-0.075
		c0.064,0.987-1.195-0.058-2.523-2.242c-1.918,4.004-4.004,5.05-8.771,3.027c0.849,2.768,0.565,3.819-1.825,2.068
		c0.82,3.351-0.237,3.895-3.895,1.196c-1.328,3.091-4.824,3.599-12.71,1.797c0.814,3.113-2.079,3.79-10.675,1.976
		c3.604,2.831,1.271,2.132-5.742-1.369c1.608,2.213-1.254,1.595-7.35-0.971c2.924,3.12,2.906,4.287-1.629,2.773
		c3.473,4.05,2.848,5.35-4.541,3.408c3.523,2.813,0.502,3.328-9.727,2.219c4.972,3.056,3.262,4.229-7.678,4.391
		c5.254,1.49,1.566,1.698-10.965,1.369C524.045,698.391,524.016,699.043,517.465,699.35z M866.057,695.114
		C864.469,695.271,864.422,695.265,866.057,695.114L866.057,695.114z"/>
</g>
</svg>
