<?xml version="1.0" encoding="utf-8"?>
<!-- Generator: Adobe Illustrator 15.0.0, SVG Export Plug-In . SVG Version: 6.00 Build 0)  -->
<!DOCTYPE svg PUBLIC "-//W3C//DTD SVG 1.1//EN" "http://www.w3.org/Graphics/SVG/1.1/DTD/svg11.dtd">
<svg version="1.1" id="Layer_1" xmlns="http://www.w3.org/2000/svg" xmlns:xlink="http://www.w3.org/1999/xlink" x="0px" y="0px"
	 width="242.092px" height="205.695px" viewBox="0 0 242.092 205.695" enable-background="new 0 0 242.092 205.695"
	 xml:space="preserve">
<g>
	<g>
		<path fill="#B05C2E" stroke="#020101" stroke-width="2" stroke-miterlimit="10" d="M208.861,80.608
			c-7.828-37.996-41.551-61.045-83.529-62.031c-76.59-1.799-93.347,20.001-97.482,72.69l1.189,26.503
			c7.199,44.188,45.364,72.901,87.365,76.198c47.353,3.717,84.973-31.094,92.752-79.047l4.007-18.471L208.861,80.608z"/>
		<path opacity="0.3" d="M133.191,19.028l-0.278,10.539c0,0,13.333,0.133,25.2-1.2c0,0,26.318,3.999,39.6,32.333
			c3,6.4,0.939,9.07,2.134,12.734l3.866-1.067L208.78,98.5l-6.534,3.466c0,0,8.934-0.133,2.268,17.6
			c-2.4,5.2-9.467,18.133-9.467,18.133s-4.267,5.734-14.134,2.134l-4,0.133l-0.933,10.667c0,0,6.533,11.467-18.134,22.8
			l18.696,1.306c16.871-14.253,28.639-35.318,32.613-59.819l4.007-18.471l-4.302-15.842
			C201.527,45.014,171.473,22.539,133.191,19.028z"/>
		<linearGradient id="SVGID_1_" gradientUnits="userSpaceOnUse" x1="59.1802" y1="169.6997" x2="101.0469" y2="169.6997">
			<stop  offset="0" style="stop-color:#FFFFFF;stop-opacity:0.4"/>
			<stop  offset="1" style="stop-color:#FFFFFF;stop-opacity:0"/>
		</linearGradient>
		<path fill="url(#SVGID_1_)" d="M66.914,158.766c0,0,3.2,16.801,34.133,21.867l-41.867-12
			C59.18,168.633,62.914,158.766,66.914,158.766z"/>
		<linearGradient id="SVGID_2_" gradientUnits="userSpaceOnUse" x1="27.4497" y1="91.3955" x2="100.3516" y2="91.3955">
			<stop  offset="0" style="stop-color:#FFFFFF;stop-opacity:0.4"/>
			<stop  offset="1" style="stop-color:#FFFFFF;stop-opacity:0"/>
		</linearGradient>
		<path fill="url(#SVGID_2_)" d="M100.352,18.936C44.59,22.33,31.1,44.768,27.45,91.267l1.19,26.503
			c2.97,18.229,11.213,33.821,22.818,46.084L64.914,150.1c0,0-15.2-2.133-18.667-15.199c-10.133-9.867-10.168-18.398-8.933-34.801
			l0.4-15.2l-3.021-9.398l7.821,0.798c-7.2-5.4-5.856-10.692-6.525-14.473c3.119-11.983,11.42-29.601,33.498-35.983
			c2.461,0.932,16.614,6.004,26.626,3.456c0,0-7.147-2.227-9.833-6.11C94.98,22.134,99.124,20.627,100.352,18.936z"/>
		<path fill="#020101" d="M80.247,25.566c0,0,30.667,14.667,69.867,0.266L155.18,7.7c0,0-32.267-10.133-78.133-0.8L80.247,25.566"/>
		<linearGradient id="SVGID_3_" gradientUnits="userSpaceOnUse" x1="78.2466" y1="19.1113" x2="141.2061" y2="19.1113">
			<stop  offset="0" style="stop-color:#FFFFFF;stop-opacity:0.4"/>
			<stop  offset="1" style="stop-color:#FFFFFF;stop-opacity:0"/>
		</linearGradient>
		<path fill="url(#SVGID_3_)" d="M138.211,12h-0.137c-0.514,0-1.002-0.009-1.451-0.151c-0.709,0.66-1.773,1.151-2.965,1.151h-0.139
			c-0.658,0-1.277-0.344-1.82-0.569c-0.686,0.486-1.596,0.569-2.596,0.569h-0.139c-0.752,0-1.451-0.1-2.047-0.39
			c-0.695,0.796-1.867,1.39-3.197,1.39h-0.137c-0.916,0-1.754-0.249-2.416-0.662c-0.662,0.413-1.501,0.662-2.416,0.662h-0.137
			c-1.014,0-1.934-0.306-2.623-0.803C115.303,13.694,114.383,14,113.37,14h-0.138c-1.232,0-2.327-1-3.035-1
			c-0.002,0-0.002,0-0.003,0c-0.707,0-1.802,1-3.034,1h-0.139c-1.08,0-2.055-0.131-2.757-0.688c-0.601,0.297-1.31,0.688-2.073,0.688
			h-0.138c-1.366,0-2.565-0.839-3.251-1.672C98.097,12.916,97.096,13,95.98,13h-0.138c-1.665,0-3.079-0.676-3.624-1.826
			C91.553,11.6,90.701,12,89.771,12h-0.139c-1.625,0-3.012-0.851-3.583-1.957C85.34,10.672,84.305,11,83.146,11h-0.138
			c-2.062,0-3.741-1.503-3.854-3.086c-0.303-0.08-0.604-0.28-0.908-0.362l2.76,16.552c0,0,12.421,6.844,34.503,6.558
			c22.082-0.286,23.736-2.593,23.736-2.593l1.96-17.485C140.498,11.26,139.42,12,138.211,12z"/>
	</g>
	<path d="M196.611,72.767c0,0,5.969-1.938,10.388-1.993c4.417-0.055,8.741,1.088,8.741,1.088l5.207,5.223l1.481,4.129l1.005,5.094
		l-1.564,9.707c0,0-0.91,3.941-4.809,5.039c-3.898,1.099-12.015,2.267-13.211,2.173c-1.195-0.094-6.811-0.133-6.811-0.133
		l-4.174-28.614L196.611,72.767z"/>
	<path d="M42.313,73.729c0,0-5.8-2.589-10.2-3.021c-4.4-0.431-8.8,0.432-8.8,0.432l-5.6,5.177l-1.8,4.314l-1.4,5.393l0.8,10.569
		c0,0,0.6,4.314,4.4,5.824c3.8,1.51,11.8,3.452,13,3.452c1.2,0,6.8,0.431,6.8,0.431l6.4-30.414L42.313,73.729z"/>
	<g>
		<path d="M33.618,87.403c0.006,0.002,0.01,0.002,0.01,0.002S33.786,86.922,33.618,87.403z"/>
		<path d="M217.393,103.254l-1.667-8.089c0.19-0.365,1.048-2.555,1.249-2.979c1.035-2.184-1.361-2.423-0.492-6.609
			c0.868-4.187-2.253-10.043-6.452-10.112c-4.219-0.069-0.16,10.804-0.16,10.804l0.917,10.069
			c-0.428,9.447-2.861,25.459-13.154,40.985c-1.363,1.132-2.818,4.348-5.387,8.444c-31.797-22.981-64.396-10.033-64.396-10.033
			c-6.082,4.942-16.995-0.478-16.995-0.478c-31.321-1.826-48.949,13.477-55.234,21.452c-9.274-9.947-21.021-26.208-23.168-46.387
			c0,0-0.926-16.769,0.335-20.488c0.488-1.439-2.844-14.549-2.739-14.854c-0.352-0.079-6.783,10.215-6.803,23.474
			c0,0,2.899,18.421,0.404,24.234s-3.204,12.468-3.226,13.769c-0.021,1.3,2.136,16.132,2.136,16.132l1.589,0.676l0.136,3.906
			l3.855,8.843l1.203-0.143l0.014,11.383l4.528,4.464l4.189,0.719l3.725,4.614l12.727,4.599l2.402-0.124l4.965,2.195l10.393,0.496
			l7.903,5.982l15.993,0.587c0,0,2.983,1.024,3.784,1.038c0.799,0.013,16.994,0.44,16.994,0.44l11.777,1.494l7.223-1.345
			l9.826-1.466l10.094-5.689l17.021-1.185l11.566-6.855l11.662-6.912c0,0,13.712-18.962,13.725-19.775
			c0.014-0.812,0.049-2.927,0.261-3.735c0.214-0.81,7.083-29.479,7.083-29.479l0.971-10.39L217.393,103.254z M165.125,168.132
			c-9.352,3.747-18.244,7.615-28.531,9.802l-1.221-0.736l-11.382-1.162l-6.797-0.274l-8.417,1.001l-4.911,1.637
			c-10.347-1.685-22.292-5.094-36.543-10.913c0,0-0.654-0.481-1.778-1.403c17.302-33.963,45.603-24.223,45.603-24.223
			c9.96,2.602,17.397,0.284,17.397,0.284c34.516,0.006,50.008,10.049,53.484,15.793
			C177.812,161.646,172.346,165.239,165.125,168.132z"/>
	</g>
	<path fill="#B05C2E" stroke="#020101" stroke-width="2" stroke-miterlimit="10" d="M219.23,85.833c0,0,14.4-3.733,17.866,4.8
		c3.468,8.533,7.733,26.934-21.866,25.867C215.23,116.5,211.496,86.633,219.23,85.833z"/>
	<path fill="#020101" d="M226.77,99.567c0.662-3.264,5.144-8.867,5.144-8.867s-3,2.2-6.399,8.8c-3.4,6.6-13,5-13,5
		c8.582,2.024,12.574-1.261,13.783-3.381c1.707-1.274,4.674-2.897,4.816,1.081C231.113,102.2,232.789,96.815,226.77,99.567z"/>
	
		<linearGradient id="SVGID_4_" gradientUnits="userSpaceOnUse" x1="-105.1016" y1="266.043" x2="-79.502" y2="266.043" gradientTransform="matrix(1.048 -0.1016 0.0964 0.9953 99.8369 -188.6826)">
		<stop  offset="0" style="stop-color:#FFFFFF;stop-opacity:0.4"/>
		<stop  offset="1" style="stop-color:#FFFFFF;stop-opacity:0"/>
	</linearGradient>
	<path opacity="0.49" fill="url(#SVGID_4_)" d="M15.406,87.506c0,0,3.223-13.783,8.307-15.207
		c5.085-1.423,17.646,3.571,17.646,3.571l-3.52,22.506L28.713,94.5C28.713,94.5,27.114,83.3,15.406,87.506z"/>
	<linearGradient id="SVGID_5_" gradientUnits="userSpaceOnUse" x1="22.6138" y1="148.498" x2="122.7129" y2="148.498">
		<stop  offset="0" style="stop-color:#FFFFFF;stop-opacity:0.4"/>
		<stop  offset="1" style="stop-color:#FFFFFF;stop-opacity:0"/>
	</linearGradient>
	<path opacity="0.41" fill="url(#SVGID_5_)" d="M28.614,96.9c0,0,1.85,17.5,0.05,22.9s-5.375,5.35-5.975,14.35
		s2.613,17.575,2.613,17.575l0.406,7.188l2.403,3.994l3.001,4.397l0.201,6.798l4,2.199l2.2,4.2c0,0,3,3.199,3.8,3.199
		c0.8,0,8.8,1.8,8.8,1.8s1,3,1.6,3c0.6,0,3.4,0.2,4,0.4c0.6,0.2,3.2,1.2,3.2,1.2l4.8,1c0,0,4.2-0.2,4.8-0.4c0.6-0.2,6.2-0.2,6.2-0.2
		l1.8,3.05l3.8,2.45h4.6c0,0,3.4-0.15,4-0.15c0.601,0,11.2,3.625,11.2,3.625l6-0.387l8.8-0.194l7.8,1.203l-7.199-3.798
		l-22.201-2.199l-5.199-0.799l-3.8-2l-4.4,1.4c0,0-1.8-2-2.2-3c-0.4-1-1.8-3.8-1.8-3.8l-4.2-0.8c0,0-2.6-0.6-4.4-0.8
		c-1.8-0.2-8.157-1.8-8.157-1.8l-6.156,2v-2.8l-2.243-6c0,0-5.521-0.4-6.521-0.4s-2.361,2.2-2.361,2.2s-3.38,0.4-3.581-0.6
		c-0.2-1-0.59-4.6-0.59-4.6l-3.395-1.4l-0.797-6l-5.999-6.6l-0.799-7.4c0,0-4-11-2.399-17.4s5.8-13.8,5.8-13.8
		S31.313,105.7,28.614,96.9z"/>
	
		<linearGradient id="SVGID_6_" gradientUnits="userSpaceOnUse" x1="-2853.1094" y1="190.8589" x2="-2768.6333" y2="190.8589" gradientTransform="matrix(-0.9997 0.0262 0.0262 0.9997 -2642.5703 30.6436)">
		<stop  offset="0" style="stop-color:#FFFFFF;stop-opacity:0.4"/>
		<stop  offset="1" style="stop-color:#FFFFFF;stop-opacity:0"/>
	</linearGradient>
	<path opacity="0.41" fill="url(#SVGID_6_)" d="M211.682,100.256c0,0,0.82,21.628,2.271,25.646
		c1.453,4.018-4.791,11.963-4.166,18.708c0.626,6.745-3.123,16.549-3.123,16.549l-1.696,3.538l-2.552,1.903l-3.097,2.374
		l-0.017,5.107l-2.949,1.729l-1.562,3.196c0,0-2.182,2.46-2.779,2.477c-0.599,0.016-6.547,1.523-6.547,1.523
		s-0.688,2.272-1.138,2.284c-0.448,0.012-2.539,0.217-2.983,0.379c-0.445,0.162-2.369,0.963-2.369,0.963l-3.57,0.845
		c0,0-3.146-0.068-3.6-0.206c-0.453-0.139-4.641-0.029-4.641-0.029l-1.285,2.364l-2.793,1.954l-3.441,0.09
		c0,0-2.547-0.085-2.996-0.074c-0.447,0.012-8.305,2.921-8.305,2.921l-4.496-0.184l-6.586,0.022l-5.811,1.054l5.311-2.994
		l16.561-2.086l3.875-0.703l2.802-1.576l3.319,0.965c0,0,1.307-1.537,1.586-2.295c0.279-0.759,1.271-2.889,1.271-2.889l3.125-0.683
		c0,0,1.934-0.501,3.276-0.687c1.343-0.186,5.933-1.508,5.933-1.508l4.512,1.384l-0.055-2.102l1.691-4.551
		c0,0,4.189-0.411,4.938-0.43c0.747-0.02,1.842,1.604,1.842,1.604s2.553,0.233,2.682-0.521c0.131-0.754,0.359-3.465,0.359-3.465
		l2.516-1.118l0.481-4.52l5.871-3.294l2.245-3.356c0,0,4.289-11.64,2.967-16.414s4.443-16.391,4.443-16.391
		S209.835,106.915,211.682,100.256z"/>
	<linearGradient id="SVGID_7_" gradientUnits="userSpaceOnUse" x1="32.1138" y1="149.1748" x2="42.1226" y2="149.1748">
		<stop  offset="0" style="stop-color:#FFFFFF;stop-opacity:0.4"/>
		<stop  offset="1" style="stop-color:#FFFFFF;stop-opacity:0"/>
	</linearGradient>
	<polygon opacity="0.41" fill="url(#SVGID_7_)" points="34.614,139.4 34.206,143.75 36,145.3 36,147.7 35.456,152.3 38.186,151.5 
		39.149,153.3 38.932,157.5 42.123,156.7 37.518,158.95 37.914,154 33.313,154 34.713,145.45 32.114,144.275 	"/>
	
		<linearGradient id="SVGID_8_" gradientUnits="userSpaceOnUse" x1="-353.0659" y1="1250.1631" x2="-343.0659" y2="1250.1631" gradientTransform="matrix(0.8014 -0.5981 0.5981 0.8014 -413.2676 -1042.4585)">
		<stop  offset="0" style="stop-color:#FFFFFF;stop-opacity:0.4"/>
		<stop  offset="1" style="stop-color:#FFFFFF;stop-opacity:0"/>
	</linearGradient>
	<polygon opacity="0.41" fill="url(#SVGID_8_)" points="47.648,161.241 49.809,165.057 52.059,165.312 53.495,167.235 
		55.925,171.161 57.69,168.845 59.569,169.689 61.92,173.175 64.006,170.62 61.696,175.214 59.085,171.048 55.399,173.799 
		51.377,166.07 48.576,166.664 	"/>
	
		<linearGradient id="SVGID_9_" gradientUnits="userSpaceOnUse" x1="-338.9951" y1="1280.1309" x2="-328.9946" y2="1280.1309" gradientTransform="matrix(0.8014 -0.5981 0.5981 0.8014 -413.2676 -1042.4585)">
		<stop  offset="0" style="stop-color:#FFFFFF;stop-opacity:0.4"/>
		<stop  offset="1" style="stop-color:#FFFFFF;stop-opacity:0"/>
	</linearGradient>
	<polygon opacity="0.41" fill="url(#SVGID_9_)" points="76.848,176.841 79.009,180.657 81.259,180.912 82.694,182.835 
		85.125,186.761 86.891,184.445 88.769,185.29 91.121,188.775 93.207,186.22 90.896,190.814 88.286,186.648 84.599,189.399 
		80.577,181.67 77.776,182.264 	"/>
	
		<linearGradient id="SVGID_10_" gradientUnits="userSpaceOnUse" x1="-323.9863" y1="1300.8154" x2="-313.9854" y2="1300.8154" gradientTransform="matrix(0.8014 -0.5981 0.5981 0.8014 -413.2676 -1042.4585)">
		<stop  offset="0" style="stop-color:#FFFFFF;stop-opacity:0.4"/>
		<stop  offset="1" style="stop-color:#FFFFFF;stop-opacity:0"/>
	</linearGradient>
	<polygon opacity="0.41" fill="url(#SVGID_10_)" points="101.248,184.441 103.409,188.256 105.658,188.512 107.094,190.435 
		109.525,194.361 111.291,192.045 113.168,192.889 115.521,196.375 117.607,193.82 115.296,198.415 112.686,194.249 108.999,197 
		104.977,189.27 102.176,189.864 	"/>
	
		<linearGradient id="SVGID_11_" gradientUnits="userSpaceOnUse" x1="-2720.4746" y1="149.1748" x2="-2710.4873" y2="149.1748" gradientTransform="matrix(-1 0 0 1 -2517.2676 0)">
		<stop  offset="0" style="stop-color:#FFFFFF;stop-opacity:0.4"/>
		<stop  offset="1" style="stop-color:#FFFFFF;stop-opacity:0"/>
	</linearGradient>
	<polygon opacity="0.41" fill="url(#SVGID_11_)" points="200.707,139.4 201.454,143.75 200,145.3 200,147.7 200.204,152.3 
		197.305,151.5 196.255,153.3 196.431,157.5 193.22,156.7 197.812,158.95 197.406,154 202.007,154 200.607,145.45 203.207,144.275 	
		"/>
	
		<linearGradient id="SVGID_12_" gradientUnits="userSpaceOnUse" x1="-2559.0664" y1="-396.2168" x2="-2549.0645" y2="-396.2168" gradientTransform="matrix(-0.8014 -0.5981 -0.5981 0.8014 -2104 -1042.4585)">
		<stop  offset="0" style="stop-color:#FFFFFF;stop-opacity:0.4"/>
		<stop  offset="1" style="stop-color:#FFFFFF;stop-opacity:0"/>
	</linearGradient>
	<polygon opacity="0.41" fill="url(#SVGID_12_)" points="187.672,161.241 185.511,165.057 183.262,165.312 181.826,167.235 
		179.395,171.161 177.629,168.845 175.752,169.689 173.398,173.175 171.312,170.62 173.624,175.214 176.234,171.048 
		179.921,173.799 183.943,166.07 186.744,166.664 	"/>
	
		<linearGradient id="SVGID_13_" gradientUnits="userSpaceOnUse" x1="-2542.7617" y1="-368.5752" x2="-2532.7598" y2="-368.5752" gradientTransform="matrix(-0.8014 -0.5981 -0.5981 0.8014 -2104 -1042.4585)">
		<stop  offset="0" style="stop-color:#FFFFFF;stop-opacity:0.4"/>
		<stop  offset="1" style="stop-color:#FFFFFF;stop-opacity:0"/>
	</linearGradient>
	<polygon opacity="0.41" fill="url(#SVGID_13_)" points="158.072,173.641 155.91,177.457 153.662,177.711 152.226,179.635 
		149.795,183.561 148.029,181.245 146.151,182.089 143.799,185.575 141.713,183.02 144.023,187.614 146.635,183.448 150.32,186.2 
		154.343,178.47 157.145,179.063 	"/>
	
		<linearGradient id="SVGID_14_" gradientUnits="userSpaceOnUse" x1="-2533.4316" y1="-347.6367" x2="-2523.4297" y2="-347.6367" gradientTransform="matrix(-0.8014 -0.5981 -0.5981 0.8014 -2104 -1042.4585)">
		<stop  offset="0" style="stop-color:#FFFFFF;stop-opacity:0.4"/>
		<stop  offset="1" style="stop-color:#FFFFFF;stop-opacity:0"/>
	</linearGradient>
	<polygon opacity="0.41" fill="url(#SVGID_14_)" points="138.072,184.841 135.91,188.657 133.662,188.912 132.226,190.835 
		129.795,194.761 128.029,192.445 126.151,193.29 123.799,196.775 121.713,194.22 124.023,198.814 126.635,194.648 130.32,197.399 
		134.343,189.67 137.145,190.264 	"/>
	<path fill="#B05C2E" stroke="#020101" stroke-width="2" stroke-miterlimit="10" d="M23.847,85.434c0,0-14.4-3.734-17.866,4.8
		c-3.467,8.533-7.734,26.934,21.866,25.867C27.847,116.1,31.581,86.233,23.847,85.434z"/>
	<path opacity="0.3" d="M28.514,108.1c0,0-11.4,2.8-14.4-8.6l-1.2-1.6c0,0,9.6,7.6,16.6,5L28.514,108.1z"/>
	<path fill="#020101" d="M14.858,98.367C14.195,95.103,9.713,89.5,9.713,89.5s3,2.2,6.4,8.8c3.4,6.6,13,5,13,5
		c-8.582,2.024-12.574-1.261-13.784-3.381c-1.707-1.273-4.674-2.896-4.816,1.082C10.514,101,8.837,95.616,14.858,98.367z"/>
	<linearGradient id="SVGID_15_" gradientUnits="userSpaceOnUse" x1="9.7354" y1="87.9292" x2="15.7391" y2="95.4409">
		<stop  offset="0" style="stop-color:#FFFFFF;stop-opacity:0.4"/>
		<stop  offset="1" style="stop-color:#FFFFFF;stop-opacity:0"/>
	</linearGradient>
	<path fill="url(#SVGID_15_)" d="M24.313,87.3c0,0-19.4-8-19.6,13.8c0,0,2.4-10.6,6.6-10.6C11.313,90.5,29.114,88.7,24.313,87.3z"/>
	<path opacity="0.3" d="M214.357,109.3c0,0,9.613,2.8,12.145-8.6l1.012-1.6c0,0-8.097,7.6-14,5L214.357,109.3z"/>
	
		<linearGradient id="SVGID_16_" gradientUnits="userSpaceOnUse" x1="-2882.2905" y1="87.9292" x2="-2876.2869" y2="95.4409" gradientTransform="matrix(-1 0 0 1 -2649 0)">
		<stop  offset="0" style="stop-color:#FFFFFF;stop-opacity:0.4"/>
		<stop  offset="1" style="stop-color:#FFFFFF;stop-opacity:0"/>
	</linearGradient>
	<path fill="url(#SVGID_16_)" d="M218.713,87.3c0,0,19.4-8,19.6,13.8c0,0-2.399-10.6-6.6-10.6
		C231.713,90.5,213.913,88.7,218.713,87.3z"/>
	<path fill="#944D22" d="M151.361,115.591c-2.955-1.131-2.471-3.958-2.404-4.278l0.104-17.829l-2.059,17.44
		c-0.352,1.622-0.047,5.118,3.648,6.533c3.609,1.383,11.872,6.504,10.908,10.972l-0.02,0.093c-0.348,2.892-8.758,0.197-14.992,0.021
		l-2.868,0.834c-0.191-0.01-10.679,2.823-22.679,3.595c0,0,0-0.001,0-0.001c-13,0.006-22.271-2.359-22.464-2.338l-3.146-0.667
		c-6.215,0.52-14.502,3.673-15.01,0.805l-0.044-0.092c-1.208-4.408,6.75-9.977,10.278-11.556c3.612-1.616,3.72-5.124,3.279-6.724
		l-3.019-17.3l1.082,17.796c0.084,0.315,0.725,3.112-2.164,4.404c-4.236,1.892-12.964,8.008-11.408,13.868
		c0.563,2.984,3.335,3.635,7.594,2.132c2.267-0.8,8.933-2.266,8.933-2.266c0.202-0.023,12.231,3.089,24.95,3.254
		c0.002,0.021,0.003,0.041,0.004,0.062c12.992-0.755,26.932-4.776,27.139-4.765c0,0,6.736,1.099,9.043,1.772
		c4.336,1.266,7.067,0.463,7.466-2.547C164.746,122.874,155.694,117.247,151.361,115.591z"/>
</g>
</svg>
