<?xml version="1.0" encoding="utf-8"?>
<!-- Generator: Adobe Illustrator 15.0.0, SVG Export Plug-In . SVG Version: 6.00 Build 0)  -->
<!DOCTYPE svg PUBLIC "-//W3C//DTD SVG 1.1//EN" "http://www.w3.org/Graphics/SVG/1.1/DTD/svg11.dtd">
<svg version="1.1" id="Layer_1" xmlns="http://www.w3.org/2000/svg" xmlns:xlink="http://www.w3.org/1999/xlink" x="0px" y="0px"
	 width="28.75px" height="16.667px" viewBox="0 0 28.75 16.667" enable-background="new 0 0 28.75 16.667" xml:space="preserve">
<g>
	<path d="M14.399,16.379c0.197,0.03,0.394,0.053,0.591,0.079c8.573,0.326,10.184-1.402,12.406-2.177
		c0.568-0.477,0.996-1.012,1.266-1.597l0.066-2.879c-0.465-1.239-1.541-2.457-3.17-3.55c-2.343-1.572-5.584-2.734-9.128-3.271
		c-1.385-0.21-2.764-0.316-4.102-0.316C-0.336,3.017,2.058,9.447,2.058,9.447c0.442,1.277,1.535,2.535,3.212,3.661
		C7.613,14.68,10.854,15.842,14.399,16.379z"/>
	<path fill="#F4EFED" d="M3.86,7.808c0.346-2.321,4.096-3.942,9.119-3.942c1.256,0,2.554,0.102,3.857,0.303
		c3.318,0.511,6.337,1.605,8.5,3.082c2.003,1.367,3.037,2.936,2.832,4.304c-0.346,2.321-4.095,3.941-9.118,3.941
		c-1.256,0-2.554-0.102-3.858-0.303c-3.318-0.511-6.336-1.605-8.5-3.081C4.688,10.745,3.656,9.176,3.86,7.808z"/>
</g>
</svg>
