<?xml version="1.0" encoding="utf-8"?>
<!-- Generator: Adobe Illustrator 15.0.0, SVG Export Plug-In . SVG Version: 6.00 Build 0)  -->
<!DOCTYPE svg PUBLIC "-//W3C//DTD SVG 1.1//EN" "http://www.w3.org/Graphics/SVG/1.1/DTD/svg11.dtd">
<svg version="1.1" id="Layer_1" xmlns="http://www.w3.org/2000/svg" xmlns:xlink="http://www.w3.org/1999/xlink" x="0px" y="0px"
	 width="28.75px" height="16.667px" viewBox="0 0 28.75 16.667" enable-background="new 0 0 28.75 16.667" xml:space="preserve">
<path d="M20.587,6.331c-2.729,0-4.943,2.034-4.943,4.543c0,2.509,2.213,4.542,4.943,4.542s4.943-2.034,4.943-4.542
	C25.53,8.365,23.317,6.331,20.587,6.331z M21.604,13.017c-0.556,0-0.854-0.414-0.854-0.924c0-0.001,0-0.001,0-0.001
	c-1,0.08-0.668,0.126-0.946,0.126c-1.329,0-2.487-0.99-2.487-2.211c0-1.222,1.041-2.212,2.37-2.212c1.329,0,2.389,0.99,2.389,2.212
	c0,0.438-0.15,0.844-0.388,1.188c0.445,0.095,0.851,0.46,0.851,0.899C22.538,12.603,22.159,13.017,21.604,13.017z"/>
</svg>
