<?xml version="1.0" encoding="utf-8"?>
<!-- Generator: Adobe Illustrator 15.0.0, SVG Export Plug-In . SVG Version: 6.00 Build 0)  -->
<!DOCTYPE svg PUBLIC "-//W3C//DTD SVG 1.1//EN" "http://www.w3.org/Graphics/SVG/1.1/DTD/svg11.dtd">
<svg version="1.1" id="Layer_1" xmlns="http://www.w3.org/2000/svg" xmlns:xlink="http://www.w3.org/1999/xlink" x="0px" y="0px"
	 width="79.681px" height="63.851px" viewBox="0 0 79.681 63.851" enable-background="new 0 0 79.681 63.851" xml:space="preserve">
<g>
	<path opacity="0.3" d="M71.514,23.9c0,0,17.434-7.273-13.339-9.985c6.136,0.887,22.91,4.01,10.452,10.342
		c0,0,11.488,5.736,7.766,19.507c-0.276,8.048-2.385,12.496-4.635,14.955c3.077-2.49,6.477-7.096,5.855-15.119
		C77.613,43.6,82.014,28.9,71.514,23.9z"/>
	<linearGradient id="SVGID_1_" gradientUnits="userSpaceOnUse" x1="21.2134" y1="17.1177" x2="47.5137" y2="17.1177">
		<stop  offset="0" style="stop-color:#FFFFFF;stop-opacity:0.4"/>
		<stop  offset="1" style="stop-color:#FFFFFF;stop-opacity:0"/>
	</linearGradient>
	<path fill="url(#SVGID_1_)" d="M21.213,17c0,0,7.9-6.2,26.3,4.3C47.514,21.3,28.313,5.8,21.213,17z"/>
	<linearGradient id="SVGID_2_" gradientUnits="userSpaceOnUse" x1="39.1138" y1="11.2607" x2="78.9155" y2="11.2607">
		<stop  offset="0" style="stop-color:#FFFFFF;stop-opacity:0.4"/>
		<stop  offset="1" style="stop-color:#FFFFFF;stop-opacity:0"/>
	</linearGradient>
	<path opacity="0.48" fill="url(#SVGID_2_)" d="M39.114,6.1c0,0,2.2-6.9,16,4.7c0,0,26.4,1.5,22.8,8.4c0,0,8.2-6.9-22.3-9.8
		C55.613,9.4,41.713-1.7,39.114,6.1z"/>
	<g>
		<g>
			<path d="M45.62,26.865c0,0-8.46-4.677-24.012-5.897C21.608,20.967,36.815,16.344,45.62,26.865z"/>
			<path d="M39.26,9.216c0,0,7.916-5.056,14.509,4.106C53.77,13.323,48.39,8.055,39.26,9.216z"/>
			<path d="M68.627,24.257c15.045-7.646-12.541-10.614-12.541-10.614c25.146,6.789,9.861,10.671,9.861,10.671
				c7.281,4.889,9.176,11.227,8.846,17.051c-5.604,1.283-26.254,4.024-69.415-10.437c0,0,4.104,24.396,9.562,26.429
				c5.457,2.033,51.011,4.404,51.011,4.404s9.821,0.043,10.441-17.998C80.115,29.993,68.627,24.257,68.627,24.257z"/>
		</g>
		<g>
			
				<linearGradient id="SVGID_3_" gradientUnits="userSpaceOnUse" x1="-2213.6304" y1="-1801.5088" x2="-2203.6304" y2="-1801.5088" gradientTransform="matrix(-0.3443 0.9389 -0.9389 -0.3443 -2426.1543 1499.4233)">
				<stop  offset="0" style="stop-color:#FFFFFF;stop-opacity:0.4"/>
				<stop  offset="1" style="stop-color:#FFFFFF;stop-opacity:0"/>
			</linearGradient>
			<polygon opacity="0.41" fill="url(#SVGID_3_)" points="35.775,47.026 31.88,45.012 29.857,46.027 27.604,45.201 23.422,43.242 
				23.21,46.146 21.176,46.467 17.301,44.832 16.951,48.112 16.375,43.002 20.838,45.064 22.421,40.745 30.014,45.02 32.036,42.992 
							"/>
			
				<linearGradient id="SVGID_4_" gradientUnits="userSpaceOnUse" x1="-2208.811" y1="-1813.9268" x2="-2198.812" y2="-1813.9268" gradientTransform="matrix(-0.3443 0.9389 -0.9389 -0.3443 -2426.1543 1499.4233)">
				<stop  offset="0" style="stop-color:#FFFFFF;stop-opacity:0.4"/>
				<stop  offset="1" style="stop-color:#FFFFFF;stop-opacity:0"/>
			</linearGradient>
			<polygon opacity="0.41" fill="url(#SVGID_4_)" points="45.775,55.826 41.88,53.812 39.857,54.828 37.604,54.002 33.422,52.043 
				33.21,54.947 31.176,55.266 27.301,53.633 26.951,56.912 26.375,51.802 30.838,53.863 32.421,49.545 40.014,53.82 42.036,51.793 
							"/>
			
				<linearGradient id="SVGID_5_" gradientUnits="userSpaceOnUse" x1="-2215.6719" y1="-1836.1201" x2="-2205.6719" y2="-1836.1201" gradientTransform="matrix(-0.3443 0.9389 -0.9389 -0.3443 -2426.1543 1499.4233)">
				<stop  offset="0" style="stop-color:#FFFFFF;stop-opacity:0.4"/>
				<stop  offset="1" style="stop-color:#FFFFFF;stop-opacity:0"/>
			</linearGradient>
			<polygon opacity="0.41" fill="url(#SVGID_5_)" points="68.976,57.026 65.08,55.012 63.057,56.027 60.804,55.201 56.623,53.242 
				56.41,56.146 54.375,56.467 50.502,54.832 50.15,58.112 49.574,53.002 54.038,55.064 55.621,50.745 63.213,55.02 65.234,52.992 
							"/>
			
				<linearGradient id="SVGID_6_" gradientUnits="userSpaceOnUse" x1="-2221.9067" y1="-1828.7222" x2="-2211.9048" y2="-1828.7222" gradientTransform="matrix(-0.3443 0.9389 -0.9389 -0.3443 -2426.1543 1499.4233)">
				<stop  offset="0" style="stop-color:#FFFFFF;stop-opacity:0.4"/>
				<stop  offset="1" style="stop-color:#FFFFFF;stop-opacity:0"/>
			</linearGradient>
			<polygon opacity="0.41" fill="url(#SVGID_6_)" points="64.176,48.627 60.28,46.612 58.257,47.628 56.004,46.802 51.822,44.843 
				51.609,47.746 49.576,48.066 45.702,46.433 45.351,49.713 44.775,44.602 49.238,46.664 50.82,42.346 58.413,46.62 60.436,44.592 
							"/>
		</g>
	</g>
</g>
</svg>
