<?xml version="1.0" encoding="utf-8"?>
<!-- Generator: Adobe Illustrator 15.0.0, SVG Export Plug-In . SVG Version: 6.00 Build 0)  -->
<!DOCTYPE svg PUBLIC "-//W3C//DTD SVG 1.1//EN" "http://www.w3.org/Graphics/SVG/1.1/DTD/svg11.dtd">
<svg version="1.1" id="Layer_1" xmlns="http://www.w3.org/2000/svg" xmlns:xlink="http://www.w3.org/1999/xlink" x="0px" y="0px"
	 width="28.75px" height="16.667px" viewBox="0 0 28.75 16.667" enable-background="new 0 0 28.75 16.667" xml:space="preserve">
<path fill="#B05C2E" stroke="#020101" stroke-width="0.7234" stroke-miterlimit="10" d="M1.915-9.222
	c-2.193,1.039-1.154,4.184-1.154,4.184l1.735-0.079c20.799-2.375,25.828,0.696,25.828,0.696s-0.556-5.094-1.949-6.807
	C24.981-12.941,10.332-13.21,1.915-9.222z"/>
<g>
	<path fill="#B05C2E" d="M-0.25-0.75v18h29v-18H-0.25z M28.662,12.683c-0.27,0.585-0.697,1.121-1.266,1.597
		c-2.223,0.775-3.833,2.503-12.406,2.177c-0.197-0.025-0.394-0.049-0.591-0.079c-3.544-0.537-6.786-1.699-9.129-3.271
		c-1.678-1.126-2.77-2.384-3.212-3.661c0,0-2.394-6.431,10.271-6.782c1.337,0,2.717,0.106,4.102,0.316
		c3.544,0.538,6.785,1.699,9.128,3.271c1.629,1.094,2.705,2.312,3.17,3.55L28.662,12.683z"/>
	<path d="M25.559,6.253c-2.343-1.572-5.584-2.734-9.128-3.271c-1.385-0.21-2.764-0.316-4.102-0.316
		C-0.336,3.017,2.058,9.447,2.058,9.447c0.442,1.277,1.535,2.535,3.212,3.661c2.343,1.572,5.584,2.734,9.129,3.271
		c0.197,0.03,0.394,0.053,0.591,0.079c8.573,0.326,10.184-1.402,12.406-2.177c0.568-0.477,0.996-1.012,1.266-1.597l0.066-2.879
		C28.264,8.565,27.188,7.347,25.559,6.253z M28.168,11.554c-0.346,2.321-4.095,3.941-9.118,3.941c-1.256,0-2.554-0.102-3.858-0.303
		c-3.318-0.511-6.336-1.605-8.5-3.081C4.688,10.745,3.656,9.176,3.86,7.808c0.346-2.321,4.096-3.942,9.119-3.942
		c1.256,0,2.554,0.102,3.857,0.303c3.318,0.511,6.337,1.605,8.5,3.082C27.34,8.617,28.373,10.186,28.168,11.554z"/>
</g>
</svg>
