<?xml version="1.0" encoding="utf-8"?>
<!-- Generator: Adobe Illustrator 15.0.0, SVG Export Plug-In . SVG Version: 6.00 Build 0)  -->
<!DOCTYPE svg PUBLIC "-//W3C//DTD SVG 1.1//EN" "http://www.w3.org/Graphics/SVG/1.1/DTD/svg11.dtd">
<svg version="1.1" id="Layer_1" xmlns="http://www.w3.org/2000/svg" xmlns:xlink="http://www.w3.org/1999/xlink" x="0px" y="0px"
	 width="220.814px" height="172.361px" viewBox="0 0 220.814 172.361" enable-background="new 0 0 220.814 172.361"
	 xml:space="preserve">
<path opacity="0.24" d="M202.413,159.407c-28.506,16.273-61.506,6.273-92.797,7.304c-3.688,0.179-7.376,0.363-11.065,0.536
	c-25.823,1.213-51.676,1.863-77.418-4.133c-4.021-1.143-6.226-2.384-6.226-3.682c0-1.133,1.679-2.222,4.779-3.24
	c25.48-6.341,51.307-6.677,77.014-6.479c3.213,0.025,6.425,0.059,9.633,0.096c29.574,1.871,59.574,3.871,89.662,6.072
	C200.136,156.862,202.414,158.088,202.413,159.407z"/>
<g>
	<path fill="#3A3D02" stroke="#020202" stroke-width="1.5259" stroke-miterlimit="10" d="M141.023,18.584
		c8.407,15.916,12.07,32.348,13.398,46.516c0,0,4.759,7.867,17.025,7.867s14.853-7.867,14.853-7.867
		c0.56-22.576-5.09-41.309-13.367-56.521c0,0-5.483-9.878-19.085-4.544C140.246,9.368,141.023,18.584,141.023,18.584z"/>
	<path fill="#2D2D02" d="M153.581,51.234c0,0,20.8,6.935,31.199-4.532l0.801,11.733l-30.935,1.066L153.581,51.234z"/>
</g>
<g>
	<path fill="#3A3D02" stroke="#020202" stroke-width="1.5259" stroke-miterlimit="10" d="M79.291,18.184
		C70.885,34.1,67.222,50.531,65.893,64.699c0,0-4.759,7.866-17.024,7.866c-12.267,0-14.853-7.866-14.853-7.866
		c-0.56-22.575,5.09-41.31,13.368-56.521c0,0,5.484-9.878,19.084-4.545C80.068,8.967,79.291,18.184,79.291,18.184z"/>
	<path fill="#2D2D02" d="M34.381,58.701l30.934-0.267l2.4-10.135c0,0-19.734,12.534-31.467-2.666L34.381,58.701z"/>
</g>
<g>
	<g>
		<polygon fill="#050301" points="10.292,164.291 3.17,167.75 2.937,169.5 52.414,161.215 54.981,159.113 55.915,162.031 
			68.867,162.965 68.389,157.314 56.787,155.391 		"/>
		<path fill="#412B1B" stroke="#020202" stroke-width="1.0502" stroke-miterlimit="10" d="M32.343,75.725l-1.59,70.609
			L5.579,166.537l48.204-8.502l14.288,1.396c0,0-4.03-55.811,4.151-73.482L32.343,75.725z"/>
		<polygon fill="#050301" points="38.527,102.764 35.077,146.543 24.645,155.112 35.921,146.834 40.211,102.727 		"/>
		
			<rect x="32.128" y="139.913" transform="matrix(-0.991 -0.1339 0.1339 -0.991 54.2033 288.7239)" fill="#2D1B0F" width="9.365" height="5.252"/>
		
			<rect x="32.471" y="132.193" transform="matrix(-0.991 -0.1342 0.1342 -0.991 55.8796 273.4026)" fill="#2D1B0F" width="9.366" height="5.251"/>
		
			<rect x="32.948" y="123.425" transform="matrix(-0.991 -0.1341 0.1341 -0.991 58.0166 256.0089)" fill="#2D1B0F" width="9.365" height="5.252"/>
		
			<rect x="33.128" y="114.263" transform="matrix(-0.991 -0.1341 0.1341 -0.991 59.6065 237.7923)" fill="#2D1B0F" width="9.366" height="5.253"/>
		
			<rect x="33.261" y="105.449" transform="matrix(-0.991 -0.1341 0.1341 -0.991 61.0488 220.2614)" fill="#2D1B0F" width="9.364" height="5.251"/>
	</g>
	<g>
		<g>
			<path fill="#D17700" d="M31.342,101.315c0,0-10.518-1.589-8.104-14.464c0,0,0.218-13.826,0.042-17.27
				c-0.174-3.445-0.512-10.07,11.43-10.679c11.94-0.606,37.476,0.484,37.476,0.484s6.191,1.013,4.678,7.465
				c-1.514,6.453,0.12,20.45,0.322,24.424c0.202,3.977,4.213,10.413-15.716,10.896C41.541,102.656,31.342,101.315,31.342,101.315z"
				/>
			<path fill="#020202" d="M63.694,103.154c-0.702,0.036-1.441,0.062-2.198,0.082c-19.783,0.479-30.189-0.854-30.292-0.865
				c-0.204-0.031-4.528-0.725-7.258-4.563c-2.005-2.824-2.601-6.545-1.771-11.062c0.018-1.194,0.206-13.885,0.042-17.109
				c-0.17-3.331-0.567-11.132,12.437-11.792c11.854-0.604,37.32,0.472,37.576,0.482l0.126,0.013
				c0.126,0.021,3.125,0.536,4.772,3.001c1.041,1.557,1.299,3.494,0.77,5.757c-1.18,5.027-0.349,15.249,0.099,20.741
				c0.117,1.447,0.21,2.592,0.251,3.385c0.021,0.457,0.106,0.979,0.195,1.531c0.305,1.878,0.683,4.215-0.973,6.262
				C75.494,101.461,71.116,102.777,63.694,103.154z M34.763,59.967c-10.879,0.555-10.592,6.192-10.42,9.561
				c0.176,3.44-0.032,16.775-0.041,17.341l-0.018,0.182c-0.745,3.967-0.274,7.172,1.396,9.525c2.211,3.11,5.785,3.686,5.82,3.688
				c0.081,0.012,10.349,1.32,29.942,0.846c7.853-0.188,12.688-1.348,14.373-3.432c1.058-1.307,0.801-2.9,0.527-4.584
				c-0.099-0.613-0.193-1.188-0.222-1.762c-0.039-0.763-0.136-1.949-0.247-3.322c-0.487-6.002-1.304-16.046-0.048-21.398
				c0.389-1.658,0.234-3.029-0.458-4.076c-1.025-1.548-2.962-2.016-3.308-2.086C70.493,60.382,46.193,59.386,34.763,59.967z"/>
		</g>
		<path fill="#020202" d="M32.466,59.604c-8.018,5.199-6.847,33.72-3.24,41.47C28.355,91.823,25.081,66.693,32.466,59.604
			C32.466,59.604,29.124,62.812,32.466,59.604z"/>
		<path fill="#020202" d="M38.06,59.318c-8.019,5.2-6.847,33.72-3.24,41.47C33.949,91.537,30.674,66.408,38.06,59.318
			C38.06,59.318,34.718,62.527,38.06,59.318z"/>
		<path fill="#020202" d="M44.057,60.065c-8.018,5.198-6.848,33.719-3.24,41.47C39.946,92.283,36.671,67.154,44.057,60.065
			C44.057,60.065,40.715,63.273,44.057,60.065z"/>
		<path fill="#020202" d="M47.92,60.219c-2.07,2.648-3.455,12.592-3.656,22.271c-0.164,7.812,0.589,15.44,1.238,18.981
			C45.321,92.187,44.421,66.925,47.92,60.219C47.92,60.219,46.336,63.253,47.92,60.219z"/>
		<path fill="#020202" d="M50.475,60.09c7.725,5.625,5.003,34.039,0.98,41.584C52.828,92.483,57.464,67.57,50.475,60.09
			C50.475,60.09,53.637,63.473,50.475,60.09z"/>
		<path fill="#020202" d="M57.817,59.715c7.725,5.627,5.003,34.041,0.98,41.585C60.17,92.109,64.806,67.198,57.817,59.715
			C57.817,59.715,60.979,63.101,57.817,59.715z"/>
		<path fill="#020202" d="M64.792,59.011c7.723,5.626,5.004,34.04,0.979,41.583C67.144,91.404,71.781,66.492,64.792,59.011
			C64.792,59.011,67.954,62.395,64.792,59.011z"/>
		<path fill="#020202" d="M68.963,58.839c7.935,5.325,6.311,33.821,2.582,41.516C72.562,91.119,76.235,66.045,68.963,58.839
			C68.963,58.839,72.253,62.1,68.963,58.839z"/>
	</g>
</g>
<g>
	<g>
		<polygon fill="#050301" points="210.092,164.74 217.213,168.199 217.447,169.949 167.969,161.664 165.402,159.564 164.469,162.48 
			151.516,163.416 151.994,157.764 163.597,155.84 		"/>
		<path fill="#412B1B" stroke="#020202" stroke-width="1.0502" stroke-miterlimit="10" d="M188.039,76.174l1.592,70.61
			l25.173,20.202l-48.203-8.503l-14.289,1.396c0,0,4.031-55.812-4.148-73.482L188.039,76.174z"/>
		<polygon fill="#050301" points="181.855,103.214 185.307,146.994 195.738,155.562 184.463,147.284 180.172,103.176 		"/>
		
			<rect x="178.883" y="140.362" transform="matrix(0.991 -0.134 0.134 0.991 -17.5017 25.8821)" fill="#2D1B0F" width="9.367" height="5.252"/>
		
			<rect x="178.545" y="132.633" transform="matrix(0.991 -0.1341 0.1341 0.991 -16.4835 25.7932)" fill="#2D1B0F" width="9.365" height="5.251"/>
		
			<rect x="178.065" y="123.872" transform="matrix(0.991 -0.134 0.134 0.991 -15.3011 25.6265)" fill="#2D1B0F" width="9.366" height="5.251"/>
		
			<rect x="177.886" y="114.701" transform="matrix(0.991 -0.1341 0.1341 0.991 -14.0861 25.5454)" fill="#2D1B0F" width="9.364" height="5.251"/>
		
			<rect x="177.753" y="105.888" transform="matrix(0.991 -0.1341 0.1341 0.991 -12.9052 25.448)" fill="#2D1B0F" width="9.364" height="5.251"/>
	</g>
	<g>
		<g>
			<path fill="#D17700" d="M189.041,101.766c0,0,10.52-1.59,8.104-14.465c0,0-0.217-13.826-0.041-17.27
				c0.174-3.443,0.514-10.068-11.43-10.678c-11.94-0.607-37.476,0.484-37.476,0.484s-6.191,1.013-4.678,7.465
				c1.514,6.453-0.121,20.45-0.322,24.425c-0.202,3.976-4.215,10.412,15.716,10.896
				C178.843,103.105,189.041,101.766,189.041,101.766z"/>
			<path fill="#020202" d="M142.912,99.465c-1.654-2.045-1.276-4.383-0.974-6.262c0.09-0.553,0.174-1.074,0.196-1.529
				c0.042-0.795,0.134-1.938,0.251-3.387c0.447-5.491,1.277-15.713,0.098-20.74c-0.528-2.263-0.271-4.2,0.771-5.758
				c1.646-2.463,4.646-2.979,4.771-3l0.126-0.014c0.257-0.011,25.723-1.087,37.576-0.482c13.004,0.662,12.606,8.461,12.437,11.793
				c-0.164,3.226,0.024,15.916,0.043,17.108c0.83,4.519,0.233,8.237-1.771,11.062c-2.729,3.84-7.054,4.533-7.257,4.563
				c-0.103,0.015-10.509,1.347-30.291,0.865c-0.757-0.019-1.498-0.045-2.199-0.081C149.268,103.229,144.89,101.91,142.912,99.465z
				 M148.322,60.898c-0.346,0.072-2.282,0.539-3.308,2.086c-0.694,1.048-0.847,2.418-0.458,4.076
				c1.255,5.354,0.438,15.398-0.049,21.398c-0.111,1.375-0.209,2.561-0.247,3.322c-0.028,0.571-0.122,1.149-0.222,1.762
				c-0.273,1.686-0.529,3.278,0.526,4.585c1.687,2.085,6.521,3.243,14.373,3.433c19.596,0.475,29.863-0.836,29.943-0.847
				c0.035-0.005,3.608-0.578,5.819-3.69c1.672-2.354,2.142-5.559,1.396-9.524l-0.018-0.181c-0.01-0.564-0.218-13.899-0.041-17.34
				c0.172-3.369,0.459-9.008-10.421-9.562C174.19,59.836,149.891,60.832,148.322,60.898z"/>
		</g>
		<path fill="#020202" d="M187.918,60.054c8.018,5.198,6.847,33.718,3.24,41.469C192.027,92.271,195.303,67.143,187.918,60.054
			C187.918,60.054,191.26,63.262,187.918,60.054z"/>
		<path fill="#020202" d="M182.323,59.769c8.019,5.2,6.848,33.72,3.238,41.469C186.434,91.987,189.709,66.858,182.323,59.769
			C182.323,59.769,185.666,62.977,182.323,59.769z"/>
		<path fill="#020202" d="M176.326,60.516c8.018,5.198,6.848,33.717,3.239,41.469C180.437,92.733,183.713,67.604,176.326,60.516
			C176.326,60.516,179.668,63.723,176.326,60.516z"/>
		<path fill="#020202" d="M172.463,60.67c2.07,2.646,3.455,12.591,3.656,22.27c0.164,7.812-0.591,15.439-1.238,18.98
			C175.062,92.637,175.963,67.374,172.463,60.67C172.463,60.67,174.047,63.703,172.463,60.67z"/>
		<path fill="#020202" d="M169.908,60.539c-7.724,5.627-5.004,34.041-0.98,41.584C167.555,92.934,162.92,68.02,169.908,60.539
			C169.908,60.539,166.746,63.924,169.908,60.539z"/>
		<path fill="#020202" d="M162.566,60.166c-7.724,5.626-5.004,34.04-0.979,41.583C160.213,92.559,155.577,67.646,162.566,60.166
			C162.566,60.166,159.404,63.551,162.566,60.166z"/>
		<path fill="#020202" d="M155.592,59.461c-7.723,5.625-5.004,34.041-0.98,41.582C153.24,91.854,148.602,66.941,155.592,59.461
			C155.592,59.461,152.429,62.846,155.592,59.461z"/>
		<path fill="#020202" d="M151.421,59.289c-7.938,5.323-6.312,33.821-2.582,41.516C147.822,91.568,144.148,66.495,151.421,59.289
			C151.421,59.289,148.131,62.55,151.421,59.289z"/>
	</g>
</g>
</svg>
