<?xml version="1.0" encoding="utf-8"?>
<!-- Generator: Adobe Illustrator 15.0.0, SVG Export Plug-In . SVG Version: 6.00 Build 0)  -->
<!DOCTYPE svg PUBLIC "-//W3C//DTD SVG 1.1//EN" "http://www.w3.org/Graphics/SVG/1.1/DTD/svg11.dtd">
<svg version="1.1" id="Layer_1" xmlns="http://www.w3.org/2000/svg" xmlns:xlink="http://www.w3.org/1999/xlink" x="0px" y="0px"
	 width="100.958px" height="39.738px" viewBox="0 0 100.958 39.738" enable-background="new 0 0 100.958 39.738"
	 xml:space="preserve">
<g>
	<g>
		<g>
			<g>
				<g>
					<path fill="#D37C50" d="M9.278,25.34c0,0,8.74,3.199,13.713,3.854c2.739,0.361,16.663-3.236,28.97-3.543
						c10.031-0.25,18.805,2.863,21.094,2.448c5.098-0.923,17.965-6.522,17.965-6.522S58.104-5.563,9.278,25.34z"/>
				</g>
				<g>
					<path fill="#D37C50" d="M90.467,20.209c0,0-30.455-22.068-81.41,4.585c0,0,3.619-19.152,37.314-19.954
						c0,0,2.715,6.122,8.406,0.066C54.777,4.906,82.74-0.109,90.467,20.209z"/>
					<path fill="#020101" d="M9.057,25.594c-0.168,0-0.336-0.053-0.477-0.157c-0.246-0.183-0.367-0.489-0.31-0.791
						c0.039-0.206,1.013-5.099,6.255-10.106c4.77-4.558,14.164-10.079,31.826-10.5c0.312-0.008,0.62,0.18,0.75,0.476
						c0.01,0.02,1.047,2.265,2.994,2.265c1.209,0,2.59-0.815,4.1-2.422c0.117-0.125,0.272-0.209,0.441-0.24
						c0.128-0.022,3.176-0.56,7.565-0.56c8.511,0,23.597,2.126,29.012,16.367c0.126,0.33,0.02,0.703-0.261,0.918
						c-0.281,0.215-0.67,0.221-0.955,0.014c-0.117-0.084-11.912-8.427-32.636-8.427c-15.224,0-31.352,4.397-47.935,13.072
						C9.311,25.564,9.184,25.594,9.057,25.594z M45.898,5.653C19.686,6.426,12.281,18.59,10.414,23.195
						c16.209-8.206,31.994-12.365,46.948-12.365c16.21,0,26.921,4.86,31.321,7.333C82.908,6.913,69.804,5.159,62.202,5.159
						c-3.536,0-6.222,0.369-7.031,0.494c-1.758,1.811-3.464,2.728-5.075,2.728l0,0C47.792,8.38,46.43,6.555,45.898,5.653z"/>
				</g>
			</g>
			<path fill="#020101" d="M23.457,30.418c-0.219,0-0.406-0.01-0.57-0.031c-5.003-0.658-13.523-3.764-13.883-3.895
				c-0.287-0.105-0.488-0.363-0.521-0.666c-0.032-0.303,0.11-0.598,0.368-0.762c15.629-9.892,31.266-14.908,46.476-14.908
				c22.354,0,36.066,11.089,36.203,11.201c0.215,0.178,0.321,0.453,0.283,0.729c-0.039,0.276-0.219,0.512-0.473,0.623
				c-0.529,0.23-13.013,5.648-18.143,6.576c-0.188,0.035-0.4,0.051-0.646,0.051l0,0c-1.067,0-2.742-0.328-4.86-0.746
				c-4.016-0.79-9.618-1.893-15.71-1.74c-7.27,0.182-15.139,1.525-20.885,2.506C27.483,29.973,24.873,30.418,23.457,30.418z
				 M11.114,25.539c2.725,0.938,8.4,2.789,11.982,3.262c0.094,0.012,0.215,0.018,0.361,0.018c1.281,0,3.967-0.459,7.369-1.039
				c5.793-0.99,13.729-2.346,21.114-2.529c6.265-0.156,11.973,0.967,16.059,1.77c2.034,0.4,3.64,0.717,4.552,0.717
				c0.148,0,0.27-0.008,0.362-0.025c4.015-0.727,13.141-4.496,16.509-5.922c-3.595-2.512-15.883-10.033-34.096-10.033
				C40.879,11.756,26.012,16.393,11.114,25.539z"/>
		</g>
		<path opacity="0.25" fill="#FFFFFF" d="M11.047,22.1c0,0,8.934-15.867,34.533-16c0,0,1.467,2.8,4.666,2.667
			c0,0-2.399,1.333-5.199-0.8C42.246,5.833,23.98,9.167,11.047,22.1z"/>
		<path opacity="0.25" fill="#FFFFFF" d="M50.913,9.167c0,0,2.8-1.066,6-2.4c3.2-1.333,19.867-1.866,29.867,9.6
			c0,0-7.567-13.366-31.468-10.266L50.913,9.167z"/>
		<path opacity="0.25" fill="#FFFFFF" d="M11.014,25.9c0,0,38.399-22.9,74.399-6.5c0,0-15.257-4.201-37.757-4.201
			S11.014,25.9,11.014,25.9z"/>
		<path opacity="0.35" fill="#B05C2E" d="M16.014,22.199c0,0,2.4,5.101,6.899,5.601c4.5,0.5,21.601-5.7,25.899-5.7
			c4.301,0,19.701,3.301,19.701,3.301s10.5,1.299,17.299-5.9l3.609,2.289c0,0-11.309,6.311-16.908,6.511
			c-5.601,0.2-17.801-2.7-23.9-2.101c-6.1,0.601-25,3.9-25,3.9s-13.214-3.402-13.7-4C9.428,25.503,14.614,22.5,16.014,22.199z"/>
		<path d="M7.114,17.699c0,0-3,8.813-1.4,11.073c1.6,2.26,8.6,6.327,8.6,6.327s-10.2-3.615-10.2-6.102
			C4.114,26.513,4.514,24.253,7.114,17.699z"/>
		<path d="M87.434,31.088c0,0,7.584-5.4,7.605-8.168c0.022-2.77-3.281-10.16-3.281-10.16s6.166,8.895,4.713,10.911
			S93.373,27.288,87.434,31.088z"/>
		<path d="M25.885,33.952c-1.354,0.5,29.168-8.438,46.334,1.62C72.219,35.572,56.484,22.643,25.885,33.952z"/>
	</g>
	<linearGradient id="SVGID_1_" gradientUnits="userSpaceOnUse" x1="5.6421" y1="26.833" x2="11.7134" y2="26.833">
		<stop  offset="0" style="stop-color:#FFFFFF;stop-opacity:0.4"/>
		<stop  offset="1" style="stop-color:#FFFFFF;stop-opacity:0"/>
	</linearGradient>
	<path fill="url(#SVGID_1_)" d="M6.733,20.5c0,0-1.516,3.572-0.974,7.361c0,0,1.083,2.599,5.954,5.305c0,0-5.413-3.896-5.305-6.604
		S6.733,20.5,6.733,20.5z"/>
</g>
</svg>
