<?xml version="1.0" encoding="utf-8"?>
<!-- Generator: Adobe Illustrator 15.0.0, SVG Export Plug-In . SVG Version: 6.00 Build 0)  -->
<!DOCTYPE svg PUBLIC "-//W3C//DTD SVG 1.1//EN" "http://www.w3.org/Graphics/SVG/1.1/DTD/svg11.dtd">
<svg version="1.1" xmlns="http://www.w3.org/2000/svg" xmlns:xlink="http://www.w3.org/1999/xlink" x="0px" y="0px"
	 width="131.125px" height="52.875px" viewBox="0 0 131.125 52.875" enable-background="new 0 0 131.125 52.875"
	 xml:space="preserve">
<g id="eyes-bottom" display="none">
	<g display="inline">
		<path opacity="0.3" d="M121.01,23.219c1.506-1.201,2.518-2.494,2.971-3.806c0,0,2.992-8.038-12.84-8.477
			c-1.67,0-3.395,0.133-5.125,0.396c-4.43,0.672-8.482,2.124-11.41,4.089c-0.106,0.072-0.203,0.146-0.307,0.218
			c-0.385,2.815-0.369,5.553-0.428,8.319l-0.809,3.592c0,0,19.4,6.6,33.801-5.4l1-1.5C127.863,20.65,125.023,21.883,121.01,23.219z
			 M116.473,22.111c-2.164,1.476-5.182,2.57-8.5,3.081c-1.305,0.201-2.602,0.303-3.857,0.303c-5.023,0-8.772-1.621-9.119-3.941
			c-0.204-1.368,0.828-2.937,2.832-4.304c2.163-1.476,5.182-2.57,8.5-3.082c1.304-0.201,2.602-0.303,3.857-0.303
			c5.023,0,8.773,1.621,9.119,3.942C119.508,19.176,118.477,20.745,116.473,22.111z"/>
	</g>
	<path display="inline" opacity="0.3" d="M28.797,38.217c0,0-9.6,4.667-11.867,11.6c0,0,4-5.334,9.733-5.067
		C26.664,44.75,26.93,39.15,28.797,38.217z"/>
	<path display="inline" opacity="0.3" d="M97.863,31.684c0,0,14.8,7.266,17.8,12.866c0,0-6.532-5.066-9.532-2.866l0.133-2.534
		L97.863,31.684z"/>
	<path display="inline" opacity="0.3" d="M59.863,49.95c0,0,0.8,2.4,6.8,2.4s5.601-3.2,5.601-3.2S68.863,52.75,59.863,49.95z"/>
	<g display="inline">
		<path opacity="0.3" d="M37.855,23.958c-0.059-2.766-0.043-5.504-0.428-8.319c-0.104-0.072-0.199-0.146-0.307-0.218
			c-2.927-1.965-6.98-3.417-11.41-4.089c-1.73-0.263-3.455-0.396-5.126-0.396C4.754,11.375,7.746,19.413,7.746,19.413
			c0.454,1.312,1.465,2.605,2.972,3.806c-4.014-1.336-6.854-2.569-6.854-2.569l1,1.5c14.4,12,33.799,5.4,33.799,5.4L37.855,23.958z
			 M37.168,21.554c-0.346,2.321-4.095,3.941-9.118,3.941c-1.256,0-2.554-0.102-3.858-0.303c-3.318-0.511-6.336-1.605-8.5-3.081
			c-2.004-1.367-3.036-2.936-2.832-4.304c0.346-2.321,4.096-3.942,9.119-3.942c1.256,0,2.554,0.102,3.857,0.303
			c3.318,0.511,6.337,1.605,8.5,3.082C36.34,18.617,37.373,20.186,37.168,21.554z"/>
	</g>
	<g display="inline">
		<path fill="#020101" d="M-20.622,3.655c0,0,0.158-0.483-0.01-0.002C-20.626,3.655-20.622,3.655-20.622,3.655z"/>
		<path fill="#020101" d="M95.141,30.257c-0.418-0.712-0.509-1.462-0.501-1.995c20.408,4.772,33.39-6.589,33.39-6.589
			c-13.782,9.923-29.795,5.903-33.316,4.841l0.02-3.404c0.26,0.421,0.607,0.812,1.036,1.171c1.895,1.169,4.694,2.47,12.405,2.177
			c0.197-0.025,0.395-0.049,0.592-0.079c3.545-0.537,6.787-1.699,9.129-3.271c1.678-1.126,2.77-2.384,3.213-3.661
			c0,0,0.23-1.512,0.184-1.82c-0.451-2.968-4.652-4.962-10.455-4.962c-1.337,0-2.717,0.106-4.102,0.316
			c-3.544,0.538-6.785,1.699-9.127,3.271c-1.335,0.896-2.291,1.875-2.852,2.879l0.055-9.398l-2.059,17.44
			c-0.352,1.622-0.047,5.118,3.648,6.533c3.609,1.383,11.872,6.504,10.908,10.972l-0.02,0.093
			c-0.348,2.892-8.758,0.197-14.992,0.021l-2.868,0.834c-0.191-0.01-10.679,2.823-22.679,3.595c0,0,0-0.001,0-0.001
			c-13,0.006-22.271-2.359-22.464-2.338l-3.146-0.667c-6.215,0.52-14.502,3.673-15.01,0.805l-0.044-0.092
			c-1.208-4.408,6.75-9.977,10.278-11.556c3.612-1.616,3.72-5.124,3.279-6.724l-3.019-17.3l0.44,7.241
			c-0.578-0.814-1.415-1.604-2.508-2.338c-2.343-1.572-5.584-2.734-9.128-3.271c-1.385-0.21-2.764-0.316-4.102-0.316
			c-12.665,0.351-10.271,6.782-10.271,6.782c0.442,1.277,1.535,2.535,3.212,3.661c2.343,1.572,5.584,2.734,9.129,3.271
			c0.197,0.03,0.394,0.053,0.591,0.079c8.573,0.326,10.184-1.402,12.406-2.177c0.386-0.323,0.701-0.676,0.952-1.051l0.218,3.58
			c-3.439,1.226-17.395,5.271-31.357-3.837c0,0,11.501,11.171,31.467,5.641l0.032,0.533c0.054,0.202,0.331,1.421-0.231,2.611
			c-1.382,0.58-15.498,6.665-18.909,14.908c0,0,4.812-5.168,10.63-9.059c-3.256,2.727-5.99,6.315-5.062,9.812
			c0.563,2.984,3.335,3.635,7.594,2.132c2.267-0.8,8.933-2.266,8.933-2.266c0.202-0.023,12.231,3.089,24.95,3.254
			c0.002,0.021,0.003,0.041,0.004,0.062c12.992-0.755,26.932-4.776,27.139-4.765c0,0,6.736,1.099,9.043,1.772
			c4.336,1.266,7.067,0.463,7.466-2.547c0.916-4.417-3.86-8.662-8.15-11.227c7.171,3.571,13.939,10.313,13.939,10.313
			C111.611,36.645,98.295,31.408,95.141,30.257z M97.828,17.25c2.163-1.476,5.182-2.57,8.5-3.082
			c1.304-0.201,2.602-0.303,3.857-0.303c5.023,0,8.773,1.621,9.119,3.942c0.203,1.368-0.828,2.937-2.832,4.304
			c-2.164,1.476-5.182,2.57-8.5,3.081c-1.305,0.201-2.602,0.303-3.857,0.303c-5.023,0-8.772-1.621-9.119-3.941
			C94.792,20.186,95.824,18.617,97.828,17.25z M37.168,21.554c-0.346,2.321-4.095,3.941-9.118,3.941
			c-1.256,0-2.554-0.102-3.858-0.303c-3.318-0.511-6.336-1.605-8.5-3.081c-2.004-1.367-3.036-2.936-2.832-4.304
			c0.346-2.321,4.096-3.942,9.119-3.942c1.256,0,2.554,0.102,3.857,0.303c3.318,0.511,6.337,1.605,8.5,3.082
			C36.34,18.617,37.373,20.186,37.168,21.554z"/>
	</g>
</g>
<g id="eyes-lids" display="none">
	<g display="inline">
		<g>
			<path fill="#020101" d="M121.553,4.72c-8.526-3.795-49.453-3.898-55.54-2.493C59.926,0.822,19,0.925,10.474,4.72
				c-2.362,1.052-0.585,14.1-0.585,14.1l52.861,0.346c0,0.019,0,0.035,0,0.035l2.5-0.018l2.5,0.018c0,0,0-0.016,0-0.035
				l53.625-0.346C121.375,18.82,123.915,5.772,121.553,4.72z"/>
		</g>
		<g>
			<path fill="#B05C2E" d="M121.553,3.72c-8.526-3.795-49.453-3.898-55.54-2.493C59.926-0.178,19-0.075,10.474,3.72
				c-2.362,1.052-0.585,14.1-0.585,14.1l52.861,0.346c0,0.019,0,0.035,0,0.035l2.5-0.018l2.5,0.018c0,0,0-0.016,0-0.035
				l53.625-0.346C121.375,17.82,123.915,4.772,121.553,3.72z"/>
		</g>
	</g>
</g>
<g id="eyes-front">
	<path fill="#B05C2E" d="M37.365,20.037c0,0-0.577-5.324-1.97-7.036c-1.393-1.713-16.053-2.096-24.47,1.892
		c-2.193,1.039-1.492,4.126-1.492,4.126L0.75,22.583V1.25h48l-1.925,19.728L37.365,20.037z"/>
	<path fill="#020101" d="M36.964,19.618c-0.006-0.05-0.561-5.008-1.871-6.617c-1.257-1.546-15.763-1.809-24.024,2.104
		c-1.876,0.889-0.974,3.716-0.965,3.744l-0.687,0.227c-0.395-1.192-0.621-3.694,1.342-4.624c8.483-4.019,23.298-3.871,24.895-1.907
		c1.444,1.774,2.005,6.783,2.028,6.996L36.964,19.618z"/>
	<path fill="#B05C2E" d="M94.135,21.037c0,0,0.577-5.324,1.97-7.036c1.393-1.713,16.053-2.096,24.47,1.892
		c2.193,1.039,1.492,4.126,1.492,4.126l8.683,3.564V2.25h-48l1.925,19.728L94.135,21.037z"/>
	<path fill="#020101" d="M94.536,20.618c0.006-0.05,0.561-5.008,1.871-6.617c1.257-1.546,15.763-1.809,24.024,2.104
		c1.876,0.889,0.974,3.716,0.965,3.744l0.687,0.227c0.395-1.192,0.621-3.694-1.342-4.624c-8.483-4.019-23.298-3.871-24.895-1.907
		c-1.444,1.774-2.005,6.783-2.028,6.996L94.536,20.618z"/>
	<path fill="#020101" d="M97.111,31.841c-2.955-1.131-2.471-3.958-2.404-4.278l0.104-17.829l-2.059,17.44
		c-0.352,1.622-0.047,5.118,3.648,6.533c3.609,1.383,11.872,6.504,10.908,10.972l-0.02,0.093c-0.348,2.892-8.758,0.197-14.992,0.021
		l-2.868,0.834c-0.191-0.01-10.679,2.823-22.679,3.595c0,0,0-0.001,0-0.001c-13,0.006-22.271-2.359-22.464-2.338l-3.146-0.667
		c-6.215,0.52-14.502,3.673-15.01,0.805l-0.044-0.092c-1.208-4.408,6.75-9.977,10.278-11.556c3.612-1.616,3.72-5.124,3.279-6.724
		l-3.019-17.3l1.082,17.796c0.084,0.315,0.725,3.112-2.164,4.404c-4.236,1.892-12.964,8.008-11.408,13.868
		c0.563,2.984,3.335,3.635,7.594,2.132c2.267-0.8,8.933-2.266,8.933-2.266c0.202-0.023,12.231,3.089,24.95,3.254
		c0.002,0.021,0.003,0.041,0.004,0.062c12.992-0.755,26.932-4.776,27.139-4.765c0,0,6.736,1.099,9.043,1.772
		c4.336,1.266,7.067,0.463,7.466-2.547C110.496,39.124,101.444,33.497,97.111,31.841z"/>
	<path fill="#B05C2E" d="M36.626,11.35l3.019,17.3c0.44,1.6,0.333,5.108-3.279,6.724c-3.528,1.58-11.486,7.148-10.278,11.556
		l0.044,0.092c0.508,2.868,8.795-0.285,15.01-0.805l3.146,0.667c0.193-0.021,9.464,2.344,22.464,2.338c0,0,0,0.001,0,0.001
		c12-0.772,22.487-3.605,22.679-3.595l2.868-0.834c6.234,0.176,14.645,2.872,14.992-0.021l0.02-0.093
		c0.964-4.468-7.299-9.589-10.908-10.972c-3.695-1.415-4-4.912-3.648-6.533l2.059-17.44L36.626,11.35z"/>
	<g>
		<linearGradient id="SVGID_1_" gradientUnits="userSpaceOnUse" x1="47.2637" y1="27.9897" x2="84.2637" y2="27.9897">
			<stop  offset="0" style="stop-color:#FFFFFF;stop-opacity:0.4"/>
			<stop  offset="1" style="stop-color:#FFFFFF;stop-opacity:0"/>
		</linearGradient>
		<path fill="url(#SVGID_1_)" d="M47.264,32.15c0,0,19-11.2,37-2.4C84.264,29.75,66.062,14.95,47.264,32.15z"/>
		<path opacity="0.3" d="M49.463,19.35c0,0-9.6,4-9.8,11L36.9,17.562L49.463,19.35z"/>
		<path opacity="0.3" d="M83.463,14.95c0,0,9.801,3,10.801,15.6l0.267-16.733L83.463,14.95z"/>
	</g>
</g>
</svg>
