<?xml version="1.0" encoding="utf-8"?>
<!-- Generator: Adobe Illustrator 15.0.0, SVG Export Plug-In . SVG Version: 6.00 Build 0)  -->
<!DOCTYPE svg PUBLIC "-//W3C//DTD SVG 1.1//EN" "http://www.w3.org/Graphics/SVG/1.1/DTD/svg11.dtd">
<svg version="1.1" id="Layer_1" xmlns="http://www.w3.org/2000/svg" xmlns:xlink="http://www.w3.org/1999/xlink" x="0px" y="0px"
	 width="79.681px" height="63.851px" viewBox="0 0 79.681 63.851" enable-background="new 0 0 79.681 63.851" xml:space="preserve">
<g>
	<path opacity="0.3" d="M18.213,23.1c-19.1,14.9-7.199,36.4-7.199,36.4c-16.801-19.4,4.199-37,4.199-37c-3.6-9.4,9.9-12,9.9-12
		s-5.7,3-7.4,5.8C16.014,19.1,18.213,23.1,18.213,23.1z"/>
	<linearGradient id="SVGID_1_" gradientUnits="userSpaceOnUse" x1="22.7803" y1="15.9629" x2="43.0469" y2="15.9629">
		<stop  offset="0" style="stop-color:#FFFFFF;stop-opacity:0.4"/>
		<stop  offset="1" style="stop-color:#FFFFFF;stop-opacity:0"/>
	</linearGradient>
	<path opacity="0.6" fill="url(#SVGID_1_)" d="M22.78,19.033c0,0,3.733-6.933,20.267-0.8C43.047,18.233,26.514,5.7,22.78,19.033z"/>
	<linearGradient id="SVGID_2_" gradientUnits="userSpaceOnUse" x1="17.9805" y1="26.6582" x2="38.5137" y2="26.6582">
		<stop  offset="0" style="stop-color:#FFFFFF;stop-opacity:0.4"/>
		<stop  offset="1" style="stop-color:#FFFFFF;stop-opacity:0"/>
	</linearGradient>
	<path opacity="0.44" fill="url(#SVGID_2_)" d="M17.98,26.766c0,0,4.266-3.2,20.533,1.867C38.514,28.633,25.713,21.167,17.98,26.766
		z"/>
	<g>
		<g>
			<path fill="#020101" d="M11.617,33.38c0,0,3.031-6.974,21.1-3.693C32.717,29.687,12.929,23.657,11.617,33.38z"/>
			<path fill="#020101" d="M22.225,23.201c0,0,5.962-4.93,19.668-2.606C41.893,20.594,29.33,13.349,22.225,23.201z"/>
			<path d="M51.957,2.76c0,0-7.348-5.454-14.127,3.357C37.83,6.118,43.254,1.134,51.957,2.76z"/>
			<path d="M10.352,45.483c-0.286-7.237,1.59-15.737,9.889-21.63c0,0-10.736-9.384,13.379-16.361c0,0-22.93,4.949-16.018,15.543
				c0,0-13.066,7.661-10.951,21.917c-0.203-0.048-0.305-0.077-0.305-0.077c0.293,18.808,10.678,18.199,10.678,18.199
				s43.619-4.512,48.791-6.625s8.356-24.266,8.356-24.266C37.906,45.695,18.158,46.154,10.352,45.483z"/>
		</g>
		<g>
			
				<linearGradient id="SVGID_3_" gradientUnits="userSpaceOnUse" x1="-896.3179" y1="867.4541" x2="-886.645" y2="867.4541" gradientTransform="matrix(0.6042 0.7559 0.8793 -0.4708 -167.0605 1126.2644)">
				<stop  offset="0" style="stop-color:#FFFFFF;stop-opacity:0.4"/>
				<stop  offset="1" style="stop-color:#FFFFFF;stop-opacity:0"/>
			</linearGradient>
			<polygon opacity="0.41" fill="url(#SVGID_3_)" points="47.32,46.746 50.678,44.283 52.945,44.8 54.973,43.67 58.629,41.202 
				59.578,43.695 61.68,43.604 65.113,41.476 66.295,44.271 65.568,39.711 61.659,42.32 58.988,38.843 52.534,43.949 50.01,42.549 
							"/>
			
				<linearGradient id="SVGID_4_" gradientUnits="userSpaceOnUse" x1="-891.3433" y1="855.2832" x2="-881.6714" y2="855.2832" gradientTransform="matrix(0.6042 0.7559 0.8793 -0.4708 -167.0605 1126.2644)">
				<stop  offset="0" style="stop-color:#FFFFFF;stop-opacity:0.4"/>
				<stop  offset="1" style="stop-color:#FFFFFF;stop-opacity:0"/>
			</linearGradient>
			<polygon opacity="0.41" fill="url(#SVGID_4_)" points="39.625,56.236 42.982,53.771 45.25,54.289 47.277,53.16 50.933,50.691 
				51.883,53.186 53.984,53.094 57.418,50.965 58.6,53.761 57.873,49.201 53.963,51.811 51.293,48.332 44.838,53.439 42.314,52.039 
							"/>
			
				<linearGradient id="SVGID_5_" gradientUnits="userSpaceOnUse" x1="-897.7466" y1="833.8223" x2="-888.0747" y2="833.8223" gradientTransform="matrix(0.6042 0.7559 0.8793 -0.4708 -167.0605 1126.2644)">
				<stop  offset="0" style="stop-color:#FFFFFF;stop-opacity:0.4"/>
				<stop  offset="1" style="stop-color:#FFFFFF;stop-opacity:0"/>
			</linearGradient>
			<polygon opacity="0.41" fill="url(#SVGID_5_)" points="16.886,61.5 20.242,59.035 22.51,59.554 24.538,58.424 28.193,55.955 
				29.143,58.449 31.245,58.357 34.678,56.229 35.859,59.024 35.133,54.465 31.225,57.074 28.554,53.596 22.1,58.703 19.576,57.303 
							"/>
			
				<linearGradient id="SVGID_6_" gradientUnits="userSpaceOnUse" x1="-904.0337" y1="841.1367" x2="-894.3618" y2="841.1367" gradientTransform="matrix(0.6042 0.7559 0.8793 -0.4708 -167.0605 1126.2644)">
				<stop  offset="0" style="stop-color:#FFFFFF;stop-opacity:0.4"/>
				<stop  offset="1" style="stop-color:#FFFFFF;stop-opacity:0"/>
			</linearGradient>
			<polygon opacity="0.41" fill="url(#SVGID_6_)" points="19.518,53.304 22.875,50.84 25.143,51.357 27.171,50.229 30.826,47.76 
				31.775,50.253 33.877,50.162 37.311,48.033 38.492,50.828 37.766,46.269 33.857,48.878 31.186,45.4 24.73,50.508 22.207,49.107 
							"/>
		</g>
	</g>
</g>
</svg>
