<?xml version="1.0" encoding="utf-8"?>
<!-- Generator: Adobe Illustrator 15.0.0, SVG Export Plug-In . SVG Version: 6.00 Build 0)  -->
<!DOCTYPE svg PUBLIC "-//W3C//DTD SVG 1.1//EN" "http://www.w3.org/Graphics/SVG/1.1/DTD/svg11.dtd">
<svg version="1.1" id="Layer_1" xmlns="http://www.w3.org/2000/svg" xmlns:xlink="http://www.w3.org/1999/xlink" x="0px" y="0px"
	 width="94.445px" height="49.305px" viewBox="0 0 94.445 49.305" enable-background="new 0 0 94.445 49.305" xml:space="preserve">
<path opacity="0.24" enable-background="new    " d="M88.812,23.404c-12.67,21.587-27.337,8.322-41.245,9.688
	c-1.639,0.238-3.278,0.482-4.918,0.711c-11.477,1.609-22.968,2.472-34.409-5.482c-1.787-1.516-2.767-3.162-2.767-4.884
	c0-1.504,0.746-2.948,2.124-4.298c11.324-8.411,22.804-8.856,34.229-8.595c1.428,0.034,2.855,0.079,4.281,0.128
	c13.145,2.482,26.479,5.135,39.852,8.054C87.8,20.028,88.812,21.654,88.812,23.404z"/>
</svg>
