<?xml version="1.0" encoding="utf-8"?>
<!-- Generator: Adobe Illustrator 15.0.0, SVG Export Plug-In . SVG Version: 6.00 Build 0)  -->
<!DOCTYPE svg PUBLIC "-//W3C//DTD SVG 1.1//EN" "http://www.w3.org/Graphics/SVG/1.1/DTD/svg11.dtd">
<svg version="1.1" id="Layer_1" xmlns="http://www.w3.org/2000/svg" xmlns:xlink="http://www.w3.org/1999/xlink" x="0px" y="0px"
	 width="1001.95px" height="883.457px" viewBox="0 0 1001.95 883.457" enable-background="new 0 0 1001.95 883.457"
	 xml:space="preserve">
<g id="Layer_9" display="none">
	<g display="inline">
		<g>
			<path fill="#382610" d="M324.804,877.744c-4.48,0-7.375-1.461-8.602-4.344c-1.906-4.48,2.026-8.492,3.319-9.812
				c0.876-0.889,21.229-21.342,36.529-26.403c0.927-0.308,1.962-0.632,3.096-0.988c16.611-5.226,51.175-16.101,69.223-67.566
				c1.198-3.684,2.354-7.037,3.439-10.176c5.65-16.357,9.062-26.238,10.576-62.152c-0.037-13.895-7.564-73.207-42.008-92.953
				c-14.205-6.842-38.069-19.752-39.707-29.913c-1.334-8.277-4.806-16.171-5.975-17.669c-0.324-0.329-0.649-0.729-1.204-1.405
				c-15.965-19.515-41.173-36.984-72.898-50.529c-22.394-8.199-52.646-31.244-59.162-49.26l-14.405-18.588l44.29-20.292l1.901,5.223
				c0.147,0.403,15.245,40.738,46.88,49.892c8.47,1.285,21.744,3.697,29.307,5.097c0.027-5.685-0.727-13.529-3.975-18.369
				c-16.191-17.022-20.823-30.719-13.769-40.721l0.328-0.468l0.424-0.382c0.414-0.374,0.818-0.759,1.221-1.143
				c2.474-2.354,5.862-5.577,10.945-5.577c2.884,0,5.802,1.031,8.908,3.151c1.506,0.781,2.62,2.077,3.175,3.72
				c1.115,3.293-0.425,7.234-2.188,10.29c0.058,1.567,0.749,5.641,5.708,10.993c9.659,10.422,17.676,34.917,19.225,44.988
				c0.536,1.89,1.49,4.029,9.792,6.777c10.592,3.504,29.807,26.104,34.057,31.221c2.53,2.388,7.685,6,11.343,6
				c3.959,0,5.734-6.106,6.529-11.354c0.646-22.32-2.196-66.07-2.534-71.168c-1.467-5.448-16.033-58.236-33.712-75.46l-0.612-0.599
				l-8.066-16.014l49.695-5.639l1.452,3.619c5.307,13.212,20.915,49.55,29.466,59.249c0.466,0.499,0.926,1.154,1.82,2.436
				c0.705,1.006,1.362,1.924,1.975,2.755c-0.184-1.232-0.42-2.658-0.731-4.302c-7.969-13.655-23.413-51.063-24.079-52.681
				l-2.95-7.155l55.58,0.927l0.799,4.047c5.057,25.583,13.185,55.428,17.537,59.194c0.83,0.599,2.012,1.428,2.709,1.428
				c0.291,0,3.021-0.25,8.521-8.855c10.031-15.702,20.719-35.896,21.979-45.612l0.562-4.312l61.418-1.834l-3.445,7.466
				c-0.258,0.562-25.949,56.278-29.842,68.571c-3.406,10.764-5.891,44.753-6.305,51.686c0.787,1.049,2.992,3.34,7.166,3.34
				c1.229,0,2.557-0.197,3.953-0.586c1.584-0.633,3.709-1.681,6.146-2.883c7.156-3.531,16.957-8.365,25.771-8.668
				c7.629-0.255,16.061,3.471,22.76,6.45c2.787,1.242,6.604,2.941,7.83,3.023c0.445,0.027,0.914,0.066,1.398,0.106
				c1.105,0.093,2.25,0.187,3.438,0.187c3.846,0,9.076-0.984,15.43-8.641c10.285-12.4,35.871-38.527,36.955-39.635l2.953-3.012
				l30.412,19.779l-29.469,26.104l-0.787,0.328c-4.258,1.791-8.764,4.646-10.25,6.396c0.037,0.022,0.074,0.049,0.111,0.071
				c7.029-0.578,21.521-0.891,24.939-0.957c2.336-0.771,12.553-4.801,19.334-17.985l1.352-2.625l50.99-2.531l-15.594,10.266
				c-11.361,7.479-24.168,16.972-29.217,21.961c0.988,0.136,2.264,0.232,3.859,0.232c5.648,0,12.188-1.238,15.896-3.004
				c6.826-3.252,24.65-10.383,33.158-10.383c7.049,0,8.107,4.899,8.252,5.883c0.77,5.373-0.449,14.139-6.445,21.149
				c-6.725,7.865-17.703,12.015-32.633,12.334l-0.564,0.011l-0.553-0.109c-6.24-1.24-48.516-3.141-76.992-4.182
				c-3.516,3.752-11.885,10.797-25.158,10.797c-1.76,0-3.564-0.125-5.371-0.377c-8.684-1.207-16.039-1.82-21.861-1.82
				c-8.199,0-10.305,1.236-10.518,1.377c-2.658,1.758-25.736,18.515-27.365,70.267c3.387,3.588,6.391,6.098,15.299,6.098
				c1.162,0,2.418-0.047,3.729-0.137c14.473-1.002,24.199-5.849,34.701-17.281l1.414-1.539l50.305-2.773l-3.674,7.736
				c-0.523,1.104-13.168,27.223-40.461,40.961c-35.547,17.894-43.219,29.256-43.395,35.641c-0.34,12.115,1.584,76.947,1.811,84.535
				c3.668,11.213,14.598,39.615,24.707,47.011l0.52,0.381l0.408,0.494c2.492,3.022,14.488,16,20.762,22.735
				c3.297,2.463,30.986,22.693,53.521,24.931c5.266,0.551,8.887,4.147,8.83,8.752c-0.061,5.291-5.229,11.039-16.627,11.957
				l-2.885,0.235c-6.686,0.556-15,1.244-23.539,1.244c-10.436,0-19.068-1.021-26.393-3.123c-4.438-1.406-14.316-2.854-24.174-2.854
				c-10.771,0-14.965,1.684-16.268,2.408c-9.506,5.282-30.758,11.985-41.092,11.985c-0.422,0-0.826-0.01-1.215-0.028
				c-1.398,0.178-5.158,0.586-10.084,0.586c-7.146,0-17.584-0.882-26.723-5.086c-5.062-2.33-14.271-3.611-25.926-3.611
				c-11.953,0-22.301,1.311-24.257,1.891c-4.294,1.785-21.492,4.838-29.021,4.838c-0.966,0-1.791-0.045-2.521-0.135l-0.69-0.084
				c-5.859-0.719-13.824-1.695-26.628-8.211c-1.556-0.002-3.528-0.063-6.088-0.16c-3.544-0.129-7.953-0.291-12.891-0.291
				c-11.024,0-20.277,0.814-28.287,2.486c-4.82,1.008-10.816,2.531-17.166,4.143C344.971,874.404,331.807,877.744,324.804,877.744z"
				/>
		</g>
		<path fill="#93600F" d="M323.202,868.042c0,0,20.17-20.537,34.472-25.305c14.302-4.769,55.375-14.304,75.545-72.244
			c7.701-23.836,12.469-30.438,14.304-74.445c0-12.102-6.97-76.645-44.74-98.281c0,0-35.572-17.235-37.039-26.403
			c-1.467-9.168-5.501-18.703-7.334-20.537s-21.27-30.07-75.912-53.541c-22.003-8.068-51.341-31.172-56.475-47.31l-11.001-14.301
			l33.372-15.4c0,0,15.769,43.64,50.608,53.542c12.102,1.832,35.205,6.231,35.205,6.231s2.201-17.969-4.767-27.871
			c-6.968-7.334-21.27-23.836-13.569-34.838c4.034-3.667,7.335-8.435,15.036-2.934c2.934,1.1-1.467,8.065-1.467,8.065
			s-1.467,6.97,6.968,16.138c8.435,9.168,16.502,32.637,17.969,42.904c1.1,4.035,3.3,7.334,13.202,10.638
			c9.901,3.299,31.902,30.069,31.902,30.069s22.371,22.002,26.771-8.436c0.733-24.203-2.567-72.979-2.567-72.979
			s-15.4-59.407-35.206-78.845l-4.4-8.802l38.506-4.4c0,0,19.437,48.774,30.438,61.243c1.467,1.467,18.336,29.705,11.733-4.401
			c-7.701-12.835-24.204-53.175-24.204-53.175l43.642,0.733c0,0,11.001,56.108,19.437,62.71c4.033,2.934,9.166,6.234,18.703-8.801
			c9.535-15.036,21.27-36.672,22.736-48.041l48.771-1.468c0,0-26.037,56.843-30.068,69.678c-4.033,12.835-6.604,53.542-6.604,54.642
			c0,1.101,5.502,10.271,17.971,6.603c6.604-2.568,19.805-11.003,30.439-11.369c10.635-0.367,24.57,9.168,30.072,9.535
			c5.5,0.366,14.303,2.198,24.568-10.271c10.27-12.467,36.67-39.604,36.67-39.604l21.271,13.935l-23.836,21.271
			c0,0-23.473,9.899-9.168,16.502c6.6-0.734,26.77-1.103,26.77-1.103s14.305-3.666,23.105-20.902l29.338-1.467
			c0,0-33.738,22.369-33.371,27.871c0.367,5.5,19.803,4.769,28.971,0.367c9.168-4.402,33.373-13.57,34.105-8.437
			c0.73,5.135,0,27.138-34.105,27.871c-9.168-1.834-80.311-4.399-80.311-4.399s-9.168,13.201-27.504,10.635
			c-18.336-2.568-31.539-2.568-35.939,0.367c-4.4,2.934-28.604,22.002-29.705,77.012c4.768,5.133,8.801,10.269,24.57,9.168
			c15.77-1.102,26.771-6.602,38.139-19.069l39.607-2.199c0,0-12.105,25.67-38.141,38.873
			c-26.035,13.201-45.842,27.137-46.207,40.338c-0.367,13.203,1.834,86.182,1.834,86.182s12.834,40.338,26.77,50.607
			c3.299,4.033,21.271,23.471,21.271,23.471s30.805,23.836,56.475,26.402c6.969,0.731,5.869,9.535-7.699,10.637
			c-13.57,1.1-34.473,3.299-50.975-1.467c-9.168-2.937-35.207-5.135-44.375,0c-9.168,5.133-31.172,12.1-39.975,11.367
			c0,0-19.438,2.934-34.473-4.033c-15.035-6.969-50.974-3.301-54.275-1.834s-23.104,5.133-28.971,4.397
			c-5.867-0.731-13.569-1.467-26.771-8.434c-5.501,0.367-28.604-2.201-49.507,2.201
			C352.906,867.308,310.366,881.244,323.202,868.042z"/>
		<path opacity="0.25" enable-background="new    " d="M562.688,715.222c-0.162,41.066,21.266,81.441,9.137,120.369
			c8.639,15.863,32.545,3.164,47.965,9.441c-19.91,1.557-53.875,29.563-66.238,2.358c14.072-60.069,7.088-135.285-6.852-191.174
			c16.531-11.457,19.842-59.896,2.283-73.166c0.295,4.238-2.268,5.523-6.852,4.721c0-5.508,2.271-69.864,18.271-80.245
			c17.062-11.07,40.287-5.793,61.582-4.441c-0.652-2.83-1.119-5.717-1.406-8.641c-18.367,0.08-38.504-1.888-53.324-1.078
			c13.98-8.662,35.184-13.433,52.986-9.213c0.006-0.201,0.023-0.4,0.033-0.603c-10.008-3.043-20.91-7.02-32.463-4.348
			c-8.812,2.039-10.824,11.029-22.842,9.438c-4.023-2.131-7.07-5.276-9.135-9.438c-1.574-41.65,10.146-69.567,23.318-95.979
			c-13.945-1.153-28.057-1.871-43.879,1.824c-4.002,13.208-16.168,28.63-25.121,35.149c-11.579-4.068-15.483-16.066-17.399-30.117
			c-12.66-0.929-25.317-3.766-37.488-7.714c5.271,11.122,10.022,22.779,11.49,37.831c-17.707-8.034-25.084-26.742-32.276-45.641
			c-5.274-2.49-11.854-6.101-18.441-2.696c-3.872,2.5-7.744,4.479-11.672,6.133c15.378,29.105,16.733,72.706,39.551,94.127
			c-1.55-8.625-3.186-17.162-2.283-28.322c13.33,16.859,36.826,10.197,54.816,2.361c9.988,39.578-18.7,59.235-22.839,92.045
			c12.134,6.551,2.063,25.562,8.364,34.444c0.261,0.302,0.521,0.601,0.771,0.957c-0.284-0.303-0.535-0.623-0.771-0.957
			c-5.499-6.354-13.74-0.508-19.784,3.318c19.892,24.654,30.083,80.594,18.271,122.729c1.562-37.019-7.47-63.086-15.989-89.688
			c-6.229-1.719-4.598,4.689-9.136,4.719c0.031-4.688,6.232-3,4.569-9.438c-17.264-16.777-43.439-24.346-61.669-40.125
			c-0.521,4.182,2.303,11.82-4.568,9.438c-0.946-6.157-1.774-12.438-2.901-18.411c-0.066-0.353-0.133-0.701-0.202-1.052
			c-5.388-4.789-12.723-3.321-18.59-1.854c4.401-5.867,11.735-1.467,16.691-6.256c-0.091-0.326-0.185-0.648-0.28-0.972
			c-1.24-4.178-2.797-8.024-4.857-11.354c-0.172-0.275-0.347-0.549-0.525-0.818c-0.76-1.135-2.227-2.602-3.64-4.43
			c-0.211-0.221-0.437-0.438-0.669-0.648c-1.636-1.485-3.484-2.754-5.582-3.764c-0.184,0.262-0.382,0.504-0.594,0.736
			c-0.212,0.229-0.439,0.444-0.679,0.646c-0.355,0.039-0.702,0.062-1.041,0.076c-28.162-17.223-57.5-27.49-89.771-37.758
			c-4.401-1.467-8.801-5.869-8.801-13.203c0,7.334,4.4,11.736,8.801,13.203c26.404,13.201,63.077,13.201,80.458,40.813
			c-0.116,0.195-0.271,0.373-0.45,0.537c-19.866-7.612-37.469-20.815-59.472-23.75c17.603,4.4,39.606,10.271,51.341,26.404
			c0,0-1.467,0-1.271-0.148c-0.324,0.037-0.635,0.064-0.933,0.086c-0.89,0.062-1.646,0.062-2.197,0.062
			c-1.467,1.467,2.934,2.934,1.876,5.23c-0.022,0.194-0.044,0.395-0.06,0.598c-0.021,0.205-0.038,0.412-0.048,0.625
			c4.598,4.84,9.332-3.188,14.593-6.17c0.307-0.178,0.614-0.338,0.92-0.486c1.789-1.264,3.256-1.264,4.47-1.082
			c0.248,0.119,0.469,0.25,0.679,0.408c1.001,0.732,1.696,2.053,2.351,3.232c0.083,0.213,0.14,0.414,0.191,0.608
			c3.295,12.562-11.662,6.258-11.784,15.289c2.506,33.67,34.291,38.781,50.248,51.924c57.878,47.664,37.924,183.732-13.704,221.855
			c-21.209,15.662-54.418,12.348-68.521,44.844c33.335,0.252,64.958-7.639,95.93-4.721c31.974,3.014,57.423-0.699,86.793,0
			c13.312,0.315,24.254,5.799,36.543,7.082c24.246,2.526,40.875-9.83,66.236-11.804c30.928-2.405,66.008,15.398,95.932-2.358
			c-25.416-19.781-53.977-20.265-73.09-40.123c-29.912-31.074-42.578-91.703-38.826-155.771c1.492-2.278,3.096-4.448,4.773-6.539
			c-2.424-7.786-3.973-15.831-4.758-24.012C574.321,647.966,562.838,677.125,562.688,715.222z M441.634,436.723
			c-4.018,0.569-5.207,4.062-4.566,9.441c-6.592-20.912-16.788-50.058-20.558-66.083c19.019,20.472,16.933,62.75,47.964,70.804
			C456.27,456.121,445.947,443.353,441.634,436.723z M562.688,396.601c-7.656,18.051-18.533,32.771-34.262,42.482
			C534.911,429.235,551.5,409.448,562.688,396.601z M528.426,743.546c-0.447,19.99,3.139,44.148-13.705,47.201
			c-6.906-21.555,2.408-43.959,6.855-61.363c4.117,0.351-4.564,26.156-4.568,37.763C525.36,766.341,527.426,736.503,528.426,743.546
			z M487.314,424.923c-3.165,3.811-6.473,7.476-9.138,11.8c-0.931-4.98,4.615-23.487,2.285-37.763
			c13.404,11.326,12.3,37.64,34.257,40.123c1.324,7.663-1.555,10.981-2.279,16.52C509.229,440.04,494.439,436.441,487.314,424.923z
			 M478.178,830.873c-2.046-18.637,3.316-29.617,6.854-42.484c5.146,11.521-10.522,31.023,0,42.484
			c12.919,3.412,28.892-3.047,38.83,7.08c7.398-8.086,9.791-21.353,9.137-37.764c-5.08,19.694-23.518,26.002-38.831,11.801
			c-16.242-32.301,10.967-57.246,15.991-96.769c4.68-36.84-3.381-67.858-9.137-106.207c14.731,13.9,6.219,64.361,25.125,66.086
			c8.27,30.861-38.478,94.229-29.694,127.447c10.448,39.504,47.932-20.828,36.545-54.283c8.662,24.621,6.975,75.357-4.57,94.408
			C513.772,836.578,488.742,841.199,478.178,830.873z M528.426,852.115c23.756-42.029,15.391-139.229,2.285-186.453
			c0.996-3.504,2.922,0.93,6.854,0c17.994,22.686,21.668,92.631,18.271,141.606c-1.748,25.203-18.855,60.865,15.988,56.646
			C555.192,871.615,537.292,860.294,528.426,852.115z M674.608,842.673c-27.977,4.5-51.021-16.504-82.229-16.521
			c-2.014-56.377-15.732-101.328,0-158.134C596.684,750.113,608.983,823.943,674.608,842.673z"/>
		<g>
			<path fill="#0C3A03" d="M202.171,491.908c-18.39,0-33.896-11.375-37.806-27.066c-16.958-0.113-30.719-14.098-30.719-31.27
				c0-2.741,0.366-5.477,1.091-8.157c-5.466-7.963-8.343-17.259-8.343-27.027c0-26.195,21.066-47.51,46.959-47.51
				c2.563,0,5.127,0.213,7.659,0.636c6.223-12.313,19.919-20.354,35.28-20.354c7.141,0,14.039,1.731,20.092,5.031
				c4.757-1.802,9.8-2.713,15.025-2.713c14.075,0,26.922,6.819,33.742,17.644c2.027-0.419,4.083-0.63,6.145-0.63
				c17.054,0,30.928,14.026,30.928,31.271c0,10.876-5.5,20.792-14.524,26.49c-0.563,22.161-13.142,41.544-30.624,47.412
				c-5.56,13.481-20.151,22.711-36.355,22.711c-2.454,0-4.905-0.209-7.319-0.625C226.114,486.666,214.66,491.908,202.171,491.908z"
				/>
			<path fill="#156803" d="M317.823,378.829c0-14.841-11.876-26.871-26.527-26.871c-2.908,0-5.698,0.491-8.316,1.366
				c-5.257-10.809-17.411-18.377-31.571-18.377c-5.524,0-10.74,1.158-15.364,3.206c-5.588-3.479-12.397-5.525-19.753-5.525
				c-15.273,0-28.211,8.808-32.677,20.987c-3.288-0.824-6.723-1.271-10.262-1.271c-23.504,0-42.558,19.3-42.558,43.109
				c0,9.871,3.283,18.961,8.792,26.229c-0.979,2.806-1.541,5.812-1.541,8.954c0,14.84,11.876,26.872,26.527,26.872
				c1.161,0,2.296-0.102,3.417-0.248c1.725,15.336,16.368,27.312,34.181,27.312c12.46,0,23.369-5.861,29.391-14.631
				c2.917,0.711,5.986,1.1,9.159,1.1c15.651,0,28.846-9.25,32.991-21.896c16.915-4.449,29.605-23.073,29.605-45.379
				c0-0.335-0.014-0.663-0.019-0.995C311.911,398.331,317.823,389.289,317.823,378.829z"/>
			<path fill="#1FB200" d="M314.889,376.45c0-14.077-11.411-25.487-25.487-25.487c-2.793,0-5.474,0.465-7.989,1.296
				c-5.051-10.251-16.729-17.432-30.333-17.432c-5.307,0-10.318,1.099-14.761,3.041c-5.369-3.297-11.911-5.241-18.977-5.241
				c-14.675,0-27.105,8.355-31.397,19.907c-3.158-0.782-6.459-1.204-9.859-1.204c-22.583,0-40.89,18.307-40.89,40.89
				c0,9.363,3.154,17.985,8.448,24.878c-0.942,2.66-1.48,5.513-1.48,8.494c0,14.076,11.411,25.488,25.487,25.488
				c1.115,0,2.206-0.098,3.282-0.236c1.658,14.545,15.727,25.906,32.84,25.906c11.972,0,22.453-5.557,28.239-13.877
				c2.803,0.674,5.75,1.043,8.8,1.043c15.036,0,27.715-8.773,31.697-20.771c16.251-4.221,28.445-21.884,28.445-43.04
				c0-0.318-0.015-0.633-0.02-0.946C309.209,394.947,314.889,386.371,314.889,376.45z"/>
		</g>
		<g>
			<g>
				<path fill="#FFFFFF" d="M977.655,183.234c0-10.319-13.775-19.445-34.889-25.033c3.012-2.65,4.682-5.56,4.682-8.613
					c0-9.846-17.312-18.195-41.309-21.147c0.826-1.811,1.281-3.669,1.281-5.565c0-17.164-35.199-31.29-80.412-33.1
					c-10.055-21.274-60.318-37.454-120.855-37.454c-14.146,0-27.725,0.895-40.375,2.521
					c-33.238-20.349-93.697-33.961-162.781-33.961c-80.649,0-149.505,18.555-177.061,44.717
					c-23.082-4.183-48.797-6.532-75.939-6.532c-99.479,0-180.119,31.377-180.119,70.082c0,11.948,7.701,23.193,21.255,33.037
					c-20.617,6.602-33.672,16.333-33.672,27.196c0,4.905,2.671,9.58,7.485,13.841c-19.652,7.919-31.651,18.465-31.651,30.048
					c0,21.862,42.733,40.029,99.044,43.783c15.222,7.143,36.229,12.521,60.431,15.175c7.645,9.802,28.629,17.512,55.246,20.286
					c4.409,4.155,11.281,7.853,19.971,10.847c6.812,13.803,39.54,24.27,78.911,24.27c14.079,0,27.306-1.341,38.809-3.693
					c8.25,1.327,17.091,2.241,26.335,2.685c17.866,8.406,45.62,13.812,76.813,13.812c27.469,0,52.27-4.192,70.002-10.931
					c9.998,2.477,22.027,3.921,34.975,3.921c14.861,0,28.508-1.906,39.27-5.088c10.979,3.46,25.215,5.554,40.781,5.554
					c27.707,0,51.209-6.614,59.57-15.797c8.254,1.469,17.51,2.292,27.283,2.292c34.713,0,62.852-10.382,62.852-23.188
					c0-4.712-3.818-9.094-10.357-12.751c49.215-1.19,88.145-16.288,88.145-34.747c0-8.328-7.934-15.97-21.143-21.963
					c25.248-5.294,42.287-15.301,42.287-26.781c0-2.899-1.107-5.7-3.135-8.359C953.163,208.654,977.655,197.001,977.655,183.234z"/>
				<path fill="#0C3A03" d="M488.856,374.371c-31.958,0-62.21-5.135-84.14-14.187c-6.268-0.425-12.422-1.049-18.396-1.865
					c-12.355,2.131-25.859,3.248-39.424,3.248c-43.942,0-81.529-11.435-95.564-28.418c-5.69-2.358-10.641-4.989-14.814-7.872
					c-24.593-3.502-44.687-10.812-56.492-20.448c-21.118-2.946-39.997-7.83-55.314-14.315C58.067,285.024,12,261.801,12,233.273
					c0-12.715,9.173-24.636,26.192-34.428c-1.34-3.103-2.026-6.276-2.026-9.461c0-11.575,8.746-22.369,24.611-30.968
					c-8.028-9.27-12.194-19.185-12.194-29.265c0-47.112,88.472-84.018,201.415-84.018c23.383,0,46.136,1.606,67.833,4.781
					C354.203,23.558,424.696,6.948,502.997,6.948c67.551,0,129.738,12.253,169.111,33.051c11.115-1.07,22.527-1.61,34.045-1.61
					c62.199,0,114.982,15.355,135.193,38.312c47.672,4.22,82.141,20.58,86.824,41.314c25.146,6.183,40.572,17.839,40.572,31.574
					c0,0.58-0.027,1.16-0.086,1.738c19.258,8.19,30.293,19.562,30.293,31.908c0,17.503-21.082,32.253-55.227,39.689
					c-1.045,11.397-11.148,21.591-28.361,29.214c4.799,5.5,7.309,11.435,7.309,17.561c0,21.678-31.852,39.724-77.834,46.194
					c0.031,0.435,0.047,0.867,0.047,1.304c0,21.165-36.174,37.125-84.146,37.125c-6.633,0-13.137-0.314-19.447-0.938
					c-15.41,8.982-40.104,14.443-67.404,14.443c-14.664,0-28.662-1.534-41.045-4.469c-11.893,2.629-25.189,4.003-39.008,4.003
					c-11.438,0-22.67-0.962-32.994-2.808C540.409,370.914,515.252,374.371,488.856,374.371z"/>
			</g>
			<path fill="#168407" d="M977.655,183.234c0-10.319-13.775-19.445-34.889-25.033c3.012-2.65,4.682-5.56,4.682-8.613
				c0-9.846-17.312-18.195-41.309-21.147c0.826-1.811,1.281-3.669,1.281-5.565c0-17.164-35.199-31.29-80.412-33.1
				c-10.055-21.274-60.318-37.454-120.855-37.454c-14.146,0-27.725,0.895-40.375,2.521c-33.238-20.349-93.697-33.961-162.781-33.961
				c-80.648,0-149.504,18.555-177.06,44.717c-23.081-4.183-48.798-6.532-75.939-6.532c-99.479,0-180.119,31.377-180.119,70.082
				c0,11.948,7.701,23.193,21.255,33.037c-20.617,6.602-33.672,16.333-33.672,27.196c0,4.905,2.671,9.58,7.485,13.841
				c-19.652,7.919-31.651,18.465-31.651,30.048c0,21.862,42.733,40.029,99.044,43.783c15.222,7.143,36.229,12.521,60.431,15.175
				c7.645,9.802,28.629,17.512,55.246,20.286c4.409,4.155,11.281,7.853,19.971,10.847c6.812,13.803,39.54,24.27,78.911,24.27
				c14.08,0,27.306-1.341,38.809-3.693c8.248,1.327,17.091,2.241,26.335,2.685c17.866,8.406,45.622,13.812,76.814,13.812
				c27.467,0,52.268-4.192,70.002-10.931c9.998,2.477,22.027,3.921,34.973,3.921c14.863,0,28.508-1.906,39.271-5.088
				c10.979,3.46,25.215,5.554,40.779,5.554c27.705,0,51.207-6.614,59.57-15.797c8.252,1.469,17.508,2.292,27.281,2.292
				c34.713,0,62.852-10.382,62.852-23.188c0-4.712-3.814-9.094-10.355-12.751c49.215-1.19,88.145-16.288,88.145-34.747
				c0-8.328-7.932-15.97-21.141-21.963c25.246-5.294,42.285-15.301,42.285-26.781c0-2.899-1.105-5.7-3.137-8.359
				C953.163,208.654,977.655,197.001,977.655,183.234z"/>
			<path fill="#1A680C" d="M55.661,188.034c0,5.151,2.683,10.06,7.524,14.535c-19.761,8.315-31.825,19.389-31.825,31.551
				c0,22.955,42.967,42.031,99.586,45.974c15.309,7.5,36.43,13.147,60.764,15.934c7.686,10.292,28.788,18.388,55.548,21.3
				c4.435,4.363,11.347,8.245,20.081,11.388c6.852,14.493,39.759,25.483,79.345,25.483c14.159,0,27.456-1.41,39.022-3.877
				c8.293,1.393,17.183,2.353,26.479,2.814c17.966,8.827,45.873,14.505,77.238,14.505c27.619,0,52.554-4.4,70.384-11.477
				c10.057,2.599,22.152,4.118,35.168,4.118c14.943,0,28.664-2.003,39.48-5.343c11.043,3.634,25.355,5.832,41.012,5.832
				c27.855,0,51.486-6.947,59.9-16.59c8.297,1.543,17.6,2.408,27.424,2.408c34.906,0,63.201-10.9,63.201-24.351
				c0-2.406-0.924-4.729-2.609-6.92c-4.982,10.521-30.734,18.54-61.775,18.54c-9.744,0-18.975-0.789-27.201-2.199
				c-8.338,8.812-31.77,15.16-59.389,15.16c-15.521,0-29.715-2.01-40.66-5.33c-10.73,3.053-24.334,4.883-39.148,4.883
				c-12.906,0-24.9-1.388-34.871-3.764c-17.682,6.465-42.402,10.488-69.791,10.488c-31.101,0-58.771-5.188-76.582-13.257
				c-9.219-0.423-18.033-1.301-26.258-2.574c-11.467,2.258-24.654,3.546-38.691,3.546c-39.252,0-71.88-10.047-78.672-23.291
				c-8.662-2.873-15.515-6.422-19.913-10.407c-26.533-2.663-47.455-10.061-55.077-19.468c-24.128-2.547-45.073-7.708-60.25-14.563
				c-56.141-3.604-98.744-21.038-98.744-42.018c0-11.116,11.963-21.237,31.555-28.837c-4.799-4.09-7.462-8.576-7.462-13.284
				c0-7.933,19.841-19.454,32.501-25.284c-1.217-1.13-4.867-1.77-5.978-2.934C73.541,167.195,55.661,179.104,55.661,188.034z"/>
			<path fill="#1FB200" d="M948.542,146.248c0-10.338-17.375-19.105-41.465-22.206c0.826-1.901,1.281-3.851,1.281-5.843
				c0-18.021-35.33-32.854-80.719-34.754c-10.096-22.34-60.555-39.328-121.33-39.328c-14.205,0-27.838,0.939-40.531,2.646
				c-33.369-21.367-94.064-35.659-163.416-35.659c-80.96,0-150.088,19.482-177.75,46.955c-23.17-4.392-48.989-6.859-76.235-6.859
				c-99.865,0-180.821,32.947-180.821,73.588c0,12.545,20.937,39.572,25.841,38.058c-13.49-9.446-21.156-20.238-21.156-31.704
				c0-37.144,80.269-67.256,179.288-67.256c27.019,0,52.617,2.255,75.59,6.271c27.427-25.107,95.969-42.915,176.245-42.915
				c68.766,0,128.949,13.062,162.033,32.592c12.592-1.561,26.105-2.419,40.189-2.419c60.258,0,110.291,15.527,120.295,35.944
				c45.01,1.737,80.045,15.294,80.045,31.765c0,1.82-0.451,3.603-1.275,5.34c23.887,2.833,41.117,10.846,41.117,20.295
				c0,1.139-0.258,2.257-0.74,3.349C947.293,151.649,948.542,149.005,948.542,146.248z"/>
			<path fill="#1A680C" d="M978.43,182.162c0-10.995-13.732-20.724-34.82-26.733c-0.787,1.269-1.861,2.498-3.227,3.673
				c21.178,5.481,34.992,14.436,34.992,24.561c0,13.507-24.566,24.94-58.439,28.807c2.031,2.608,3.143,5.356,3.143,8.201
				c0,11.264-17.092,21.082-42.412,26.276c2.418,1.074,4.66,2.204,6.707,3.38c23.049-5.901,38.289-16.086,38.289-27.673
				c0-3.112-1.121-6.118-3.176-8.973C953.659,209.45,978.43,196.94,978.43,182.162z"/>
			<path fill="#1A680C" d="M898.872,268.496c0,18.111-39.045,32.924-88.408,34.091c5.033,2.755,8.439,5.928,9.76,9.343
				c45.883-2.728,81.053-18.223,81.053-36.949c0-2.995-0.922-5.903-2.619-8.694C898.786,267.018,898.872,267.752,898.872,268.496z"
				/>
		</g>
		<g>
			<g>
				<path fill="#1A680C" d="M358.271,213.441c-13.175,0-24.492-5.189-28.253-12.638c-0.847,0.056-1.69,0.084-2.525,0.084
					c-12.824,0-22.95-6.068-23.536-13.946c-7.963-2.422-12.976-7.417-12.976-13.142c0-3.139,1.533-6.118,4.321-8.566
					c-3.29-2.554-5.106-5.776-5.106-9.236c0-8.225,10.35-14.667,23.562-14.667c2.508,0,4.959,0.234,7.306,0.697
					c6.8-5.21,17.338-8.287,28.574-8.287c19.687,0,35.246,9.007,36.238,20.718c4.347,3.399,6.721,7.649,6.721,12.095
					c0,0.51-0.038,1.031-0.115,1.57c2.906,3.002,4.431,6.438,4.431,10.022c0,5.345-3.417,10.331-9.475,13.959
					c0.299,1.058,0.45,2.135,0.45,3.224C387.888,205.486,374.879,213.441,358.271,213.441z"/>
			</g>
			<path fill="#168407" d="M393.979,176.679c0-3.33-1.738-6.423-4.701-9.024c0.229-0.839,0.385-1.692,0.385-2.568
				c0-4.025-2.516-7.716-6.699-10.593c0.003-0.104,0.027-0.207,0.027-0.312c0-10.479-14.934-18.975-33.354-18.975
				c-11.627,0-21.854,3.388-27.823,8.52c-2.475-0.599-5.198-0.93-8.057-0.93c-11.393,0-20.627,5.253-20.627,11.733
				c0,3.672,2.97,6.948,7.614,9.099c-4.184,2.148-6.829,5.247-6.829,8.704c0,4.975,5.452,9.216,13.136,10.922
				c-0.111,0.492-0.187,0.99-0.187,1.498c0,6.48,9.234,11.733,20.628,11.733c1.527,0,3.01-0.101,4.443-0.28
				c1.986,7.267,13.001,12.834,26.335,12.834c14.735,0,26.683-6.796,26.683-15.178c0-1.586-0.431-3.115-1.225-4.553
				C389.995,186.26,393.979,181.738,393.979,176.679z"/>
			<path fill="#1FB200" d="M391.045,171.942c0-2.95-1.624-5.69-4.393-7.994c0.214-0.743,0.359-1.499,0.359-2.275
				c0-3.565-2.351-6.834-6.26-9.383c0.003-0.093,0.026-0.183,0.026-0.276c0-9.282-13.957-16.807-31.171-16.807
				c-10.866,0-20.422,3.001-26.002,7.547c-2.313-0.53-4.857-0.824-7.529-0.824c-10.647,0-19.277,4.653-19.277,10.393
				c0,3.252,2.775,6.154,7.115,8.06c-3.909,1.902-6.381,4.647-6.381,7.709c0,4.407,5.095,8.163,12.276,9.675
				c-0.104,0.436-0.175,0.876-0.175,1.327c0,5.74,8.63,10.393,19.277,10.393c1.428,0,2.814-0.089,4.153-0.249
				c1.856,6.437,12.15,11.368,24.611,11.368c13.771,0,24.937-6.02,24.937-13.444c0-1.406-0.403-2.759-1.145-4.033
				C387.321,180.428,391.045,176.423,391.045,171.942z"/>
		</g>
		<g>
			<g>
				<path fill="#156803" d="M622.95,336.416c-20.436,0-38.875-4.542-50.344-12.275c-8.02,4.323-19.613,6.845-31.926,6.845
					c-7.473,0-14.73-0.914-21.133-2.652c-7.922,3.771-18.743,5.912-30.105,5.912c-18.147,0-37.101-5.673-42.153-16.571
					c-24.093-1.74-41.22-11.705-41.271-24.363c-5.633-4.743-6.903-9.642-6.903-13.094c0-8.73,8.06-16.364,21.745-20.782
					c5.936-23.328,53.083-40.49,113.124-40.49c14.213,0,28.07,0.995,41.215,2.958c4.551-0.761,9.312-1.146,14.18-1.146
					c21.844,0,38.961,7.475,42.693,17.978c15.354,3.548,24.742,11.16,24.742,20.296c0,1.5-0.266,3.349-1.139,5.356
					c12.316,3.944,19.67,10.852,19.67,18.91c0,1.59-0.297,3.168-0.875,4.698c8.707,6.261,10.689,12.914,10.689,17.666
					C685.157,323.192,658.415,336.416,622.95,336.416z"/>
			</g>
			<path fill="#168407" d="M667.5,289.647c1.742-1.965,2.711-4.11,2.711-6.354c0-7.13-9.662-13.247-23.426-15.856
				c3.107-2.487,4.893-5.354,4.893-8.41c0-7.227-9.926-13.406-23.984-15.955c-0.023-9.493-17.17-17.184-38.316-17.184
				c-4.992,0-9.752,0.432-14.125,1.213c-12.727-1.945-26.656-3.024-41.27-3.024c-59.093,0-107.133,17.535-108.587,39.367
				c-12.669,3.419-21.146,9.651-21.146,16.771c0,3.981,2.656,7.682,7.206,10.771c-0.192,0.745-0.301,1.5-0.301,2.268
				c0,10.265,17.621,18.679,40.021,19.488c0.974,9.11,17.732,16.368,38.271,16.368c11.915,0,22.558-2.442,29.585-6.272
				c6.16,1.899,13.617,3.013,21.65,3.013c13.516,0,25.385-3.143,32.203-7.885c9.699,7.938,28.482,13.318,50.066,13.318
				c31.52,0,57.074-11.472,57.074-25.625C680.024,299.598,675.331,294.035,667.5,289.647z"/>
			<path fill="#1FB200" d="M664.772,286.881c1.725-1.883,2.684-3.937,2.684-6.087c0-6.83-9.562-12.688-23.184-15.187
				c3.078-2.382,4.842-5.129,4.842-8.056c0-6.921-9.822-12.84-23.736-15.282c-0.02-9.092-16.992-16.459-37.918-16.459
				c-4.939,0-9.652,0.414-13.979,1.161c-12.596-1.861-26.381-2.896-40.842-2.896c-58.48,0-106.021,16.795-107.462,37.706
				c-12.538,3.275-20.928,9.243-20.928,16.062c0,3.813,2.629,7.358,7.131,10.317c-0.188,0.712-0.298,1.437-0.298,2.172
				c0,9.833,17.438,17.891,39.604,18.666c0.964,8.728,17.55,15.677,37.873,15.677c11.791,0,22.324-2.339,29.279-6.007
				c6.098,1.818,13.479,2.885,21.43,2.885c13.371,0,25.117-3.01,31.869-7.553c9.6,7.602,28.189,12.756,49.547,12.756
				c31.193,0,56.48-10.988,56.48-24.544C677.165,296.412,672.52,291.083,664.772,286.881z"/>
		</g>
		<g>
			<g>
				<path fill="#156803" d="M722.641,208.698c-8.32,0-15.908-2.052-20.615-5.532c-0.203,0.004-0.408,0.008-0.613,0.008
					c-10.191,0-19.021-3.025-23.107-7.808c-10.852-1.202-18.52-5.758-19.883-11.719c-3.416-2.818-4.17-5.767-4.17-7.821
					c0-4.007,2.748-7.572,7.779-10.153c1.811-6.545,11.705-11.275,24.246-11.275c8.762,0,16.547,2.339,20.896,6.19
					c2.574-0.441,5.258-0.666,7.998-0.666c14.561,0,25.537,5.989,25.537,13.93c0,0.214-0.008,0.43-0.023,0.645
					c5.297,2.577,8.279,6.284,8.279,10.404c0,1.945-0.674,3.827-1.967,5.542c0.779,1.381,1.182,2.844,1.182,4.323
					C748.18,202.71,737.202,208.698,722.641,208.698z"/>
			</g>
			<path fill="#168407" d="M746.034,183.436c0-3.54-3.451-6.68-8.791-8.691c0.344-0.76,0.535-1.548,0.535-2.359
				c0-6.072-10.121-10.996-22.605-10.996c-3.188,0-6.217,0.325-8.969,0.904c-3.279-3.777-10.967-6.428-19.926-6.428
				c-11.814,0-21.398,4.611-21.605,10.334c-4.588,2.013-7.486,4.918-7.486,8.16c0,2.307,1.469,4.446,3.965,6.213
				c0.285,5.298,8.27,9.655,18.719,10.531c2.896,4.446,11.447,7.669,21.547,7.669c0.537,0,1.061-0.021,1.592-0.04
				c3.891,3.321,11.219,5.564,19.637,5.564c12.484,0,22.604-4.924,22.604-10.997c0-1.624-0.74-3.16-2.039-4.545
				C745.004,187.179,746.034,185.367,746.034,183.436z"/>
			<path fill="#1FB200" d="M744.567,181.487c0-3.289-3.221-6.207-8.199-8.076c0.316-0.707,0.498-1.438,0.498-2.192
				c0-5.644-9.441-10.219-21.088-10.219c-2.975,0-5.799,0.301-8.365,0.84c-3.061-3.51-10.23-5.974-18.588-5.974
				c-11.021,0-19.963,4.285-20.152,9.604c-4.277,1.871-6.982,4.57-6.982,7.582c0,2.144,1.365,4.131,3.693,5.774
				c0.271,4.925,7.715,8.974,17.461,9.787c2.705,4.131,10.682,7.127,20.102,7.127c0.502,0,0.992-0.02,1.482-0.037
				c3.629,3.086,10.469,5.17,18.318,5.17c11.645,0,21.086-4.576,21.086-10.219c0-1.509-0.691-2.936-1.902-4.225
				C743.606,184.965,744.567,183.281,744.567,181.487z"/>
		</g>
		<g>
			<path fill="#0C3A03" d="M770.877,489.095c-5.117,0-9.998-1.629-14.037-4.639c-5.893,2.756-12.869,4.252-19.988,4.252
				c-16.166,0-29.979-7.447-34.611-18.17c-0.59,0.021-1.164,0.035-1.732,0.035c-17.918,0-32.803-9.229-35.732-21.551
				c-14.705-3.714-23.377-10.75-23.377-19.125c0-6.585,5.252-12.319,14.873-16.333c1.02-5.799,6.354-10.879,15.143-14.458
				c-0.678-1.776-1.018-3.608-1.018-5.482c0-14.152,20.188-25.238,45.969-25.238c7.959,0,15.656,1.068,22.475,3.105
				c6.967-9.011,17.625-14.296,29.145-14.296c15.518,0,29.342,9.801,34.605,24.173c16.506,2.287,27.791,10.512,27.791,20.553
				c0,6.292-4.484,12.025-12.252,15.949c1.689,3.285,2.586,6.938,2.586,10.677c0,8.625-4.609,16.346-11.986,20.467
				c-0.008,9.736-6,18.332-14.896,21.826C791.434,481.431,782.038,489.095,770.877,489.095z"/>
			<path fill="#168407" d="M825.977,398.989c0-8.253-11.531-15.1-26.713-16.507c-3.777-13.725-16.336-23.818-31.283-23.818
				c-11.551,0-21.662,6.032-27.42,15.092c-6.818-2.453-15.17-3.899-24.199-3.899c-22.957,0-41.568,9.329-41.568,20.838
				c0,2.787,1.104,5.443,3.084,7.875c-10.52,3.149-17.387,8.3-17.387,14.12c0,0.339,0.027,0.675,0.074,1.009
				c-9.029,3.185-14.77,7.944-14.77,13.269c0,6.781,9.311,12.65,22.875,15.508c0.662,11.539,14.645,20.767,31.836,20.767
				c1.65,0,3.254-0.111,4.836-0.275c2.285,10.414,15.504,18.412,31.512,18.412c7.854,0,15.031-1.93,20.59-5.119
				c3.457,3.4,8.197,5.504,13.436,5.504c9.93,0,18.09-7.547,19.043-17.207c8.275-2.104,14.402-9.571,14.402-18.485
				c0-0.908-0.084-1.795-0.207-2.668c7.133-2.778,12.191-9.685,12.191-17.785c0-4.859-1.834-9.281-4.826-12.653
				C820.215,409.954,825.977,404.82,825.977,398.989z"/>
			<path fill="#1FB200" d="M821.579,396.986c0-7.844-10.938-14.35-25.334-15.688c-3.584-13.042-15.496-22.636-29.676-22.636
				c-10.951,0-20.543,5.73-26.004,14.342c-6.469-2.331-14.389-3.707-22.953-3.707c-21.771,0-39.422,8.866-39.422,19.803
				c0,2.649,1.043,5.177,2.922,7.484c-9.98,2.994-16.49,7.887-16.49,13.419c0,0.322,0.025,0.642,0.07,0.958
				c-8.562,3.027-14.008,7.552-14.008,12.61c0,6.442,8.83,12.021,21.697,14.737c0.625,10.967,13.887,19.734,30.193,19.734
				c1.561,0,3.086-0.104,4.586-0.262c2.168,9.896,14.705,17.498,29.887,17.498c7.447,0,14.258-1.836,19.529-4.865
				c3.275,3.23,7.773,5.23,12.742,5.23c9.418,0,17.154-7.173,18.061-16.354c7.85-2.002,13.66-9.096,13.66-17.569
				c0-0.86-0.08-1.704-0.197-2.533c6.766-2.641,11.566-9.202,11.566-16.901c0-4.618-1.738-8.82-4.578-12.024
				C816.114,407.407,821.579,402.528,821.579,396.986z"/>
		</g>
		<g>
			<path fill="#0C3A03" d="M675.247,609.255c-6.711,0-13.139-1.08-18.672-3.133c-2.078,0.217-4.15,0.324-6.174,0.324
				c-13.707,0-25.619-4.433-30.998-11.408c-9.223-3.611-14.68-9.695-14.68-16.465c0-6.795,5.504-12.849,14.664-16.443
				c-0.156-0.799-0.236-1.604-0.236-2.418c0-11.316,14.641-19.85,34.055-19.85c1.764,0,3.557,0.084,5.355,0.245
				c6.43-8.493,16.367-13.487,27.104-13.487c11.715,0,22.455,5.963,28.688,15.744c1.131-0.064,2.258-0.097,3.373-0.097
				c19.414,0,34.059,8.533,34.059,19.853c0,5.819-4.047,11.102-10.973,14.756c3.217,3.08,4.959,6.701,4.959,10.522
				c0,11.314-14.643,19.849-34.057,19.849c-5.379,0-10.674-0.715-15.434-2.076C690.344,607.816,682.958,609.255,675.247,609.255z"/>
			<g>
				<path fill="#168407" d="M747.377,559.188c0-8.531-13.277-15.449-29.654-15.449c-1.98,0-3.914,0.104-5.787,0.301
					c-4.953-9.477-14.854-15.949-26.271-15.949c-10.514,0-19.727,5.494-24.994,13.756c-2.387-0.323-4.881-0.514-7.465-0.514
					c-16.379,0-29.654,6.916-29.654,15.449c0,1.797,0.619,3.518,1.703,5.123c-9.566,2.561-16.131,7.742-16.131,13.735
					c0,5.337,5.197,10.041,13.094,12.818c3.871,6.185,15.021,10.656,28.186,10.656c2.326,0,4.582-0.154,6.756-0.418
					c5.008,2.014,11.27,3.227,18.09,3.227c8.053,0,15.344-1.678,20.689-4.393c4.568,1.504,9.973,2.385,15.773,2.385
					c16.377,0,29.656-6.914,29.656-15.447c0-4.606-3.895-8.731-10.037-11.562C740.858,570.333,747.377,565.164,747.377,559.188z"/>
				<path fill="#1FB200" d="M741.999,556.509c0-7.797-12.15-14.119-27.137-14.119c-1.814,0-3.584,0.099-5.295,0.273
					c-4.535-8.658-13.594-14.574-24.043-14.574c-9.621,0-18.053,5.021-22.871,12.57c-2.188-0.295-4.469-0.469-6.834-0.469
					c-14.986,0-27.139,6.319-27.139,14.116c0,1.646,0.568,3.216,1.561,4.685c-8.758,2.34-14.76,7.078-14.76,12.553
					c0,4.879,4.754,9.178,11.98,11.715c3.543,5.652,13.744,9.74,25.791,9.74c2.131,0,4.193-0.141,6.182-0.383
					c4.584,1.842,10.314,2.949,16.557,2.949c7.369,0,14.041-1.533,18.932-4.015c4.188,1.373,9.127,2.183,14.439,2.183
					c14.986,0,27.137-6.32,27.137-14.119c0-4.213-3.561-7.982-9.184-10.568C736.032,566.697,741.999,561.97,741.999,556.509z"/>
			</g>
		</g>
	</g>
</g>
<g id="Layer_2">
	<g>
		<polygon fill="#754C28" points="552.084,869.656 560.137,869.656 560.137,427.225 552.084,418.482 		"/>
		<g>
			
				<linearGradient id="SVGID_1_" gradientUnits="userSpaceOnUse" x1="809.2017" y1="52.4375" x2="686.5544" y2="48.2561" gradientTransform="matrix(-1 0 0 -1 1290.7705 878.457)">
				<stop  offset="0.4121" style="stop-color:#E1AD80"/>
				<stop  offset="0.6264" style="stop-color:#C07F41"/>
			</linearGradient>
			<path fill="url(#SVGID_1_)" d="M552.084,786.793v82.862h-11.703C545.944,830.612,550.276,849.442,552.084,786.793z"/>
			
				<linearGradient id="SVGID_2_" gradientUnits="userSpaceOnUse" x1="788.396" y1="382.1909" x2="676.2135" y2="378.3663" gradientTransform="matrix(-1 0 0 -1 1290.7705 878.457)">
				<stop  offset="0.4121" style="stop-color:#E1AD80"/>
				<stop  offset="0.6264" style="stop-color:#C07F41"/>
			</linearGradient>
			<path fill="url(#SVGID_2_)" d="M552.084,418.482V577.44c-1.531-84.688-4.873-115.529-9.234-158.958H552.084z"/>
			
				<linearGradient id="SVGID_3_" gradientUnits="userSpaceOnUse" x1="796.0679" y1="235.8403" x2="676.8831" y2="231.777" gradientTransform="matrix(-1 0 0 -1 1290.7705 878.457)">
				<stop  offset="0.4121" style="stop-color:#E1AD80"/>
				<stop  offset="0.6264" style="stop-color:#C07F41"/>
			</linearGradient>
			<path fill="url(#SVGID_3_)" d="M531.733,869.656c6.355-59.298,10.678-39.2,10.678-173.604c0-135.449-4.391-213.022-10.83-271.876
				v-5.694h11.27c4.361,43.428,7.703,74.269,9.234,158.957v209.354c1.725,61.354-6.141,53.682-11.703,82.862H531.733
				L531.733,869.656z"/>
			
				<linearGradient id="SVGID_4_" gradientUnits="userSpaceOnUse" x1="737.7651" y1="234.3877" x2="778.1843" y2="234.3877" gradientTransform="matrix(-1 0 0 -1 1290.7705 878.457)">
				<stop  offset="0.0934" style="stop-color:#E1AD80"/>
				<stop  offset="0.5659" style="stop-color:#C07F41"/>
			</linearGradient>
			<path fill="url(#SVGID_4_)" d="M531.733,869.656c6.355-59.298,10.678-39.2,10.678-173.604c0-135.449-4.391-213.022-10.83-271.876
				v-5.694h11.27c4.361,43.428,7.703,74.269,9.234,158.957v209.354c-2.172,53.646-6.141,43.818-11.703,82.862H531.733
				L531.733,869.656z"/>
			
				<linearGradient id="SVGID_5_" gradientUnits="userSpaceOnUse" x1="737.7505" y1="10.604" x2="778.1993" y2="10.604" gradientTransform="matrix(-1 0 0 -1 1290.7705 878.457)">
				<stop  offset="0.0934" style="stop-color:#E1AD80"/>
				<stop  offset="0.3022" style="stop-color:#C07F41"/>
			</linearGradient>
			<path fill="url(#SVGID_5_)" d="M531.581,869.656v-3.606c0.049,1.211,0.098,2.41,0.148,3.606H531.581z"/>
			
				<linearGradient id="SVGID_6_" gradientUnits="userSpaceOnUse" x1="748.3481" y1="10.604" x2="788.7969" y2="10.604" gradientTransform="matrix(-1 0 0 -1 1290.7705 878.457)">
				<stop  offset="0.0934" style="stop-color:#E1AD80"/>
				<stop  offset="0.3022" style="stop-color:#C07F41"/>
			</linearGradient>
			<path fill="url(#SVGID_6_)" d="M531.581,869.656v-3.606c0.049,1.211,0.098,2.41,0.148,3.606H531.581z"/>
			
				<linearGradient id="SVGID_7_" gradientUnits="userSpaceOnUse" x1="793.5405" y1="232.7144" x2="684.9961" y2="229.0138" gradientTransform="matrix(-1 0 0 -1 1290.7705 878.457)">
				<stop  offset="0.4121" style="stop-color:#E1AD80"/>
				<stop  offset="0.6264" style="stop-color:#C07F41"/>
			</linearGradient>
			<path fill="url(#SVGID_7_)" d="M531.733,869.656h-0.006c-0.049-1.196-0.098-2.396-0.146-3.606V424.177
				c6.439,58.854,10.83,136.427,10.83,271.876C542.411,830.456,538.088,810.358,531.733,869.656z"/>
			
				<linearGradient id="SVGID_8_" gradientUnits="userSpaceOnUse" x1="737.77" y1="231.5405" x2="778.1797" y2="231.5405" gradientTransform="matrix(-1 0 0 -1 1290.7705 878.457)">
				<stop  offset="0.0934" style="stop-color:#E1AD80"/>
				<stop  offset="0.3022" style="stop-color:#C07F41"/>
			</linearGradient>
			<path fill="url(#SVGID_8_)" d="M531.733,869.656h-0.006c-0.049-1.196-0.098-2.396-0.146-3.606V424.177
				c6.439,58.854,10.83,136.427,10.83,271.876C542.411,830.456,538.088,810.358,531.733,869.656z"/>
			
				<linearGradient id="SVGID_9_" gradientUnits="userSpaceOnUse" x1="748.3599" y1="231.5405" x2="788.7695" y2="231.5405" gradientTransform="matrix(-1 0 0 -1 1290.7705 878.457)">
				<stop  offset="0" style="stop-color:#E1AD80"/>
				<stop  offset="0.3352" style="stop-color:#C07F41"/>
			</linearGradient>
			<path fill="url(#SVGID_9_)" d="M531.733,869.656h-0.006c-0.049-1.196-0.098-2.396-0.146-3.606V424.177
				c6.439,58.854,10.83,136.427,10.83,271.876C542.411,830.456,538.088,810.358,531.733,869.656z"/>
		</g>
	</g>
	<polygon fill="#4D321B" points="559.993,670.452 551.944,660.097 531.631,661.826 531.631,579.121 551.944,578.963 
		559.993,578.901 	"/>
	<g>
		<path fill="#8BC53F" d="M364.821,875.125c7.271,3.945,11.145-0.15,18.413,3.795c87.094,0,215.704-0.623,314.442-0.623
			c8.326-4.519,22.023-3.49,29.432-13.999c-1.938-0.26-2.652-0.826-2.189-1.756c-0.549-0.602,0.814-1.791,3.391-3.346
			c-5.898,1.416-8.926,2.098-8.035,2.027c-1.496,0.19-2.762,0.358-3.785,0.491c-4.396,0.271-7.33,0.479-8.822,0.602
			c-10.791-1.099-13.293-1.826-7.082-2.688c-12.52-0.786-14.68-1.34-7.238-2.825c-9.445,0.994-11.895-0.316-9.92-4.957
			c-5.426,2.093-5.975,1.063-3.24-2.796c-5.689,2.005-7.787,1.329-7.359-2.514c-2.803,1.189-2.848-0.722-1.664-4.136
			c-3.264,2.501-5.385,3.569-5.73,1.536c-2.646,2.248-3.432,1.416-3.012-1.804c-3.055,3.571-4.736,4.79-4.627,1.606
			c-2.906,3.952-3.865,3.523-3.396-1.018c-6.152,4.675-9.949,4.315-14.617-1.148c-3.102,3.854-6.188,2.64-9.711-3.825
			c-2.062,5.119-3.449,3.715-4.9-2.929c-2.184,4.079-3.875,2.979-5.654-2.068c-1.953,4.24-3.629,4.604-5.361,0.236
			c-2.83,5.32-5.279,5.951-8,0.479c-1.973,5.102-5.762,5.102-13.938-0.363c-1.051,6.349-2.768,5.604-5.615-1.369
			c-3.889,6.188-7.941,6.232-13.178-0.348c0.525,4.594-2.346,3.818-8.436-1.589c-0.289,3.414-3.172,2.145-8.562-2.455
			c-1.207,4.407-4.27,5.478-8.104,1.958c-1.791,5.165-3.98,5.743-5.881,0.972c-8.285,5.73-13.896,6.02-14.682,0.195
			c-7.383,5.305-11.113,5.038-10.738-0.757c-3.461,3.808-5.977,3.899-8.512,0.301c-0.697,2.368-1.201,1.046-0.936-2.225
			c-7.135,5.858-10.036,7.39-9.342,3.201c-5.87,6.313-7.372,7.048-6.777,2.16c-3.986,5.472-8.498,6.481-16.142,3.299
			c1.67,4.287,0.773,4.264-2.641,0.254c-4.362,4.778-8.302,5.223-13.121,1.797c0.197,2.9-1.745,2.762-5.095-0.098
			c0.058,1.328-1.196-0.081-2.525-3.005c-1.924,5.366-4.003,6.776-8.774,4.056c0.849,3.715,0.565,5.125-1.82,2.779
			c0.815,4.501-0.237,5.229-3.894,1.605c-1.329,4.147-4.824,4.829-12.717,2.415c0.82,4.177-2.079,5.084-10.671,2.646
			c3.6,3.808,1.271,2.864-5.74-1.837c1.608,2.976-1.255,2.138-7.354-1.301c2.926,4.188,2.912,5.761-1.629,3.722
			c3.478,5.44,2.854,7.181-4.536,4.574c3.521,3.778,0.5,4.473-9.729,2.981c4.975,4.096,3.259,5.679-7.675,5.894
			c5.251,1.998,1.565,2.275-10.966,1.843C372.458,866.366,371.372,874.714,364.821,875.125z M714.471,861.975
			C712.881,862.183,712.836,862.171,714.471,861.975L714.471,861.975z"/>
	</g>
	<g>
		<path fill="#81B040" d="M353.808,876.229c7.271,2.94,21.565,1.227,28.833,4.167c87.094,0,215.928,0.166,314.667,0.166
			c8.326-3.368,14.841-3.132,23.167-6.5c-1.938-0.19,14.037-9.14,14.5-9.833c-0.549-0.45-25.811,1.127-24.922,1.079
			c-1.496,0.14,3.004,0.268,1.982,0.364c-4.391,0.202-7.332,0.354-8.822,0.445c-10.793-0.815-13.289-1.358-7.078-1.999
			c-12.52-0.584-14.686-1-7.244-2.104c-9.445,0.74-11.896-0.235-9.914-3.696c-5.43,1.56-5.979,0.792-3.24-2.08
			c-5.697,1.497-7.789,0.993-7.367-1.871c-2.801,0.884-2.848-0.538-1.664-3.08c-3.264,1.859-5.379,2.658-5.725,1.145
			c-2.646,1.675-3.432,1.052-3.016-1.347c-3.051,2.664-4.738,3.57-4.623,1.196c-2.904,2.945-3.869,2.629-3.402-0.757
			c-6.146,3.482-9.947,3.218-14.615-0.855c-3.098,2.872-6.188,1.965-9.707-2.854c-2.062,3.817-3.455,2.772-4.904-2.174
			c-2.178,3.033-3.871,2.22-5.648-1.548c-1.959,3.166-3.637,3.433-5.367,0.18c-2.826,3.964-5.281,4.432-8.002,0.357
			c-1.971,3.802-5.76,3.796-13.932-0.271c-1.051,4.726-2.766,4.177-5.619-1.022c-3.883,4.61-7.943,4.646-13.18-0.254
			c0.525,3.42-2.346,2.842-8.434-1.185c-0.283,2.542-3.172,1.595-8.562-1.831c-1.209,3.286-4.27,4.077-8.1,1.461
			c-1.797,3.848-3.986,4.274-5.889,0.723c-8.283,4.271-13.895,4.483-14.674,0.146c-7.385,3.95-11.115,3.755-10.746-0.562
			c-3.455,2.837-5.969,2.906-8.512,0.22c-0.691,1.769-1.199,0.785-0.936-1.651c-7.128,4.36-10.029,5.5-9.341,2.386
			c-5.87,4.703-7.372,5.246-6.777,1.606c-3.986,4.071-8.493,4.828-16.136,2.454c1.664,3.194,0.773,3.179-2.646,0.19
			c-4.355,3.56-8.302,3.896-13.113,1.341c0.195,2.16-1.75,2.058-5.103-0.075c0.063,0.987-1.196-0.058-2.523-2.241
			c-1.919,4.004-4.005,5.05-8.771,3.026c0.849,2.769,0.566,3.819-1.826,2.068c0.82,3.351-0.236,3.895-3.894,1.196
			c-1.329,3.091-4.824,3.599-12.71,1.797c0.813,3.112-2.08,3.79-10.675,1.976c3.604,2.831,1.271,2.132-5.742-1.369
			c1.608,2.213-1.254,1.595-7.35-0.971c2.924,3.12,2.906,4.287-1.628,2.772c3.472,4.051,2.848,5.351-4.541,3.408
			c3.524,2.813,0.502,3.328-9.726,2.22c4.971,3.056,3.261,4.229-7.678,4.391c5.254,1.49,1.566,1.698-10.965,1.369
			C368.004,869.139,360.36,875.923,353.808,876.229z M710.016,865.863C708.428,866.019,708.381,866.013,710.016,865.863
			L710.016,865.863z"/>
	</g>
</g>
</svg>
